<?xml version="1.0" encoding="iso-8859-1"?>
<!-- Generator: Adobe Illustrator 19.0.0, SVG Export Plug-In . SVG Version: 6.00 Build 0)  -->
<svg version="1.1" id="Capa_1" xmlns="http://www.w3.org/2000/svg" xmlns:xlink="http://www.w3.org/1999/xlink" x="0px" y="0px"
	 viewBox="0 0 512 512" style="enable-background:new 0 0 512 512;" xml:space="preserve">
<g>
	<g>
		<path d="M171.63,260.592c-1.222-1.016-2.683-1.739-4.274-2.084c-2.96-0.644-6.052,0.092-8.407,1.996
			c-1.823,1.472-44.476,36.472-31.875,71.794c7.369,20.653,26.908,25.944,37.319,25.944c0.305,0,0.604-0.005,0.893-0.012
			c2.928,0.051,15.301-0.266,25.971-8.71l0.271-0.217c0.001,0,0.001-0.001,0.001-0.001l0.016-0.013
			c0.002-0.002,0.004-0.003,0.005-0.004c0.01-0.008,0.021-0.017,0.031-0.025c0.177-0.144,0.354-0.29,0.53-0.437
			c0.016-0.014,0.032-0.027,0.048-0.041c0.006-0.005,0.012-0.011,0.018-0.016c5.078-4.296,8.852-9.837,11.218-16.468
			C215.811,297.496,174.588,263.007,171.63,260.592z M184.559,325.577c-1.177,3.301-2.903,5.885-5.274,7.899
			c-0.015,0.012-0.029,0.024-0.044,0.037l-0.203,0.169c-0.018,0.015-0.037,0.029-0.055,0.044l-0.148,0.118
			c-5.435,4.301-12.437,4.39-13.093,4.39c-0.032,0-0.053,0-0.05,0c-0.369-0.023-0.543-0.016-0.915,0
			c-0.136,0.005-14.173,0.494-18.865-12.656c-5.306-14.873,8.855-33.36,19.323-43.795
			C175.707,292.223,189.863,310.707,184.559,325.577z"/>
	</g>
</g>
<g>
	<g>
		<path d="M115.39,258c-0.12-0.64-0.32-1.27-0.57-1.87s-0.56-1.19-0.92-1.73c-0.36-0.55-0.78-1.06-1.24-1.52
			c-0.46-0.46-0.97-0.88-1.52-1.24c-0.54-0.36-1.12-0.67-1.73-0.92c-0.6-0.25-1.23-0.44-1.87-0.57c-1.29-0.26-2.62-0.26-3.9,0
			c-0.64,0.13-1.27,0.32-1.88,0.57c-0.6,0.25-1.18,0.56-1.72,0.92c-0.55,0.36-1.06,0.78-1.52,1.24c-0.46,0.46-0.88,0.97-1.25,1.52
			c-0.36,0.54-0.67,1.13-0.92,1.73c-0.25,0.6-0.44,1.23-0.57,1.87c-0.13,0.65-0.19,1.3-0.19,1.96c0,0.65,0.06,1.3,0.19,1.95
			c0.13,0.64,0.32,1.27,0.57,1.87c0.25,0.6,0.56,1.18,0.92,1.72c0.37,0.55,0.79,1.06,1.25,1.53c0.46,0.46,0.97,0.87,1.52,1.24
			c0.54,0.36,1.12,0.67,1.72,0.92c0.61,0.25,1.24,0.44,1.88,0.57s1.3,0.19,1.95,0.19c0.65,0,1.31-0.06,1.95-0.19
			c0.64-0.13,1.27-0.32,1.87-0.57c0.61-0.25,1.19-0.56,1.73-0.92c0.55-0.37,1.06-0.78,1.52-1.24c0.46-0.47,0.88-0.98,1.24-1.53
			c0.36-0.54,0.67-1.12,0.92-1.72c0.25-0.6,0.45-1.23,0.57-1.87c0.13-0.65,0.2-1.3,0.2-1.95C115.59,259.3,115.52,258.65,115.39,258z
			"/>
	</g>
</g>
<g>
	<g>
		<path d="M413.022,334.628h24.625c5.522,0,10-4.477,10-10v-44.499c0-5.523-4.478-10-10-10h-146.62c-5.523,0-10,4.477-10,10v80.727
			c0,7.715,2.186,14.929,5.969,21.057c-3.514,1.55-5.969,5.063-5.969,9.151v80.727c0,22.171,18.037,40.208,40.208,40.208h51.578
			c22.171,0,40.209-18.038,40.209-40.208v-26.228h24.625c5.522,0,10-4.477,10-10v-44.499c0-5.523-4.478-10-10-10h-30.085
			c3.469-5.942,5.46-12.847,5.46-20.209V334.628z M413.022,290.129h14.625v24.499h-14.625V290.129z M372.812,492h-51.578
			c-11.143,0-20.208-9.065-20.208-20.208v-40.724h56.827c5.522,0,10-4.477,10-10s-4.478-10-10-10h-56.827v-10.003h91.995v70.727h0
			C393.022,482.935,383.957,492,372.812,492z M393.022,360.856c0,11.143-9.065,20.209-20.209,20.209h-51.578
			c-11.143,0-20.208-9.066-20.208-20.209v-40.724h56.827c5.522,0,10-4.477,10-10s-4.478-10-10-10h-56.827v-10.003h91.995V360.856z
			 M413.022,401.065h14.625v24.499h-14.625V401.065z"/>
	</g>
</g>
<g>
	<g>
		<path d="M218.88,117.65v-6.648h9.021c5.523,0,10-4.477,10-10V59c0-5.523-4.477-10-10-10h-9.021V10c0-5.523-4.477-10-10-10h-87.29
			c-5.523,0-10,4.477-10,10v39h-9.022c-5.523,0-10,4.477-10,10v42.003c0,5.523,4.477,10,10,10h9.022v6.647
			c-28.033,9.711-47.237,36.364-47.237,66.344v296.022c0,17.636,14.348,31.984,31.984,31.984h137.795
			c17.636,0,31.984-14.348,31.984-31.984V183.994C266.116,154.016,246.91,127.363,218.88,117.65z M131.59,20h67.29v29h-67.29V20z
			 M112.569,69h105.333v22.003H112.569V69z M84.353,183.993c0-22.539,15.18-42.448,36.917-48.417
			c6.475-1.78,10.723-7.769,10.32-14.403v-10.171h67.29v10.17c-0.403,6.637,3.846,12.626,10.323,14.404l-0.002-0.001
			c21.734,5.968,36.914,25.878,36.914,48.417v29.559H84.353V183.993z M95.588,491.975c-6.26-0.389-11.235-5.603-11.235-11.959
			v-82.464h11.235V491.975z M246.116,480.015c0,6.609-5.376,11.985-11.984,11.985H115.588v-94.449h130.528V480.015z
			 M246.116,377.551H115.588v-80.598c0-5.523-4.477-10-10-10s-10,4.477-10,10v80.598H84.353v-144h161.764V377.551z"/>
	</g>
</g>
<g>
</g>
<g>
</g>
<g>
</g>
<g>
</g>
<g>
</g>
<g>
</g>
<g>
</g>
<g>
</g>
<g>
</g>
<g>
</g>
<g>
</g>
<g>
</g>
<g>
</g>
<g>
</g>
<g>
</g>
</svg>
