<?xml version="1.0" encoding="iso-8859-1"?>
<!-- Generator: Adobe Illustrator 19.0.0, SVG Export Plug-In . SVG Version: 6.00 Build 0)  -->
<svg version="1.1" id="Capa_1" xmlns="http://www.w3.org/2000/svg" xmlns:xlink="http://www.w3.org/1999/xlink" x="0px" y="0px"
	 viewBox="0 0 511.998 511.998" style="enable-background:new 0 0 511.998 511.998;" xml:space="preserve">
<g>
	<g>
		<path d="M389.325,275.838c-2.036-5.134-7.848-7.644-12.982-5.609c-5.134,2.036-7.645,7.848-5.609,12.982
			c5.724,14.434,8.626,29.686,8.626,45.331c0,68.021-55.34,123.361-123.361,123.361s-123.361-55.34-123.361-123.361
			s55.34-123.361,123.361-123.361c5.523,0,10-4.478,10-10c0-5.522-4.477-10-10-10c-79.049,0-143.361,64.311-143.361,143.361
			s64.311,143.361,143.361,143.361s143.361-64.311,143.361-143.361C399.359,310.36,395.984,292.629,389.325,275.838z"/>
	</g>
</g>
<g>
	<g>
		<path d="M368.669,241.808c-0.12-0.64-0.32-1.27-0.57-1.87c-0.25-0.61-0.56-1.19-0.92-1.73c-0.36-0.549-0.78-1.06-1.24-1.52
			c-0.46-0.46-0.97-0.88-1.52-1.239c-0.54-0.36-1.12-0.671-1.72-0.921c-0.61-0.25-1.24-0.439-1.88-0.569c-1.29-0.26-2.61-0.26-3.9,0
			c-0.64,0.13-1.27,0.319-1.87,0.569c-0.61,0.25-1.19,0.561-1.73,0.921c-0.55,0.359-1.06,0.779-1.52,1.239
			c-0.46,0.459-0.88,0.97-1.24,1.52c-0.36,0.54-0.67,1.121-0.92,1.73c-0.25,0.6-0.44,1.23-0.57,1.87c-0.13,0.64-0.2,1.3-0.2,1.95
			c0,0.65,0.07,1.31,0.2,1.96c0.13,0.63,0.32,1.26,0.57,1.87c0.25,0.6,0.56,1.18,0.92,1.72c0.36,0.55,0.78,1.061,1.24,1.521
			c0.46,0.46,0.97,0.88,1.52,1.25c0.54,0.36,1.12,0.67,1.73,0.92c0.6,0.25,1.23,0.439,1.87,0.569c0.64,0.131,1.3,0.191,1.95,0.191
			s1.31-0.06,1.95-0.191c0.64-0.129,1.27-0.319,1.88-0.569c0.6-0.25,1.18-0.561,1.72-0.92c0.55-0.37,1.06-0.79,1.52-1.25
			c0.46-0.46,0.88-0.971,1.24-1.521c0.36-0.54,0.67-1.12,0.92-1.72c0.25-0.61,0.45-1.24,0.57-1.87c0.13-0.651,0.2-1.31,0.2-1.96
			C368.869,243.108,368.799,242.449,368.669,241.808z"/>
	</g>
</g>
<g>
	<g>
		<path d="M446.493,285.991v-95.923C446.493,85.265,361.229,0,256.424,0h-0.852C150.768,0,65.505,85.265,65.505,190.068v99.249
			c-17.404,0.991-31.26,15.461-31.26,33.11v0.109c0,18.288,14.878,33.166,33.167,33.166h7.141
			C87.716,444.027,164.069,511.998,256,511.998c91.201,0,167.07-66.896,181.121-154.196h4.633c19.851,0,36-16.149,36-36v-0.123
			C477.753,303.435,464.112,288.319,446.493,285.991z M72.68,335.702h-5.269c-7.26,0-13.167-5.906-13.167-13.166v-0.109
			c0-7.26,5.906-13.166,13.166-13.166h6.141c-0.665,6.338-1.009,12.771-1.009,19.282C72.542,330.94,72.589,333.327,72.68,335.702z
			 M255.999,491.998c-90.13,0-163.456-73.325-163.456-163.455s73.326-163.456,163.456-163.456s163.456,73.326,163.456,163.456
			S346.129,491.998,255.999,491.998z M234.424,141.289h43.15v5.062c-7.078-0.833-14.277-1.264-21.575-1.264
			c-7.298,0-14.497,0.431-21.575,1.264V141.289z M192.325,121.289V85.155h127.348v36.134H192.325z M426.492,260.804
			c-22.007-55.195-70.075-97.279-128.919-110.965v-8.55h32.099c5.523,0,10-4.478,10-10V75.155c0-5.522-4.477-10-10-10H182.325
			c-5.523,0-10,4.478-10,10v56.134c0,5.522,4.477,10,10,10h32.099v8.55c-58.845,13.686-106.912,55.77-128.919,110.965v-70.736
			C85.505,96.292,161.797,20,255.573,20h0.852c93.776,0,170.068,76.292,170.068,170.068V260.804z M457.753,321.802
			c0,8.822-7.178,16-16,16h-2.531c0.153-3.067,0.232-6.154,0.232-9.259c0-7.742-0.484-15.372-1.42-22.864h3.719
			c8.822,0,16,7.178,16,16V321.802z"/>
	</g>
</g>
<g>
	<g>
		<path d="M261.901,244.38c-3.501-2.558-8.251-2.569-11.764-0.028c-2.339,1.692-57.266,42.051-57.266,95.03
			c0,34.81,28.319,63.129,63.128,63.129s63.129-28.32,63.13-63.129C319.129,286.818,264.237,246.088,261.901,244.38z
			 M255.997,382.511c-23.781,0-43.128-19.348-43.128-43.129c0-33.626,30.077-62.954,43.104-74.078
			c13.029,11.202,43.154,40.714,43.153,74.078C299.127,363.163,279.78,382.511,255.997,382.511z"/>
	</g>
</g>
<g>
</g>
<g>
</g>
<g>
</g>
<g>
</g>
<g>
</g>
<g>
</g>
<g>
</g>
<g>
</g>
<g>
</g>
<g>
</g>
<g>
</g>
<g>
</g>
<g>
</g>
<g>
</g>
<g>
</g>
</svg>
