<?xml version="1.0" encoding="iso-8859-1"?>
<!-- Generator: Adobe Illustrator 19.0.0, SVG Export Plug-In . SVG Version: 6.00 Build 0)  -->
<svg version="1.1" id="Capa_1" xmlns="http://www.w3.org/2000/svg" xmlns:xlink="http://www.w3.org/1999/xlink" x="0px" y="0px"
	 viewBox="0 0 512 512" style="enable-background:new 0 0 512 512;" xml:space="preserve">
<g>
	<g>
		<path d="M302.231,457.75c-0.12-0.63-0.32-1.26-0.57-1.87c-0.25-0.6-0.55-1.18-0.91-1.72c-0.37-0.55-0.79-1.059-1.25-1.52
			c-0.46-0.46-0.97-0.88-1.52-1.25c-0.54-0.36-1.12-0.67-1.72-0.92c-0.61-0.25-1.24-0.44-1.88-0.57c-1.29-0.26-2.61-0.26-3.9,0
			c-0.64,0.13-1.27,0.32-1.87,0.57c-0.61,0.25-1.19,0.56-1.73,0.92c-0.55,0.37-1.06,0.79-1.52,1.25c-0.46,0.46-0.88,0.97-1.24,1.52
			c-0.36,0.54-0.67,1.12-0.92,1.72c-0.25,0.61-0.44,1.24-0.57,1.87c-0.13,0.65-0.2,1.31-0.2,1.96s0.07,1.31,0.2,1.95
			c0.13,0.64,0.32,1.27,0.57,1.87c0.25,0.61,0.56,1.19,0.92,1.73c0.36,0.55,0.78,1.06,1.24,1.52c0.46,0.46,0.97,0.88,1.52,1.24
			c0.54,0.36,1.12,0.67,1.73,0.92c0.6,0.25,1.23,0.44,1.87,0.57s1.3,0.2,1.95,0.2c0.65,0,1.31-0.07,1.95-0.2
			c0.64-0.13,1.27-0.32,1.88-0.57c0.6-0.25,1.18-0.56,1.72-0.92c0.55-0.36,1.06-0.78,1.52-1.24c0.46-0.46,0.88-0.97,1.25-1.52
			c0.36-0.54,0.66-1.12,0.91-1.73c0.25-0.6,0.45-1.23,0.57-1.87c0.13-0.64,0.2-1.3,0.2-1.95
			C302.431,459.06,302.361,458.4,302.231,457.75z"/>
	</g>
</g>
<g>
	<g>
		<path d="M212.231,45.34c-0.12-0.64-0.32-1.27-0.57-1.87c-0.25-0.61-0.56-1.19-0.92-1.73c-0.36-0.55-0.78-1.06-1.24-1.52
			c-0.46-0.46-0.97-0.88-1.52-1.24c-0.54-0.361-1.12-0.67-1.72-0.92c-0.61-0.25-1.24-0.44-1.88-0.57c-1.29-0.26-2.61-0.26-3.9,0
			c-0.64,0.129-1.27,0.32-1.87,0.57c-0.61,0.25-1.19,0.56-1.73,0.92c-0.55,0.36-1.06,0.78-1.52,1.24c-0.46,0.46-0.88,0.97-1.24,1.52
			c-0.36,0.54-0.67,1.12-0.92,1.73c-0.25,0.6-0.45,1.23-0.57,1.87c-0.13,0.64-0.2,1.3-0.2,1.95c0,2.64,1.07,5.21,2.93,7.07
			c0.46,0.46,0.97,0.88,1.52,1.25c0.54,0.36,1.12,0.67,1.73,0.92c0.6,0.25,1.23,0.44,1.87,0.57c0.64,0.13,1.3,0.19,1.95,0.19
			c0.65,0,1.31-0.06,1.95-0.19s1.27-0.32,1.88-0.57c0.6-0.25,1.18-0.56,1.72-0.92c0.55-0.37,1.06-0.79,1.52-1.25
			c1.86-1.86,2.93-4.44,2.93-7.07C212.431,46.64,212.361,45.98,212.231,45.34z"/>
	</g>
</g>
<g>
	<g>
		<path d="M247.432,158.648c-53.68,0-97.352,43.672-97.352,97.352s43.672,97.352,97.352,97.352
			c53.679,0,97.351-43.672,97.351-97.352S301.112,158.648,247.432,158.648z M247.432,333.352c-42.652,0-77.352-34.7-77.352-77.352
			c0-42.652,34.7-77.352,77.352-77.352c42.651,0,77.351,34.7,77.351,77.352S290.083,333.352,247.432,333.352z"/>
	</g>
</g>
<g>
	<g>
		<path d="M276.212,247.73h-18.78v-28.824c0-5.523-4.477-10-10-10c-5.523,0-10,4.477-10,10v38.824c0,5.523,4.477,10,10,10h28.78
			c5.523,0,10-4.477,10-10C286.212,252.207,281.735,247.73,276.212,247.73z"/>
	</g>
</g>
<g>
	<g>
		<path d="M393.924,246h-7.497c-2.517-35.325-18.258-67.051-42.29-90.243L334.761,9.361C334.424,4.097,330.057,0,324.782,0H170.081
			c-5.275,0-9.643,4.097-9.98,9.361l-9.376,146.396c-26.279,25.36-42.648,60.925-42.648,100.243
			c0,39.799,16.772,75.753,43.617,101.17l8.403,145.407c0.306,5.29,4.685,9.423,9.983,9.423h154.701
			c5.299,0,9.678-4.133,9.983-9.423l8.403-145.407c24.577-23.27,40.709-55.372,43.259-91.17h7.497c5.523,0,10-4.477,10-10
			C403.924,250.477,399.447,246,393.924,246z M179.461,20h135.941l1.107,17.292h-77.077c-5.523,0-10,4.477-10,10s4.477,10,10,10
			h78.358l2.223,34.717c-22.756-10.086-47.527-15.362-72.582-15.362s-49.826,5.276-72.582,15.362L179.461,20z M173.382,114.923
			c22.735-11.972,48.223-18.277,74.05-18.277c25.827,0,51.314,6.305,74.049,18.277l1.541,24.055
			c-21.788-14.123-47.748-22.332-75.59-22.332c-27.842,0-53.802,8.209-75.59,22.332L173.382,114.923z M315.343,492H179.52
			l-1.288-22.292h77.199c5.523,0,10-4.477,10-10s-4.477-10-10-10h-78.355l-1.704-29.486c22.612,9.935,47.206,15.132,72.06,15.132
			c24.853,0,49.447-5.197,72.06-15.132L315.343,492z M320.809,397.43c-22.561,11.741-47.813,17.924-73.377,17.924
			s-50.816-6.183-73.377-17.924l-1.379-23.871c21.615,13.794,47.269,21.795,74.756,21.795c27.488,0,53.141-8.001,74.756-21.795
			L320.809,397.43z M247.432,375.354c-65.812,0-119.354-53.542-119.354-119.354s53.542-119.354,119.354-119.354
			S366.785,190.188,366.785,256S313.244,375.354,247.432,375.354z"/>
	</g>
</g>
<g>
</g>
<g>
</g>
<g>
</g>
<g>
</g>
<g>
</g>
<g>
</g>
<g>
</g>
<g>
</g>
<g>
</g>
<g>
</g>
<g>
</g>
<g>
</g>
<g>
</g>
<g>
</g>
<g>
</g>
</svg>
