<?xml version="1.0" encoding="iso-8859-1"?>
<!-- Generator: Adobe Illustrator 19.0.0, SVG Export Plug-In . SVG Version: 6.00 Build 0)  -->
<svg version="1.1" id="Capa_1" xmlns="http://www.w3.org/2000/svg" xmlns:xlink="http://www.w3.org/1999/xlink" x="0px" y="0px"
	 viewBox="0 0 512 512" style="enable-background:new 0 0 512 512;" xml:space="preserve">
<g>
	<g>
		<path d="M229.51,258.2c-0.13-0.63-0.32-1.26-0.57-1.87c-0.25-0.6-0.56-1.18-0.92-1.72c-0.36-0.55-0.78-1.06-1.24-1.52
			c-0.46-0.46-0.97-0.88-1.52-1.25c-0.54-0.36-1.12-0.67-1.73-0.92c-0.6-0.25-1.23-0.44-1.87-0.57c-1.29-0.26-2.62-0.26-3.91,0
			c-0.63,0.13-1.26,0.32-1.87,0.57c-0.6,0.25-1.18,0.56-1.72,0.92c-0.55,0.37-1.06,0.79-1.52,1.25s-0.88,0.97-1.25,1.52
			c-0.36,0.54-0.67,1.12-0.92,1.72c-0.25,0.61-0.44,1.24-0.57,1.87c-0.13,0.65-0.19,1.31-0.19,1.96s0.06,1.31,0.19,1.95
			c0.13,0.64,0.32,1.27,0.57,1.87c0.25,0.61,0.56,1.19,0.92,1.73c0.37,0.55,0.79,1.06,1.25,1.52c0.46,0.46,0.97,0.88,1.52,1.24
			c0.54,0.36,1.12,0.67,1.72,0.92c0.61,0.25,1.23,0.44,1.87,0.57c0.65,0.13,1.3,0.2,1.96,0.2c0.65,0,1.31-0.07,1.95-0.2
			c0.64-0.13,1.27-0.32,1.87-0.57c0.61-0.25,1.19-0.56,1.73-0.92c0.55-0.36,1.06-0.78,1.52-1.24c0.46-0.46,0.88-0.97,1.24-1.52
			c0.36-0.54,0.67-1.12,0.92-1.73c0.25-0.6,0.44-1.23,0.57-1.87s0.2-1.3,0.2-1.95C229.71,259.51,229.64,258.85,229.51,258.2z"/>
	</g>
</g>
<g>
	<g>
		<path d="M512,206.3c0-38.551-31.363-69.915-69.915-69.915c-0.145,0-0.29,0.005-0.434,0.006
			c-18.865-36.635-57.075-61.749-101.04-61.749c-16.823,0-33.021,3.595-48.143,10.685l-0.001,0.001
			c-14.479,6.786-27.292,16.507-37.693,28.512L195.55,11.263c-1.786-3.094-5.087-5-8.66-5s-6.874,1.906-8.66,5l-69.847,120.979
			c-1.787,3.094-1.787,6.906,0,10c1.786,3.094,5.087,5,8.66,5h2.024L56.763,255.158c-1.787,3.094-1.787,6.906,0,10
			c1.786,3.094,5.087,5,8.66,5h2.771L1.34,385.952c-1.787,3.094-1.787,6.906,0,10c1.786,3.094,5.087,5,8.66,5h134.074v84.785H69.259
			c-5.523,0-10,4.477-10,10s4.477,10,10,10H442.74c5.523,0,10-4.477,10-10s-4.477-10-10-10h-40.262V363.263H436.6
			c20.134,0,39.069-7.84,53.324-22.082C504.16,326.932,512,307.997,512,287.863c0-15.008-4.381-29.384-12.523-41.632
			C507.598,234.569,512,220.663,512,206.3z M186.89,36.263l52.527,90.979H134.364L186.89,36.263z M91.288,270.158h87.602
			c5.523,0,10-4.477,10-10c0-5.523-4.477-10-10-10H82.743l59.418-102.916h89.458l59.419,102.916h-31.039c-5.523,0-10,4.477-10,10
			c0,5.523,4.477,10,10,10h22.494l39.164,67.833H52.124L91.288,270.158z M27.321,380.951l13.256-22.96h292.626l0.156,0.271
			c0.003,0.005,0.006,0.01,0.01,0.015l13.092,22.674H27.321z M209.707,485.737h-45.633v-84.785h45.633V485.737z M325.083,485.737
			h-95.376v-84.785h95.376V485.737z M382.479,485.737h-37.396v-84.785h18.698c0.67,0,1.33-0.067,1.973-0.196
			c2.784-0.56,5.236-2.29,6.688-4.804c1.786-3.094,1.786-6.906,0-10l-13.1-22.689h23.137V485.737z M348.811,343.262h-1.016
			l-0.156-0.271c-0.004-0.007-0.008-0.013-0.012-0.02l-42.039-72.814h2.771c3.572,0,6.874-1.906,8.66-5s1.786-6.906,0-10
			l-62.306-107.916h2.024c3.572,0,6.874-1.906,8.66-5c1.753-3.038,1.781-6.765,0.092-9.827c8.302-11.165,18.952-20.329,31.22-26.854
			c30.332,16.149,49.681,48.086,49.681,82.653c0,10.613-1.766,21.039-5.248,30.986c-1.056,3.015-0.607,6.352,1.206,8.981
			c1.813,2.629,4.773,4.234,7.966,4.319c30.223,0.805,53.897,25.123,53.897,55.363c0,14.798-5.765,28.712-16.232,39.179
			C377.519,337.501,363.609,343.262,348.811,343.262z M475.782,327.039c-10.472,10.462-24.387,16.224-39.182,16.224h-36.649
			c0.733-0.678,1.459-1.368,2.169-2.079c14.244-14.245,22.089-33.181,22.089-53.321c0-19.785-7.608-38.478-21.42-52.635
			c-10.793-11.061-24.441-18.408-39.32-21.329c1.94-8.389,2.92-16.988,2.92-25.687c0-36.287-17.57-70.186-46.135-91.362
			c6.623-1.468,13.424-2.208,20.355-2.208c51.595,0,93.569,41.976,93.569,93.57c0,10.613-1.766,21.039-5.248,30.986
			c-1.056,3.015-0.607,6.352,1.206,8.981c1.813,2.629,4.773,4.234,7.966,4.319c16.182,0.431,30.483,7.604,40.282,18.816
			c0.477,0.773,1.069,1.493,1.772,2.136c7.437,9.43,11.844,21.369,11.844,34.413C492,302.658,486.238,316.573,475.782,327.039z
			 M485.674,230.625c-9.899-8.507-21.708-14.232-34.414-16.726c1.94-8.389,2.92-16.988,2.92-25.687l-4.367-31.228
			C473.68,160.709,492,181.405,492,206.3C492,214.888,489.794,223.246,485.674,230.625z"/>
	</g>
</g>
<g>
</g>
<g>
</g>
<g>
</g>
<g>
</g>
<g>
</g>
<g>
</g>
<g>
</g>
<g>
</g>
<g>
</g>
<g>
</g>
<g>
</g>
<g>
</g>
<g>
</g>
<g>
</g>
<g>
</g>
</svg>
