<?xml version="1.0" encoding="iso-8859-1"?>
<!-- Generator: Adobe Illustrator 19.0.0, SVG Export Plug-In . SVG Version: 6.00 Build 0)  -->
<svg version="1.1" id="Capa_1" xmlns="http://www.w3.org/2000/svg" xmlns:xlink="http://www.w3.org/1999/xlink" x="0px" y="0px"
	 viewBox="0 0 512 512" style="enable-background:new 0 0 512 512;" xml:space="preserve">
<g>
	<g>
		<path d="M336.09,265.03c-0.12-0.64-0.32-1.27-0.57-1.87c-0.25-0.61-0.55-1.19-0.91-1.73c-0.37-0.55-0.79-1.06-1.25-1.52
			c-0.46-0.46-0.97-0.88-1.52-1.24c-0.54-0.36-1.12-0.67-1.72-0.92c-0.61-0.25-1.24-0.45-1.87-0.57c-1.29-0.26-2.62-0.26-3.91,0
			c-0.64,0.12-1.27,0.32-1.87,0.57c-0.61,0.25-1.19,0.56-1.73,0.92c-0.55,0.36-1.06,0.78-1.52,1.24c-0.46,0.46-0.88,0.97-1.24,1.52
			c-0.36,0.54-0.67,1.12-0.92,1.73c-0.25,0.6-0.44,1.23-0.57,1.87s-0.2,1.3-0.2,1.95s0.07,1.31,0.2,1.95s0.32,1.27,0.57,1.87
			c0.25,0.61,0.56,1.19,0.92,1.73c0.36,0.55,0.78,1.06,1.24,1.52c0.46,0.46,0.97,0.88,1.52,1.24c0.54,0.36,1.12,0.67,1.73,0.92
			c0.6,0.25,1.23,0.45,1.87,0.58c0.64,0.12,1.3,0.19,1.95,0.19c0.65,0,1.309-0.07,1.96-0.19c0.63-0.13,1.26-0.33,1.87-0.58
			c0.6-0.25,1.18-0.56,1.72-0.92c0.55-0.36,1.06-0.78,1.52-1.24c0.46-0.46,0.88-0.97,1.25-1.52c0.36-0.54,0.66-1.12,0.91-1.73
			c0.25-0.6,0.45-1.23,0.57-1.87c0.13-0.64,0.2-1.3,0.2-1.95S336.22,265.67,336.09,265.03z"/>
	</g>
</g>
<g>
	<g>
		<g>
			<path d="M482.754,399.792L411.849,276.98h3.85c3.573,0,6.874-1.906,8.66-5c1.787-3.094,1.787-6.906,0-10l-66.113-114.51h3.062
				c3.573,0,6.874-1.906,8.66-5c1.787-3.094,1.787-6.906,0-10L296.373,5c-1.786-3.094-5.087-5-8.66-5s-6.874,1.906-8.66,5
				l-73.594,127.47c-1.787,3.094-1.787,6.906,0,10c1.786,3.094,5.087,5,8.66,5h3.062l-66.113,114.51c-1.787,3.094-1.787,6.906,0,10
				c1.786,3.094,5.087,5,8.66,5h3.85L92.672,399.792c-1.787,3.094-1.787,6.906,0,10c1.786,3.094,5.087,5,8.66,5h141.804V502
				c0,5.523,4.477,10,10,10h69.155c5.523,0,10-4.477,10-10v-87.208h141.804c3.573,0,6.874-1.906,8.66-5
				C484.541,406.698,484.541,402.886,482.754,399.792z M287.713,30l56.274,97.47H231.439L287.713,30z M186.671,276.98h95.565
				c5.523,0,10-4.477,10-10s-4.477-10-10-10H177.049l63.226-109.51h94.876l63.225,109.508c0.03,0,0.061,0,0.001,0.002h-29.475
				c-5.523,0-10,4.477-10,10s4.477,10,10,10h19.853l41.885,72.546H144.787L186.671,276.98z M312.29,492h-49.155v-77.208h49.155V492z
				 M118.653,394.792l14.587-25.266h308.947l14.587,25.266H118.653z"/>
			<path d="M398.377,256.98l-0.001-0.002C398.347,256.978,398.319,256.979,398.377,256.98z"/>
		</g>
	</g>
</g>
<g>
	<g>
		<path d="M104.906,0c-42.458,0-77,34.542-77,77s34.542,77,77,77s77-34.542,77-77S147.364,0,104.906,0z M104.906,134
			c-31.43,0-57-25.57-57-57s25.57-57,57-57c31.429,0,57,25.57,57,57S136.336,134,104.906,134z"/>
	</g>
</g>
<g>
</g>
<g>
</g>
<g>
</g>
<g>
</g>
<g>
</g>
<g>
</g>
<g>
</g>
<g>
</g>
<g>
</g>
<g>
</g>
<g>
</g>
<g>
</g>
<g>
</g>
<g>
</g>
<g>
</g>
</svg>
