<?xml version="1.0" encoding="iso-8859-1"?>
<!-- Generator: Adobe Illustrator 19.0.0, SVG Export Plug-In . SVG Version: 6.00 Build 0)  -->
<svg version="1.1" id="Capa_1" xmlns="http://www.w3.org/2000/svg" xmlns:xlink="http://www.w3.org/1999/xlink" x="0px" y="0px"
	 viewBox="0 0 512 512" style="enable-background:new 0 0 512 512;" xml:space="preserve">
<g>
	<g>
		<path d="M347.62,296.3c-0.47-0.46-0.98-0.88-1.52-1.24c-0.55-0.361-1.13-0.671-1.73-0.921c-0.6-0.25-1.23-0.44-1.87-0.57
			c-1.29-0.26-2.62-0.26-3.91,0c-0.64,0.13-1.27,0.32-1.87,0.57c-0.6,0.25-1.18,0.561-1.73,0.921c-0.54,0.36-1.05,0.78-1.52,1.24
			c-0.46,0.46-0.87,0.97-1.24,1.52c-0.36,0.54-0.67,1.12-0.92,1.73c-0.25,0.6-0.44,1.23-0.57,1.87s-0.19,1.3-0.19,1.95
			c0,0.65,0.06,1.31,0.19,1.95s0.32,1.27,0.57,1.88c0.25,0.6,0.56,1.18,0.92,1.72c0.37,0.55,0.78,1.06,1.24,1.52
			c0.47,0.46,0.98,0.88,1.52,1.25c0.55,0.36,1.13,0.67,1.73,0.92c0.6,0.25,1.23,0.44,1.87,0.57c0.65,0.13,1.3,0.19,1.96,0.19
			c0.65,0,1.3-0.06,1.95-0.19c0.64-0.13,1.27-0.32,1.87-0.57c0.6-0.25,1.18-0.56,1.73-0.92c0.54-0.37,1.05-0.79,1.52-1.25
			c0.46-0.46,0.88-0.97,1.24-1.52c0.36-0.54,0.67-1.12,0.92-1.72c0.25-0.61,0.44-1.24,0.57-1.88s0.2-1.3,0.2-1.95
			C350.55,300.74,349.48,298.16,347.62,296.3z"/>
	</g>
</g>
<g>
	<g>
		<path d="M181.26,301.42c-0.13-0.64-0.32-1.27-0.57-1.87c-0.25-0.61-0.56-1.19-0.92-1.73c-0.37-0.55-0.78-1.06-1.25-1.52
			c-0.46-0.46-0.97-0.88-1.52-1.24c-0.54-0.361-1.12-0.671-1.72-0.921s-1.23-0.44-1.87-0.57c-1.29-0.26-2.62-0.26-3.91,0
			c-0.64,0.13-1.27,0.32-1.87,0.57c-0.6,0.25-1.18,0.561-1.73,0.921c-0.54,0.36-1.06,0.78-1.52,1.24c-0.46,0.46-0.88,0.97-1.24,1.52
			c-0.36,0.54-0.67,1.12-0.92,1.73c-0.25,0.6-0.44,1.23-0.57,1.87s-0.2,1.3-0.2,1.95c0,2.63,1.07,5.21,2.93,7.07
			c0.46,0.46,0.98,0.88,1.52,1.25c0.55,0.36,1.13,0.67,1.73,0.92s1.23,0.44,1.87,0.57c0.65,0.13,1.3,0.19,1.96,0.19
			c0.65,0,1.3-0.06,1.95-0.189c0.64-0.13,1.27-0.32,1.87-0.57c0.6-0.25,1.18-0.56,1.72-0.92c0.55-0.37,1.06-0.79,1.52-1.25
			c0.47-0.46,0.88-0.97,1.25-1.52c0.36-0.54,0.67-1.12,0.92-1.72c0.25-0.61,0.44-1.24,0.57-1.87c0.13-0.651,0.19-1.311,0.19-1.961
			S181.39,302.06,181.26,301.42z"/>
	</g>
</g>
<g>
	<g>
		<path d="M430.739,25.013c-3.406-0.198-6.703,1.345-8.711,4.118c-2.007,2.773-2.456,6.381-1.19,9.562
			c2.038,5.121,3.072,10.517,3.072,16.037c0,23.935-19.472,43.408-43.407,43.408c-0.795,0-1.654-0.03-2.701-0.094
			c-3.417-0.206-6.704,1.346-8.711,4.119c-2.007,2.773-2.456,6.38-1.19,9.561c9.666,24.283,32.792,39.974,58.917,39.974
			c34.963,0,63.408-28.445,63.407-63.408C490.225,54.849,464.096,27.055,430.739,25.013z M426.818,131.698
			c-12.924,0-24.777-5.611-32.855-14.998c28.519-6.189,49.947-31.624,49.947-61.97c0-2.174-0.11-4.335-0.329-6.48
			c15.696,6.585,26.644,22.13,26.644,40.04C470.225,112.225,450.753,131.698,426.818,131.698z"/>
	</g>
</g>
<g>
	<g>
		<path d="M502,402.347c-5.523,0-10,4.477-10,10v35.202L266.614,47.576l14.17-14.17c3.905-3.905,3.906-10.237,0.001-14.142
			c-3.905-3.905-10.237-3.905-14.142,0L256,29.906l-10.643-10.642c-3.905-3.905-10.237-3.905-14.142,0
			c-3.905,3.905-3.905,10.237,0.001,14.142l14.17,14.17L20,447.549v-35.202c0-5.523-4.477-10-10-10s-10,4.477-10,10
			c0,0,0,54.988,0,73.317c0,10,9.796,10,10,10h492c0.204,0,10,0,10-10c0-18.329,0-73.317,0-73.317
			C512,406.824,507.523,402.347,502,402.347z M256,69.479l45.814,81.303h-91.629L256,69.479z M198.915,170.782h114.169
			l15.379,27.293H183.536L198.915,170.782z M136.529,475.665L256,295.224l19.878,30.022l-99.593,150.419H136.529z M200.271,475.665
			l87.6-132.305l87.6,132.305H200.271z M456.636,475.665c-0.138-0.286-0.29-0.569-0.458-0.847l-88.081-145.29
			c-2.864-4.724-9.014-6.231-13.735-3.367c-4.723,2.863-6.23,9.013-3.367,13.735l82.308,135.769h-33.845L264.338,271.59
			c-1.852-2.797-4.983-4.479-8.338-4.479c-3.355,0-6.486,1.682-8.338,4.479l-135.12,204.075H78.698l80.325-132.498
			c2.863-4.723,1.355-10.872-3.367-13.735c-4.721-2.862-10.871-1.356-13.735,3.367L55.823,474.818
			c-0.168,0.278-0.32,0.56-0.458,0.847H27.113l145.152-257.589h167.468l145.153,257.589H456.636z"/>
	</g>
</g>
<g>
</g>
<g>
</g>
<g>
</g>
<g>
</g>
<g>
</g>
<g>
</g>
<g>
</g>
<g>
</g>
<g>
</g>
<g>
</g>
<g>
</g>
<g>
</g>
<g>
</g>
<g>
</g>
<g>
</g>
</svg>
