<?xml version="1.0" encoding="iso-8859-1"?>
<!-- Generator: Adobe Illustrator 19.0.0, SVG Export Plug-In . SVG Version: 6.00 Build 0)  -->
<svg version="1.1" id="Capa_1" xmlns="http://www.w3.org/2000/svg" xmlns:xlink="http://www.w3.org/1999/xlink" x="0px" y="0px"
	 viewBox="0 0 512 512" style="enable-background:new 0 0 512 512;" xml:space="preserve">
<g>
	<g>
		<path d="M405.038,114.811c-0.13-0.64-0.32-1.269-0.57-1.87c-0.25-0.599-0.56-1.189-0.92-1.729c-0.36-0.55-0.78-1.061-1.24-1.521
			c-2.33-2.319-5.779-3.379-9.029-2.729c-0.641,0.13-1.261,0.32-1.87,0.57c-0.601,0.25-1.181,0.56-1.721,0.92
			c-0.55,0.359-1.06,0.779-1.52,1.239c-0.47,0.46-0.88,0.971-1.25,1.521c-0.36,0.54-0.67,1.129-0.92,1.729
			c-0.25,0.6-0.44,1.23-0.57,1.87c-0.129,0.64-0.189,1.3-0.189,1.95c0,0.66,0.059,1.31,0.189,1.96c0.13,0.64,0.32,1.27,0.57,1.87
			c0.25,0.6,0.56,1.18,0.92,1.72c0.37,0.55,0.78,1.061,1.25,1.521c0.46,0.47,0.97,0.88,1.52,1.25c0.54,0.359,1.12,0.67,1.721,0.92
			c0.609,0.25,1.229,0.439,1.87,0.569c0.649,0.13,1.3,0.19,1.96,0.19c2.629,0,5.21-1.059,7.069-2.929
			c0.46-0.46,0.88-0.971,1.24-1.521c0.36-0.54,0.67-1.12,0.92-1.72c0.25-0.61,0.44-1.23,0.57-1.87c0.13-0.65,0.2-1.3,0.2-1.96
			C405.238,116.111,405.168,115.452,405.038,114.811z"/>
	</g>
</g>
<g>
	<g>
		<path d="M463.692,48.307C429.669,14.286,382.824-2.74,331.789,0.36c-50.579,3.075-99.271,25.606-137.107,63.443
			c-2.081,2.081-4.127,4.213-6.133,6.38c-12.486-10.015-28.322-16.017-45.537-16.017c-40.196,0-72.899,32.702-72.899,72.9
			c0,36.234,26.575,66.376,61.258,71.966c-1.769,25.34,1.523,50.485,9.661,73.296c5.67,15.895,1.776,33.721-9.918,45.416
			L2.929,445.927c-3.905,3.905-3.905,10.237,0,14.143l49.001,49.001c1.953,1.952,4.512,2.929,7.071,2.929
			c2.56,0,5.118-0.977,7.071-2.929l128.185-128.184c11.694-11.695,29.521-15.588,45.416-9.917
			c69.345,24.735,151.196,3.679,208.524-53.652c37.836-37.836,60.368-86.528,63.443-137.108
			C514.743,129.174,497.714,82.331,463.692,48.307z M327.233,273.752l-40.402,40.404c-19.633-2.125-38.044-9.265-53.261-21.582
			l56.242-56.242L327.233,273.752z M303.955,222.187l53.006-53.006l37.42,37.421l-53.006,53.006L303.955,222.187z M341.376,287.894
			l14.303,14.303c-13.14,5.991-26.734,9.879-40.208,11.602L341.376,287.894z M355.518,273.752l53.006-53.006l17.57,17.57
			c-6.71,11.473-15.037,22.275-24.83,32.068c-8.488,8.487-17.655,15.782-27.245,21.867L355.518,273.752z M422.667,206.603
			l21.975-21.974c-1.503,11.832-4.612,23.505-9.196,34.753L422.667,206.603z M443.026,157.958l-34.501,34.501l-37.42-37.421
			l4.221-4.221c3.905-3.905,3.905-10.237,0-14.143c-3.906-3.904-10.236-3.904-14.143,0l-4.221,4.221l-37.42-37.42l34.501-34.501
			c0.621-0.621,1.142-1.303,1.566-2.027c23.798,2.449,45.008,12.151,61.151,28.295c16.144,16.144,25.851,37.35,28.298,61.15
			C444.331,156.814,443.648,157.336,443.026,157.958z M305.397,89.333l-12.778-12.778c11.247-4.584,22.92-7.694,34.753-9.196
			L305.397,89.333z M305.397,117.618l37.42,37.42l-53.006,53.006l-37.42-37.42L305.397,117.618z M238.248,156.481l-18.501-18.501
			c6.085-9.589,13.38-18.756,21.868-27.244c9.793-9.793,20.596-18.12,32.068-24.83l17.57,17.57L238.248,156.481z M224.106,170.625
			l-25.906,25.906c1.722-13.475,5.611-27.07,11.602-40.21L224.106,170.625z M238.248,184.767l37.42,37.421l-56.242,56.242
			c-12.316-15.216-19.456-33.626-21.582-53.26L238.248,184.767z M143.012,179.965c-29.168,0-52.899-23.73-52.899-52.899
			c0-29.169,23.73-52.9,52.899-52.9c29.168,0,52.899,23.73,52.899,52.9C195.91,156.234,172.18,179.965,143.012,179.965z
			 M59.001,487.856l-34.857-34.857l54.771-54.771l34.857,34.857L59.001,487.856z M127.914,418.944l-34.858-34.858l22.148-22.148
			l34.858,34.858L127.914,418.944z M434.054,303.174c-51.895,51.896-125.555,71.113-187.662,48.957
			c-23.135-8.251-49.149-2.517-66.278,14.612l-15.908,15.909l-34.858-34.858l15.909-15.908
			c17.129-17.129,22.864-43.145,14.613-66.278c-7.316-20.505-10.21-43.206-8.481-66.127c9.913-1.139,19.227-4.272,27.529-8.991
			c-6.146,40.639,4.575,81.047,33.059,109.532c23.323,23.322,54.63,34.736,87.521,34.736c40.18,0,82.72-17.044,115.908-50.232
			c28.979-28.98,46.659-65.951,49.782-104.103c3.174-38.767-9.003-74.041-34.287-99.325c-25.283-25.283-60.56-37.467-99.325-34.287
			c-38.152,3.123-75.123,20.802-104.103,49.782c-4.753,4.753-9.175,9.699-13.263,14.801c-2.146-9.756-6.248-18.786-11.878-26.654
			c2.115-2.313,4.283-4.585,6.493-6.794C279.462,7.305,387.453,0.354,449.549,62.45S504.695,232.535,434.054,303.174z"/>
	</g>
</g>
<g>
</g>
<g>
</g>
<g>
</g>
<g>
</g>
<g>
</g>
<g>
</g>
<g>
</g>
<g>
</g>
<g>
</g>
<g>
</g>
<g>
</g>
<g>
</g>
<g>
</g>
<g>
</g>
<g>
</g>
</svg>
