<?xml version="1.0" encoding="iso-8859-1"?>
<!-- Generator: Adobe Illustrator 19.0.0, SVG Export Plug-In . SVG Version: 6.00 Build 0)  -->
<svg version="1.1" id="Capa_1" xmlns="http://www.w3.org/2000/svg" xmlns:xlink="http://www.w3.org/1999/xlink" x="0px" y="0px"
	 viewBox="0 0 512 512" style="enable-background:new 0 0 512 512;" xml:space="preserve">
<g>
	<g>
		<path d="M243.242,248.35c-0.13-0.64-0.32-1.27-0.57-1.87c-0.25-0.6-0.56-1.19-0.92-1.73c-0.36-0.54-0.78-1.06-1.24-1.52
			c-2.32-2.32-5.77-3.38-9.02-2.73c-0.64,0.13-1.27,0.32-1.87,0.57c-0.61,0.25-1.19,0.56-1.73,0.92c-0.55,0.36-1.06,0.78-1.52,1.24
			c-0.46,0.46-0.88,0.98-1.24,1.52c-0.36,0.54-0.67,1.13-0.92,1.73c-0.25,0.6-0.45,1.23-0.57,1.87c-0.13,0.65-0.2,1.3-0.2,1.95
			c0,0.66,0.07,1.31,0.2,1.96c0.12,0.64,0.32,1.27,0.57,1.87c0.25,0.6,0.56,1.18,0.92,1.73c0.36,0.54,0.78,1.06,1.24,1.52
			c0.46,0.46,0.97,0.87,1.52,1.24c0.54,0.36,1.12,0.67,1.73,0.92c0.6,0.25,1.23,0.44,1.87,0.57c0.64,0.13,1.3,0.19,1.95,0.19
			c0.65,0,1.31-0.06,1.95-0.19c0.64-0.13,1.27-0.32,1.87-0.57c0.61-0.25,1.19-0.56,1.73-0.92c0.55-0.37,1.06-0.78,1.52-1.24
			c0.46-0.46,0.88-0.98,1.24-1.52c0.36-0.55,0.67-1.13,0.92-1.73s0.44-1.23,0.57-1.87c0.13-0.65,0.2-1.3,0.2-1.96
			C243.441,249.65,243.372,249,243.242,248.35z"/>
	</g>
</g>
<g>
	<g>
		<path d="M295.677,103.236c-2.655-2.654-6.57-3.596-10.142-2.446c-16.725,5.395-34.824,1.035-47.237-11.378
			c-12.414-12.414-16.774-30.514-11.378-47.237c1.153-3.572,0.208-7.489-2.446-10.142c-2.654-2.653-6.57-3.596-10.142-2.445
			c-9.946,3.209-19.134,8.835-26.569,16.269c-25.94,25.94-25.94,68.149,0,94.089c12.97,12.97,30.007,19.455,47.044,19.455
			c17.038,0,34.075-6.484,47.045-19.454c7.434-7.435,13.06-16.622,16.27-26.569C299.275,109.806,298.33,105.89,295.677,103.236z
			 M267.71,125.803c-8.788,8.789-20.473,13.629-32.902,13.629s-24.114-4.84-32.902-13.629c-8.789-8.788-13.629-20.473-13.629-32.902
			s4.84-24.114,13.628-32.902c0.885-0.884,1.797-1.728,2.735-2.531c0.222,17.042,7.011,33.58,19.516,46.085
			s29.044,19.294,46.085,19.516C269.439,124.007,268.595,124.919,267.71,125.803z"/>
	</g>
</g>
<g>
	<g>
		<path d="M478.713,36.476c-1.075-3.31-3.794-5.822-7.178-6.634l-22.444-5.384L437.035,4.776C435.218,1.809,431.988,0,428.508,0
			c-3.48,0-6.71,1.809-8.527,4.776l-12.056,19.682l-22.444,5.384c-3.384,0.812-6.103,3.324-7.178,6.634s-0.353,6.94,1.908,9.586
			l14.992,17.548l-1.814,23.009c-0.273,3.468,1.276,6.831,4.091,8.876c2.816,2.045,6.492,2.48,9.706,1.148l21.322-8.836
			l21.322,8.836c1.232,0.511,2.533,0.762,3.827,0.762c2.08,0,4.144-0.649,5.878-1.91c2.816-2.045,4.364-5.407,4.091-8.876
			l-1.814-23.009l14.993-17.548C479.066,43.416,479.788,39.785,478.713,36.476z M443.914,53.77
			c-1.723,2.017-2.575,4.637-2.366,7.282l0.857,10.866l-10.069-4.173c-1.225-0.508-2.526-0.762-3.828-0.762s-2.603,0.254-3.83,0.762
			l-10.069,4.173l0.857-10.866c0.209-2.645-0.642-5.265-2.366-7.282l-7.08-8.287l10.6-2.543c2.58-0.619,4.808-2.237,6.194-4.5
			l5.693-9.294l5.693,9.294c1.385,2.262,3.614,3.881,6.194,4.5l10.6,2.543L443.914,53.77z"/>
	</g>
</g>
<g>
	<g>
		<path d="M509.854,194.358c-6.404-31.642-27.717-55.656-51.513-59.684l-1.5-7.411c-0.526-2.6-2.064-4.883-4.274-6.35
			c-2.209-1.465-4.913-1.996-7.511-1.468l-67.328,13.627c-5.413,1.096-8.913,6.372-7.817,11.785l1.931,9.539l-204.774,41.447
			c-5.226,1.058-8.668,6.012-7.913,11.225l-61.241,12.395c-5.413,1.096-8.913,6.372-7.817,11.785l1.248,6.165l-23.504,4.757
			l-3.119-15.409c-0.526-2.599-2.064-4.883-4.273-6.35c-2.211-1.466-4.914-1.994-7.512-1.468L8.27,227.984
			c-5.413,1.096-8.913,6.372-7.817,11.785L22.888,350.61c0.526,2.6,2.063,4.883,4.273,6.35c1.651,1.095,3.576,1.667,5.528,1.667
			c0.662,0,1.326-0.065,1.984-0.199l44.667-9.041c5.413-1.096,8.913-6.372,7.817-11.785l-3.119-15.409l23.504-4.757l1.248,6.165
			c0.96,4.744,5.131,8.018,9.79,8.018c0.658,0,1.325-0.065,1.995-0.201l61.242-12.395c0.621,2.369,2.092,4.435,4.143,5.797
			c1.651,1.095,3.576,1.667,5.528,1.667c0.662,0,1.326-0.065,1.984-0.199l23.972-4.852c2.596,9.184,8.515,16.987,16.372,22.021
			L112.237,487.55c-3.562,4.221-3.027,10.53,1.194,14.092c1.877,1.583,4.166,2.357,6.444,2.357c2.844,0,5.67-1.207,7.648-3.551
			l117.039-138.715V502c0,5.523,4.477,10,10,10c5.523,0,10.001-4.477,10.001-10V361.733l117.039,138.715
			c1.978,2.344,4.803,3.551,7.647,3.551c2.277,0,4.567-0.773,6.443-2.357c4.222-3.561,4.756-9.871,1.194-14.092L275.311,343.458
			c10.708-6.861,17.819-18.864,17.819-32.498c0-1.619-0.102-3.216-0.297-4.783l105.41-21.335l1.931,9.54
			c0.526,2.6,2.064,4.883,4.274,6.35c1.65,1.095,3.575,1.667,5.527,1.667c0.661,0,1.326-0.065,1.983-0.199l67.328-13.627
			c5.413-1.096,8.913-6.372,7.817-11.785l-1.499-7.405C505.976,256.424,516.258,226.002,509.854,194.358z M40.503,336.844
			l-18.467-91.239l25.065-5.073l18.467,91.239L40.503,336.844z M80.068,302.592l-8.262-40.818l23.505-4.757l8.261,40.817
			L80.068,302.592z M126.406,309.833l-1.246-6.159c0-0.002-0.001-0.004-0.001-0.006l-12.229-60.42
			c-0.001-0.003-0.001-0.006-0.002-0.009l-1.246-6.156l51.423-10.408l14.725,72.75L126.406,309.833z M254.562,329.527
			c-10.238,0-18.567-8.329-18.567-18.567c0-0.305,0.008-0.609,0.023-0.911c0.001-0.024,0.002-0.048,0.003-0.071
			c0.512-9.784,8.632-17.586,18.541-17.586c10.239,0,18.568,8.33,18.568,18.568C273.13,321.198,264.801,329.527,254.562,329.527z
			 M285.036,287.349c-7.062-9.094-18.096-14.957-30.474-14.957c-17.846,0-32.897,12.184-37.278,28.671l-17.981,3.639l-18.467-91.239
			L375.808,174l7.25,35.818l-115.627,23.403c-5.413,1.096-8.913,6.372-7.817,11.785c0.96,4.744,5.13,8.018,9.79,8.018
			c0.658,0,1.325-0.065,1.994-0.201l115.627-23.403l7.25,35.818L285.036,287.349z M417.793,280.612l-26.296-129.92l47.725-9.66
			l26.296,129.92L417.793,280.612z M481.097,247.098l-18.246-90.147c12.533,6.25,23.495,22.072,27.4,41.374c0,0,0,0,0.001,0
			C494.158,217.627,490.213,236.465,481.097,247.098z"/>
	</g>
</g>
<g>
	<g>
		<path d="M396.475,329.527h-9.306v-9.305c0-5.523-4.478-10-10-10c-5.522,0-10,4.477-10,10v9.305h-9.305c-5.522,0-10,4.477-10,10
			s4.478,10,10,10h9.305v9.305c0,5.523,4.478,10,10,10c5.522,0,10-4.477,10-10v-9.305h9.306c5.522,0,10-4.477,10-10
			S401.998,329.527,396.475,329.527z"/>
	</g>
</g>
<g>
</g>
<g>
</g>
<g>
</g>
<g>
</g>
<g>
</g>
<g>
</g>
<g>
</g>
<g>
</g>
<g>
</g>
<g>
</g>
<g>
</g>
<g>
</g>
<g>
</g>
<g>
</g>
<g>
</g>
</svg>
