<?xml version="1.0" encoding="iso-8859-1"?>
<!-- Generator: Adobe Illustrator 19.0.0, SVG Export Plug-In . SVG Version: 6.00 Build 0)  -->
<svg version="1.1" id="Capa_1" xmlns="http://www.w3.org/2000/svg" xmlns:xlink="http://www.w3.org/1999/xlink" x="0px" y="0px"
	 viewBox="0 0 512 512" style="enable-background:new 0 0 512 512;" xml:space="preserve">
<g>
	<g>
		<path d="M430.541,380.865c-18.747,0-34,15.253-34,34c0,18.748,15.253,34,34,34c18.748,0,34-15.252,34-34
			C464.541,396.118,449.289,380.865,430.541,380.865z M430.541,428.865c-7.72,0-14-6.28-14-14c0-7.72,6.28-14,14-14
			c7.72,0,14,6.281,14,14C444.541,422.585,438.261,428.865,430.541,428.865z"/>
	</g>
</g>
<g>
	<g>
		<path d="M81.459,380.865c-18.748,0-34,15.253-34,34c0,18.748,15.252,34,34,34c18.747,0,34-15.252,34-34
			C115.459,396.118,100.206,380.865,81.459,380.865z M81.459,428.865c-7.72,0-14-6.28-14-14c0-7.72,6.28-14,14-14
			c7.72,0,14,6.281,14,14C95.459,422.585,89.179,428.865,81.459,428.865z"/>
	</g>
</g>
<g>
	<g>
		<path d="M374.31,457.41c-0.13-0.64-0.33-1.27-0.58-1.87c-0.25-0.6-0.56-1.18-0.92-1.73c-0.36-0.54-0.78-1.05-1.24-1.52
			c-0.46-0.46-0.97-0.87-1.52-1.24c-0.54-0.36-1.12-0.67-1.73-0.92c-0.6-0.25-1.23-0.44-1.87-0.57c-1.29-0.26-2.61-0.26-3.9,0
			c-0.64,0.13-1.27,0.32-1.87,0.57c-0.61,0.25-1.19,0.56-1.73,0.92c-0.55,0.37-1.06,0.78-1.52,1.24c-0.46,0.47-0.88,0.98-1.24,1.52
			c-0.36,0.55-0.67,1.13-0.92,1.73c-0.25,0.6-0.44,1.23-0.57,1.87c-0.13,0.65-0.2,1.3-0.2,1.95c0,0.66,0.07,1.31,0.2,1.96
			c0.13,0.64,0.32,1.27,0.57,1.87c0.25,0.6,0.56,1.18,0.92,1.73c0.36,0.54,0.78,1.06,1.24,1.52c0.46,0.46,0.97,0.88,1.52,1.24
			c0.54,0.36,1.12,0.67,1.73,0.92c0.6,0.25,1.23,0.44,1.87,0.57s1.3,0.19,1.95,0.19c0.65,0,1.31-0.06,1.95-0.19
			c0.64-0.13,1.27-0.32,1.87-0.57c0.61-0.25,1.19-0.56,1.73-0.92c0.55-0.36,1.06-0.78,1.52-1.24c0.46-0.46,0.88-0.98,1.24-1.52
			c0.36-0.55,0.67-1.13,0.92-1.73c0.25-0.6,0.45-1.23,0.58-1.87c0.13-0.65,0.19-1.3,0.19-1.96
			C374.5,458.71,374.44,458.06,374.31,457.41z"/>
	</g>
</g>
<g>
	<g>
		<path d="M460.321,331.852V182.926c0-56.335-23.552-110.758-64.616-149.315c-11.253-10.566-23.733-19.871-37.093-27.654
			c-3.094-1.803-6.914-1.814-10.017-0.029c-3.103,1.784-5.017,5.09-5.017,8.67V142.43c0,21.533,15.109,39.602,35.282,44.167v48.072
			c-20.173,4.565-35.282,22.634-35.282,44.167v43.492H210.184c21.137-28.143,34.724-61.409,39.312-96.32
			c4.659-35.456-0.081-71.673-13.71-104.736c-1.364-3.31-4.393-5.637-7.943-6.103c-3.547-0.469-7.077,0.999-9.25,3.845
			L58.275,328.906C24.162,342.551,0,375.938,0,414.865c0,51.026,41.513,92.538,92.538,92.538h326.924
			c51.025,0,92.538-41.512,92.538-92.538C512,378.498,490.91,346.97,460.321,331.852z M398.86,66.302
			c26.576,32.746,41.461,74.08,41.461,116.624v141.772c-6.706-1.551-13.688-2.371-20.859-2.371H398.86V66.302z M363.578,142.43
			V33.003c5.309,3.827,10.414,7.932,15.282,12.294V165.65C369.878,161.767,363.578,152.82,363.578,142.43z M363.578,278.835
			c0-10.391,6.3-19.337,15.282-23.22v66.712h-15.282V278.835z M223.31,145.787c17.007,56.371,6.108,118.432-30.01,165.719
			l-8.265,10.821H92.538c-1.39,0-2.771,0.036-4.146,0.098L223.31,145.787z M419.462,487.404H92.538
			C52.54,487.404,20,454.863,20,414.865c0-39.997,32.54-72.538,72.538-72.538h326.924c39.998,0,72.538,32.541,72.538,72.538
			C492,454.863,459.459,487.404,419.462,487.404z"/>
	</g>
</g>
<g>
	<g>
		<path d="M327.501,449.365H282.5v-8h18c5.523,0,10-4.477,10-10v-33c0-5.523-4.477-10-10-10h-18v-18c0-5.523-4.477-10-10-10h-33
			c-5.523,0-10,4.477-10,10v18h-18c-5.523,0-10,4.477-10,10v33c0,5.523,4.477,10,10,10h18v8h-82c-5.523,0-10,4.477-10,10
			s4.477,10,10,10h180.001c5.523,0,10-4.477,10-10S333.024,449.365,327.501,449.365z M262.5,431.365v18h-13v-18
			c0-5.523-4.477-10-10-10h-18v-13h18c5.523,0,10-4.477,10-10v-18h13v18c0,5.523,4.477,10,10,10h18v13h-18
			C266.977,421.365,262.5,425.842,262.5,431.365z"/>
	</g>
</g>
<g>
</g>
<g>
</g>
<g>
</g>
<g>
</g>
<g>
</g>
<g>
</g>
<g>
</g>
<g>
</g>
<g>
</g>
<g>
</g>
<g>
</g>
<g>
</g>
<g>
</g>
<g>
</g>
<g>
</g>
</svg>
