<?xml version="1.0" encoding="iso-8859-1"?>
<!-- Generator: Adobe Illustrator 19.0.0, SVG Export Plug-In . SVG Version: 6.00 Build 0)  -->
<svg version="1.1" id="Capa_1" xmlns="http://www.w3.org/2000/svg" xmlns:xlink="http://www.w3.org/1999/xlink" x="0px" y="0px"
	 viewBox="0 0 512 512" style="enable-background:new 0 0 512 512;" xml:space="preserve">
<g>
	<g>
		<path d="M327.711,40H184.289c-15.28,0-27.711,12.431-27.711,27.711v25.186c0,15.28,12.431,27.711,27.711,27.711h143.422
			c15.28,0,27.711-12.43,27.711-27.71V67.711C355.422,52.431,342.991,40,327.711,40z M335.422,92.898
			c0,4.252-3.459,7.711-7.711,7.711H184.289c-4.252,0-7.711-3.459-7.711-7.711V67.711c0-4.252,3.459-7.711,7.711-7.711h143.422
			c4.252,0,7.711,3.459,7.711,7.711V92.898z"/>
	</g>
</g>
<g>
	<g>
		<path d="M361.699,294.221c-0.131-0.64-0.32-1.269-0.57-1.87c-0.25-0.6-0.561-1.19-0.92-1.73c-0.36-0.54-0.78-1.06-1.24-1.52
			c-0.46-0.46-0.97-0.88-1.52-1.24c-0.54-0.36-1.12-0.67-1.73-0.92c-0.6-0.25-1.229-0.439-1.87-0.569c-1.29-0.261-2.62-0.261-3.91,0
			c-0.63,0.129-1.26,0.319-1.87,0.569c-0.6,0.25-1.18,0.561-1.72,0.92c-0.55,0.36-1.06,0.78-1.52,1.24
			c-0.46,0.46-0.88,0.98-1.25,1.52c-0.35,0.541-0.66,1.13-0.91,1.73c-0.25,0.6-0.45,1.23-0.57,1.87c-0.13,0.65-0.2,1.3-0.2,1.95
			c0,0.66,0.07,1.31,0.2,1.96c0.12,0.64,0.32,1.269,0.57,1.87c0.25,0.599,0.559,1.179,0.91,1.729c0.37,0.54,0.79,1.05,1.25,1.511
			c0.46,0.47,0.97,0.88,1.52,1.25c0.54,0.359,1.12,0.67,1.72,0.92c0.61,0.25,1.24,0.439,1.87,0.569c0.65,0.13,1.311,0.2,1.96,0.2
			c0.651,0,1.311-0.071,1.95-0.2c0.641-0.13,1.27-0.319,1.87-0.569c0.61-0.25,1.19-0.561,1.73-0.92c0.55-0.37,1.06-0.78,1.52-1.25
			c0.46-0.461,0.88-0.971,1.24-1.511c0.359-0.549,0.67-1.129,0.92-1.729c0.25-0.6,0.439-1.23,0.57-1.87
			c0.13-0.65,0.199-1.3,0.199-1.96C361.898,295.521,361.829,294.871,361.699,294.221z"/>
	</g>
</g>
<g>
	<g>
		<path d="M170.81,430.05c-0.13-0.64-0.319-1.27-0.569-1.87c-0.25-0.61-0.561-1.189-0.921-1.729
			c-0.369-0.551-0.789-1.061-1.25-1.521c-0.46-0.46-0.97-0.88-1.52-1.24c-0.54-0.359-1.12-0.67-1.72-0.92
			c-0.61-0.25-1.24-0.45-1.87-0.569c-1.29-0.271-2.62-0.271-3.91,0c-0.64,0.119-1.269,0.319-1.87,0.569
			c-0.611,0.25-1.19,0.561-1.73,0.92c-0.55,0.36-1.06,0.78-1.52,1.24c-0.46,0.46-0.88,0.97-1.24,1.521
			c-0.359,0.54-0.67,1.119-0.92,1.729c-0.25,0.599-0.439,1.23-0.569,1.87c-0.131,0.64-0.2,1.3-0.2,1.95
			c0,0.649,0.069,1.309,0.2,1.95c0.13,0.64,0.319,1.27,0.569,1.88c0.25,0.6,0.561,1.18,0.92,1.72c0.36,0.55,0.78,1.06,1.24,1.52
			c0.459,0.46,0.969,0.881,1.52,1.24c0.541,0.36,1.12,0.67,1.73,0.92c0.6,0.25,1.23,0.45,1.87,0.58c0.639,0.13,1.3,0.19,1.95,0.19
			c0.649,0,1.31-0.06,1.96-0.19c0.63-0.13,1.26-0.33,1.87-0.58c0.6-0.25,1.18-0.56,1.72-0.92c0.55-0.359,1.06-0.78,1.52-1.24
			c0.461-0.46,0.881-0.97,1.25-1.52c0.36-0.54,0.671-1.12,0.921-1.72c0.25-0.61,0.439-1.24,0.569-1.88
			c0.129-0.64,0.19-1.301,0.19-1.95C171,431.35,170.94,430.69,170.81,430.05z"/>
	</g>
</g>
<g>
	<g>
		<path d="M365.711,0H146.289c-16.383,0-29.711,13.328-29.711,29.711V502c0,5.522,4.478,10,10,10h258.844c5.522,0,10-4.478,10-10
			V29.711C395.422,13.328,382.094,0,365.711,0z M136.578,160.608h79.794l-79.794,79.795V160.608z M230.515,174.751v79.795h-79.794
			L230.515,174.751z M375.422,422h-177.42c-5.522,0-10,4.478-10,10c0,5.522,4.478,10,10,10h177.42v50H136.578v-82.334h238.844V422z
			 M375.422,389.666H136.578v-83.492H314.9c5.523,0,10-4.478,10-10c0-5.522-4.477-10-10-10H136.578v-11.628h238.844V389.666z
			 M375.422,254.546H250.515v-93.938h124.907V254.546z M375.422,140.608H136.578V29.711c0-5.354,4.357-9.711,9.711-9.711h219.422
			c5.354,0,9.711,4.356,9.711,9.711V140.608z"/>
	</g>
</g>
<g>
</g>
<g>
</g>
<g>
</g>
<g>
</g>
<g>
</g>
<g>
</g>
<g>
</g>
<g>
</g>
<g>
</g>
<g>
</g>
<g>
</g>
<g>
</g>
<g>
</g>
<g>
</g>
<g>
</g>
</svg>
