<?xml version="1.0" encoding="iso-8859-1"?>
<!-- Generator: Adobe Illustrator 19.0.0, SVG Export Plug-In . SVG Version: 6.00 Build 0)  -->
<svg version="1.1" id="Capa_1" xmlns="http://www.w3.org/2000/svg" xmlns:xlink="http://www.w3.org/1999/xlink" x="0px" y="0px"
	 viewBox="0 0 512 512" style="enable-background:new 0 0 512 512;" xml:space="preserve">
<g>
	<g>
		<path d="M150.75,276.67c-0.13-0.63-0.32-1.26-0.57-1.87c-0.25-0.6-0.56-1.18-0.92-1.73c-0.37-0.54-0.78-1.05-1.25-1.52
			c-0.46-0.46-0.97-0.87-1.52-1.24c-0.54-0.361-1.12-0.671-1.721-0.921c-0.599-0.25-1.229-0.44-1.87-0.57
			c-1.29-0.26-2.619-0.26-3.909,0c-0.64,0.13-1.27,0.32-1.87,0.57c-0.6,0.25-1.18,0.561-1.73,0.921c-0.54,0.37-1.06,0.78-1.52,1.24
			c-0.46,0.47-0.88,0.98-1.24,1.52c-0.361,0.55-0.67,1.13-0.92,1.73c-0.25,0.61-0.44,1.24-0.57,1.87c-0.13,0.65-0.2,1.31-0.2,1.96
			c0,2.63,1.071,5.21,2.931,7.07c0.461,0.46,0.98,0.88,1.52,1.24c0.549,0.36,1.129,0.67,1.73,0.92c0.599,0.25,1.229,0.44,1.87,0.57
			c0.639,0.13,1.3,0.2,1.949,0.2c0.66,0,1.31-0.07,1.959-0.2c0.641-0.13,1.27-0.32,1.87-0.57c0.601-0.25,1.181-0.56,1.721-0.92
			c0.55-0.36,1.06-0.78,1.52-1.24c1.87-1.86,2.94-4.44,2.94-7.07C150.95,277.98,150.88,277.32,150.75,276.67z"/>
	</g>
</g>
<g>
	<g>
		<path d="M509.071,102.203L409.797,2.929c-3.906-3.905-10.236-3.905-14.143,0l-73.487,73.487c-2.482,2.483-3.481,6.086-2.631,9.493
			l11.489,46.029L198.991,263.972l-50.977-50.976c-3.906-3.905-10.236-3.905-14.143,0.001L2.929,343.94
			c-2.482,2.483-3.481,6.086-2.631,9.493l30.161,120.828c0.895,3.586,3.694,6.385,7.28,7.28l120.828,30.161
			c0.802,0.2,1.615,0.298,2.422,0.298c2.619,0,5.173-1.031,7.071-2.929l130.943-130.944c3.905-3.905,3.905-10.236,0-14.142
			l-50.975-50.976l132.034-132.034l46.028,11.489c0.802,0.2,1.615,0.298,2.422,0.298c2.619,0,5.173-1.031,7.071-2.929l73.487-73.487
			C512.977,112.441,512.977,106.109,509.071,102.203z M277.791,371.057L157.92,490.928l-24.228-6.048l128.961-128.961
			L277.791,371.057z M248.511,341.776l-103.3,103.3l-62.648-15.638l-15.639-62.649l52.333-52.333c3.905-3.905,3.905-10.237,0-14.143
			c-3.906-3.905-10.236-3.905-14.143,0l-56.335,56.335c-2.482,2.483-3.481,6.087-2.631,9.493l18.464,73.966
			c0.895,3.586,3.694,6.385,7.28,7.28l56.822,14.184l-17.657,17.658L48.409,463.59L21.073,354.08l119.87-119.871l43.905,43.905
			l-43.552,43.552c-3.905,3.905-3.905,10.237,0,14.142l34.895,34.895c1.876,1.875,4.419,2.929,7.071,2.929
			c0.829,0,1.647-0.103,2.438-0.302c1.739-0.437,3.344-1.338,4.634-2.627l43.552-43.552L248.511,341.776z M183.263,349.491
			l-20.752-20.753l176.856-176.856c5.266,8.394,12.358,15.487,20.752,20.752L183.263,349.491z M425.443,171.689l-41.372-10.327
			c-16.503-4.12-29.313-16.931-33.434-33.434l-10.326-41.372l62.414-62.415l85.132,85.132L425.443,171.689z"/>
	</g>
</g>
<g>
	<g>
		<path d="M450.511,102.204L409.796,61.49c-1.876-1.875-4.419-2.929-7.071-2.929c-2.652-0.001-5.196,1.053-7.071,2.928
			l-27.637,27.638c-2.482,2.483-3.482,6.086-2.631,9.493c5.914,23.691,24.305,42.081,47.994,47.995
			c0.802,0.2,1.614,0.298,2.422,0.298c2.619,0,5.173-1.031,7.071-2.929l27.638-27.638c1.875-1.875,2.929-4.419,2.929-7.071
			C453.44,106.623,452.386,104.079,450.511,102.204z M413,125.572c-12.257-4.656-21.915-14.315-26.571-26.573l16.297-16.297
			l26.572,26.572L413,125.572z"/>
	</g>
</g>
<g>
</g>
<g>
</g>
<g>
</g>
<g>
</g>
<g>
</g>
<g>
</g>
<g>
</g>
<g>
</g>
<g>
</g>
<g>
</g>
<g>
</g>
<g>
</g>
<g>
</g>
<g>
</g>
<g>
</g>
</svg>
