<?xml version="1.0" encoding="iso-8859-1"?>
<!-- Generator: Adobe Illustrator 19.0.0, SVG Export Plug-In . SVG Version: 6.00 Build 0)  -->
<svg version="1.1" id="Capa_1" xmlns="http://www.w3.org/2000/svg" xmlns:xlink="http://www.w3.org/1999/xlink" x="0px" y="0px"
	 viewBox="0 0 512.001 512.001" style="enable-background:new 0 0 512.001 512.001;" xml:space="preserve">
<g>
	<g>
		<path d="M346.089,182.009H165.912c-5.522,0-10,4.477-10,10v197.993c0,5.522,4.478,10,10,10h180.176c5.522,0,10-4.478,10-10
			V192.009C356.089,186.486,351.612,182.009,346.089,182.009z M336.089,380.002H175.912V202.009h160.176V380.002z"/>
	</g>
</g>
<g>
	<g>
		<path d="M266.062,456.001h-26c-5.522,0-10,4.477-10,10c0,5.522,4.478,10,10,10h26c5.523,0,10-4.478,10-10
			C276.062,460.478,271.585,456.001,266.062,456.001z"/>
	</g>
</g>
<g>
	<g>
		<path d="M352.359,120.052c-0.13-0.63-0.319-1.26-0.569-1.87c-0.25-0.6-0.561-1.18-0.92-1.72c-0.37-0.55-0.78-1.061-1.25-1.521
			c-0.459-0.46-0.97-0.88-1.52-1.25c-0.54-0.359-1.12-0.67-1.72-0.92c-0.61-0.24-1.23-0.44-1.87-0.56c-1.29-0.26-2.62-0.26-3.91,0
			c-0.64,0.121-1.269,0.321-1.87,0.56c-0.609,0.25-1.189,0.561-1.729,0.92c-0.55,0.37-1.061,0.79-1.521,1.25
			c-0.46,0.46-0.88,0.971-1.239,1.521c-0.36,0.54-0.671,1.12-0.921,1.72c-0.25,0.61-0.439,1.24-0.569,1.87
			c-0.13,0.65-0.2,1.31-0.2,1.96c0,0.65,0.07,1.309,0.2,1.95c0.13,0.64,0.319,1.269,0.569,1.87c0.25,0.609,0.561,1.189,0.921,1.729
			c0.359,0.549,0.779,1.06,1.239,1.52c0.461,0.46,0.971,0.88,1.521,1.239c0.54,0.36,1.12,0.671,1.729,0.921
			c0.6,0.25,1.23,0.449,1.87,0.569c0.64,0.13,1.3,0.2,1.95,0.2c0.66,0,1.309-0.071,1.96-0.2c0.64-0.12,1.26-0.319,1.87-0.569
			c0.6-0.25,1.18-0.561,1.72-0.921c0.549-0.359,1.06-0.779,1.52-1.239c0.46-0.459,0.88-0.97,1.25-1.52
			c0.359-0.54,0.67-1.12,0.92-1.729c0.25-0.6,0.439-1.23,0.569-1.87c0.13-0.641,0.19-1.3,0.19-1.95
			C352.549,121.362,352.49,120.702,352.359,120.052z"/>
	</g>
</g>
<g>
	<g>
		<path d="M300.555,112.009H169.446c-5.523,0-10,4.478-10,10c0,5.522,4.477,10,10,10h131.109c5.522,0,10-4.478,9.999-10
			C310.555,116.487,306.077,112.009,300.555,112.009z"/>
	</g>
</g>
<g>
	<g>
		<path d="M365.073,80.008H146.928c-17.102,0-31.015,13.913-31.015,31.015v369.963c0,17.102,13.913,31.015,31.015,31.015h218.146
			c17.102,0,31.015-13.913,31.015-31.015V111.022C396.089,93.921,382.175,80.008,365.073,80.008z M376.089,480.985
			c0,6.073-4.941,11.015-11.015,11.015H146.928c-6.073,0-11.015-4.941-11.015-11.015v-40.983h240.176V480.985z M376.089,420.002
			H135.912V162.009h240.176V420.002z M376.089,142.008H135.912v-30.986c0-6.073,4.941-11.015,11.015-11.015h218.146
			c6.073,0,11.015,4.941,11.015,11.015V142.008z"/>
	</g>
</g>
<g>
	<g>
		<path d="M325.623,220.498c-2.799-2.798-6.985-3.684-10.677-2.255l-125.105,48.375c-3.963,1.532-6.525,5.402-6.389,9.649
			c0.138,4.247,2.943,7.943,6.997,9.218l53.404,16.784l16.784,53.404c1.274,4.054,4.971,6.859,9.218,6.997
			c0.108,0.003,0.217,0.005,0.324,0.005c4.118,0,7.832-2.531,9.325-6.394l48.375-125.105
			C329.307,227.484,328.422,223.297,325.623,220.498z M271.154,322.426l-7.966-25.347l14.807-14.807
			c3.905-3.905,3.905-10.237,0-14.143c-3.906-3.904-10.236-3.904-14.143,0l-14.807,14.807l-25.347-7.967l77.374-29.918
			L271.154,322.426z"/>
	</g>
</g>
<g>
	<g>
		<path d="M303.823,54.373C289.867,44.11,273.331,38.685,256,38.685s-33.867,5.424-47.823,15.689
			c-4.449,3.271-5.403,9.531-2.131,13.98c3.272,4.45,9.532,5.403,13.98,2.131c10.497-7.72,22.937-11.8,35.974-11.8
			c13.038,0,25.477,4.08,35.974,11.8c1.785,1.312,3.859,1.945,5.917,1.945c3.072-0.001,6.104-1.412,8.063-4.077
			C309.227,63.904,308.273,57.644,303.823,54.373z"/>
	</g>
</g>
<g>
	<g>
		<path d="M321.167,21.535C302.183,7.446,279.648,0,256,0c-23.649,0-46.184,7.447-65.167,21.535
			c-4.434,3.292-5.361,9.554-2.07,13.99c1.963,2.644,4.98,4.041,8.038,4.041c2.071-0.001,4.161-0.641,5.952-1.97
			C218.264,26.084,236.677,20,256,20c19.323,0,37.736,6.085,53.248,17.595c4.434,3.29,10.697,2.365,13.989-2.071
			C326.529,31.09,325.603,24.826,321.167,21.535z"/>
	</g>
</g>
<g>
</g>
<g>
</g>
<g>
</g>
<g>
</g>
<g>
</g>
<g>
</g>
<g>
</g>
<g>
</g>
<g>
</g>
<g>
</g>
<g>
</g>
<g>
</g>
<g>
</g>
<g>
</g>
<g>
</g>
</svg>
