<?xml version="1.0" encoding="iso-8859-1"?>
<!-- Generator: Adobe Illustrator 19.0.0, SVG Export Plug-In . SVG Version: 6.00 Build 0)  -->
<svg version="1.1" id="Capa_1" xmlns="http://www.w3.org/2000/svg" xmlns:xlink="http://www.w3.org/1999/xlink" x="0px" y="0px"
	 viewBox="0 0 512 512" style="enable-background:new 0 0 512 512;" xml:space="preserve">
<g>
	<g>
		<path d="M308.14,372.19c-0.13-0.64-0.32-1.27-0.57-1.87c-0.25-0.61-0.56-1.19-0.92-1.73c-0.36-0.55-0.78-1.06-1.24-1.52
			c-0.46-0.46-0.98-0.88-1.52-1.24c-0.55-0.36-1.13-0.67-1.73-0.92c-0.6-0.25-1.23-0.44-1.87-0.57c-1.29-0.26-2.62-0.26-3.91,0
			c-0.64,0.13-1.27,0.32-1.87,0.57c-0.6,0.25-1.18,0.56-1.73,0.92c-0.54,0.36-1.05,0.78-1.52,1.24c-0.46,0.46-0.87,0.97-1.24,1.52
			c-0.36,0.54-0.67,1.12-0.92,1.73c-0.25,0.6-0.44,1.23-0.57,1.87s-0.19,1.3-0.19,1.95c0,0.65,0.06,1.31,0.19,1.96
			c0.13,0.63,0.32,1.26,0.57,1.87c0.25,0.6,0.56,1.18,0.92,1.72c0.37,0.55,0.78,1.06,1.24,1.52c0.47,0.46,0.98,0.88,1.52,1.25
			c0.55,0.36,1.13,0.67,1.73,0.92c0.6,0.25,1.23,0.44,1.87,0.56c0.65,0.13,1.3,0.2,1.95,0.2c0.66,0,1.31-0.07,1.96-0.2
			c0.64-0.12,1.27-0.31,1.87-0.56c0.6-0.25,1.18-0.56,1.73-0.92c0.54-0.37,1.06-0.79,1.52-1.25c0.46-0.46,0.88-0.97,1.24-1.52
			c0.36-0.54,0.67-1.12,0.92-1.72c0.25-0.61,0.44-1.24,0.57-1.87c0.13-0.65,0.2-1.31,0.2-1.96
			C308.34,373.49,308.27,372.83,308.14,372.19z"/>
	</g>
</g>
<g>
	<g>
		<path d="M235.35,436.119c-0.13-0.64-0.32-1.27-0.57-1.87c-0.25-0.61-0.56-1.19-0.92-1.73c-0.36-0.55-0.78-1.06-1.24-1.52
			c-2.33-2.32-5.78-3.39-9.03-2.73c-0.64,0.13-1.27,0.32-1.87,0.57s-1.18,0.56-1.73,0.92c-0.54,0.36-1.05,0.78-1.52,1.24
			c-0.46,0.46-0.87,0.97-1.24,1.52c-0.361,0.54-0.67,1.12-0.92,1.73c-0.25,0.6-0.44,1.23-0.57,1.87c-0.13,0.64-0.2,1.3-0.2,1.95
			c0,2.63,1.07,5.21,2.93,7.07c0.47,0.46,0.98,0.88,1.52,1.25c0.55,0.361,1.13,0.671,1.73,0.921c0.6,0.25,1.23,0.44,1.87,0.57
			c0.65,0.13,1.3,0.19,1.96,0.19c2.63,0,5.2-1.07,7.07-2.931c1.86-1.86,2.93-4.44,2.93-7.07
			C235.55,437.419,235.48,436.759,235.35,436.119z"/>
	</g>
</g>
<g>
	<g>
		<path d="M512,342.176c0-20.95-15.432-38.364-35.526-41.471L344.425,103.209c-1.856-2.775-4.974-4.442-8.313-4.442
			s-6.457,1.667-8.313,4.442l-46.264,69.193L209.736,65.017c-1.855-2.775-4.974-4.442-8.313-4.442c-3.339,0-6.457,1.667-8.313,4.442
			L35.526,300.705C15.432,303.812,0,321.226,0,342.176c0,23.14,18.825,41.965,41.965,41.965h21.951
			c-3.943,6.393-6.22,13.918-6.22,21.965c0,23.14,18.825,41.965,41.964,41.965h49.931c-3.942,6.393-6.219,13.918-6.219,21.964
			c0,23.14,18.825,41.965,41.964,41.965H453c23.14,0,41.965-18.825,41.965-41.965c0-23.139-18.825-41.964-41.965-41.964h-21.956
			c3.943-6.394,6.219-13.918,6.219-21.965s-2.277-15.572-6.22-21.965h38.992C493.175,384.141,512,365.316,512,342.176z
			 M336.112,126.758l42.46,63.505l-5.966,7.205l-32.734-13.281c-1.216-0.494-2.492-0.734-3.758-0.734
			c-2.479,0-4.922,0.922-6.806,2.671l-11.86,11.012l-20.48-11.833L336.112,126.758z M285.828,201.965l28.009,16.183
			c3.801,2.196,8.59,1.657,11.807-1.33l12.607-11.705l33.624,13.643c1.221,0.496,2.495,0.734,3.757,0.734
			c2.917,0,5.763-1.278,7.705-3.622l6.835-8.255l61.913,92.599H220.139L285.828,201.965z M201.423,88.567l44.309,66.27l-7.815,9.439
			l-32.734-13.282c-1.216-0.494-2.492-0.734-3.758-0.734c-2.479,0-4.922,0.922-6.806,2.671l-11.86,11.012l-22.891-13.226
			L201.423,88.567z M148.729,167.379l30.419,17.576c3.801,2.196,8.59,1.657,11.807-1.33l12.607-11.706l33.624,13.643
			c1.221,0.496,2.495,0.734,3.757,0.734c2.916,0,5.763-1.278,7.705-3.623l8.684-10.488l12.173,18.207l-73.425,109.82H59.915
			L148.729,167.379z M354,384.141h41.299c12.111,0,21.964,9.854,21.964,21.965c0,12.111-9.853,21.965-21.964,21.965
			c-0.62,0-122.754,0-122.754,0c-5.523,0-10,4.477-10,10s4.477,10,10,10H453c12.111,0,21.965,9.853,21.965,21.964
			c0,12.111-9.853,21.965-21.965,21.965H185.336c-12.111,0-21.964-9.853-21.964-21.965c0-12.111,9.853-21.964,21.964-21.964
			c5.523,0,10-4.477,10-10s-4.477-10-10-10H99.66c-12.111,0-21.964-9.854-21.964-21.965c0-12.111,9.853-21.965,21.964-21.965
			h154.843c5.523,0,10-4.477,10-10s-4.477-10-10-10H41.965c-12.111,0-21.965-9.854-21.965-21.965
			c0-12.111,9.854-21.964,21.965-21.964h428.07c12.111,0,21.965,9.853,21.965,21.964c0,12.111-9.854,21.965-21.965,21.965H354
			c-5.523,0-10,4.477-10,10S348.477,384.141,354,384.141z"/>
	</g>
</g>
<g>
	<g>
		<path d="M440.347,0c-39.51,0-71.653,32.144-71.653,71.653c0,39.509,32.144,71.653,71.653,71.653
			c39.509,0,71.653-32.143,71.653-71.653C512,32.144,479.856,0,440.347,0z M440.347,123.306c-28.482,0-51.653-23.171-51.653-51.653
			S411.865,20,440.347,20C468.829,20,492,43.171,492,71.653S468.829,123.306,440.347,123.306z"/>
	</g>
</g>
<g>
</g>
<g>
</g>
<g>
</g>
<g>
</g>
<g>
</g>
<g>
</g>
<g>
</g>
<g>
</g>
<g>
</g>
<g>
</g>
<g>
</g>
<g>
</g>
<g>
</g>
<g>
</g>
<g>
</g>
</svg>
