<?xml version="1.0" encoding="iso-8859-1"?>
<!-- Generator: Adobe Illustrator 19.0.0, SVG Export Plug-In . SVG Version: 6.00 Build 0)  -->
<svg version="1.1" id="Capa_1" xmlns="http://www.w3.org/2000/svg" xmlns:xlink="http://www.w3.org/1999/xlink" x="0px" y="0px"
	 viewBox="0 0 512 512" style="enable-background:new 0 0 512 512;" xml:space="preserve">
<g>
	<g>
		<path d="M268.94,349.411c-0.46-0.46-0.97-0.881-1.52-1.24c-0.54-0.36-1.12-0.67-1.72-0.92c-0.61-0.25-1.24-0.44-1.87-0.57
			c-3.25-0.661-6.71,0.41-9.03,2.73c-1.86,1.859-2.93,4.439-2.93,7.069s1.07,5.21,2.93,7.07c0.46,0.46,0.97,0.88,1.52,1.25
			c0.54,0.36,1.12,0.67,1.73,0.92c0.6,0.25,1.23,0.44,1.87,0.57c0.64,0.129,1.3,0.189,1.95,0.189c0.65,0,1.31-0.059,1.95-0.189
			s1.27-0.32,1.88-0.57c0.6-0.25,1.18-0.56,1.72-0.92c0.55-0.37,1.06-0.79,1.52-1.25c1.86-1.86,2.93-4.44,2.93-7.07
			S270.8,351.27,268.94,349.411z"/>
	</g>
</g>
<g>
	<g>
		<path d="M499.236,497.702l-234.206-492C263.371,2.219,259.857,0,256,0s-7.371,2.219-9.029,5.702l-234.206,492
			c-1.475,3.098-1.258,6.736,0.574,9.638c1.832,2.9,5.024,4.66,8.455,4.66h468.413c3.431,0,6.623-1.76,8.455-4.66
			C500.494,504.439,500.71,500.8,499.236,497.702z M256,33.266l54.535,114.562l-4.185,5.055l-54.177-21.982
			c-1.216-0.493-2.492-0.733-3.758-0.733c-2.48,0-4.922,0.922-6.806,2.672l-21.232,19.711l-16.596-9.588L256,33.266z
			 M195.159,161.076l21.608,12.485c3.801,2.194,8.59,1.656,11.807-1.331l21.979-20.405l55.067,22.344
			c1.221,0.495,2.495,0.734,3.757,0.734c2.917-0.001,5.764-1.278,7.705-3.623l2.932-3.541l128.394,269.717h-61.371l-41.257-71.459
			c2.326-0.75,4.337-2.336,5.595-4.514c1.787-3.094,1.787-6.906,0-10l-41.067-71.13c2.142-0.8,3.984-2.321,5.163-4.363
			c1.787-3.094,1.787-6.906,0-10l-48.582-84.146c-1.786-3.094-5.087-5-8.66-5s-6.874,1.906-8.66,5l-48.582,84.146
			c-1.787,3.094-1.787,6.906,0,10c1.179,2.042,3.021,3.563,5.163,4.363l-41.067,71.13c-1.787,3.094-1.787,6.906,0,10
			c1.258,2.179,3.268,3.764,5.595,4.514l-41.257,71.459H63.593L195.159,161.076z M222.999,346.482h-31.938l37.813-65.493h58.707
			l37.813,65.493h-25.06c-5.523,0-10,4.478-10,10c0,5.523,4.477,10,10,10h22.632l40.977,70.974H152.512l40.977-70.974h29.51
			c5.523,0,10-4.477,10-10C232.999,350.96,228.522,346.482,222.999,346.482z M226.965,260.989l31.262-54.146l31.262,54.146H226.965z
			 M225.402,492H37.629l16.444-34.544h171.329V492z M271.052,492h-25.651v-34.544h25.651V492z M291.052,492v-34.544h166.875
			L474.371,492H291.052z"/>
	</g>
</g>
<g>
</g>
<g>
</g>
<g>
</g>
<g>
</g>
<g>
</g>
<g>
</g>
<g>
</g>
<g>
</g>
<g>
</g>
<g>
</g>
<g>
</g>
<g>
</g>
<g>
</g>
<g>
</g>
<g>
</g>
</svg>
