<?xml version="1.0" encoding="iso-8859-1"?>
<!-- Generator: Adobe Illustrator 19.0.0, SVG Export Plug-In . SVG Version: 6.00 Build 0)  -->
<svg version="1.1" id="Capa_1" xmlns="http://www.w3.org/2000/svg" xmlns:xlink="http://www.w3.org/1999/xlink" x="0px" y="0px"
	 viewBox="0 0 512 512" style="enable-background:new 0 0 512 512;" xml:space="preserve">
<g>
	<g>
		<path d="M410.71,249.671c-0.129-0.64-0.32-1.27-0.57-1.87c-0.25-0.599-0.56-1.179-0.92-1.73c-0.37-0.54-0.79-1.05-1.25-1.52
			c-0.46-0.46-0.97-0.87-1.52-1.24c-0.54-0.359-1.12-0.67-1.721-0.92c-0.609-0.25-1.239-0.439-1.87-0.57
			c-1.29-0.26-2.619-0.26-3.909,0c-0.641,0.131-1.27,0.32-1.87,0.57c-0.61,0.25-1.19,0.561-1.73,0.92
			c-0.55,0.37-1.06,0.78-1.52,1.24c-0.46,0.47-0.88,0.981-1.24,1.52c-0.36,0.55-0.67,1.13-0.92,1.73
			c-0.25,0.599-0.44,1.23-0.57,1.87c-0.13,0.649-0.2,1.3-0.2,1.96c0,0.65,0.07,1.3,0.2,1.95c0.13,0.64,0.32,1.269,0.57,1.87
			c0.25,0.599,0.56,1.179,0.92,1.729c0.36,0.541,0.78,1.05,1.24,1.521c0.46,0.46,0.97,0.88,1.52,1.239
			c0.539,0.36,1.12,0.67,1.73,0.92c0.599,0.25,1.229,0.44,1.87,0.57c0.639,0.13,1.3,0.19,1.949,0.19c0.661,0,1.311-0.06,1.96-0.19
			c0.631-0.13,1.261-0.32,1.87-0.57c0.601-0.25,1.181-0.56,1.721-0.92c0.55-0.359,1.06-0.779,1.52-1.239
			c0.46-0.471,0.88-0.981,1.25-1.521c0.361-0.549,0.67-1.129,0.92-1.729c0.25-0.6,0.44-1.23,0.57-1.87
			c0.129-0.65,0.189-1.3,0.189-1.95C410.899,250.971,410.84,250.32,410.71,249.671z"/>
	</g>
</g>
<g>
	<g>
		<path d="M256,188.427c-65.335,0-118.488,53.153-118.488,118.488S190.665,425.403,256,425.403s118.488-53.153,118.488-118.488
			S321.335,188.427,256,188.427z M256,405.403c-54.306,0-98.488-44.181-98.488-98.488c0-54.306,44.181-98.488,98.488-98.488
			s98.488,44.181,98.488,98.488C354.488,361.221,310.306,405.403,256,405.403z"/>
	</g>
</g>
<g>
	<g>
		<path d="M315.55,271.008h-23.643v-23.644c0-5.522-4.478-10-10-10h-51.813c-5.522,0-10,4.478-10,10v23.644H196.45
			c-5.522,0-10,4.478-10,10v51.812c0,5.522,4.478,10,10,10h23.643v23.645c0,5.522,4.478,10,10,10h51.813c5.523,0,10-4.478,10.001-10
			V342.82h23.643c5.522,0,10-4.478,10-10v-51.812C325.55,275.486,321.072,271.008,315.55,271.008z M305.55,322.82h-23.643
			c-5.523,0-10,4.478-10,10v23.645h-31.813V332.82c0-5.522-4.478-10-10-10H206.45v-31.812h23.644c5.522,0,10-4.477,10-10v-23.644
			h31.813v23.644c0,5.523,4.477,10,10,10h23.643V322.82z"/>
	</g>
</g>
<g>
	<g>
		<path d="M488.664,101.829h-31.499V70.332c0-5.522-4.478-10-10-10h-79.333V41.68c0-22.982-18.697-41.68-41.68-41.68H185.848
			c-22.982,0-41.68,18.697-41.68,41.68v18.652H64.835c-5.522,0-10,4.478-10,10v31.497H23.336c-5.522,0-10,4.478-10,10V502
			c0,5.522,4.478,10,10,10h465.328c5.522,0,10-4.478,10-10V111.829C498.664,106.307,494.186,101.829,488.664,101.829z
			 M367.832,80.332h69.333v21.497h-69.333V80.332z M164.168,41.68c0-11.954,9.726-21.68,21.68-21.68h140.305
			c11.954,0,21.68,9.726,21.68,21.68v60.149h-20V50c0-5.522-4.478-10-10-10H194.168c-5.523,0-10,4.478-10,10v51.829h-20V41.68z
			 M307.832,60v41.829H204.168V60H307.832z M74.835,80.332h69.333v21.497H74.835V80.332z M478.664,492H33.336V121.829h445.328V492z"
			/>
	</g>
</g>
<g>
	<g>
		<path d="M448.664,141.83H256.129c-0.043,0-0.086-0.001-0.129-0.001c-0.051,0-0.102,0.001-0.154,0.001H63.336
			c-5.522,0-10,4.478-10,10V462c0,5.522,4.478,10,10,10h385.328c5.522,0,10-4.478,10-10V151.83
			C458.664,146.308,454.186,141.83,448.664,141.83z M73.336,452V161.83H177.29c-51.411,28.003-86.376,82.537-86.376,145.085
			S125.88,423.998,177.292,452H73.336z M438.664,161.83V452h-104.11c45.137-24.548,78.002-69.6,85.106-123.346
			c0.724-5.476-3.129-10.501-8.604-11.225c-5.485-0.722-10.501,3.128-11.225,8.604C390.342,397.846,328.507,452,256,452
			c-80.001,0-145.086-65.085-145.086-145.085c0-79.95,65.002-145.002,144.932-145.085h0.282
			c46.46,0.042,90.457,22.667,117.712,60.542c3.227,4.483,9.475,5.503,13.958,2.276c4.483-3.227,5.502-9.476,2.276-13.958
			c-14.771-20.527-33.871-37.112-55.539-48.86L438.664,161.83L438.664,161.83z"/>
	</g>
</g>
<g>
</g>
<g>
</g>
<g>
</g>
<g>
</g>
<g>
</g>
<g>
</g>
<g>
</g>
<g>
</g>
<g>
</g>
<g>
</g>
<g>
</g>
<g>
</g>
<g>
</g>
<g>
</g>
<g>
</g>
</svg>
