<?xml version="1.0" encoding="iso-8859-1"?>
<!-- Generator: Adobe Illustrator 19.0.0, SVG Export Plug-In . SVG Version: 6.00 Build 0)  -->
<svg version="1.1" id="Capa_1" xmlns="http://www.w3.org/2000/svg" xmlns:xlink="http://www.w3.org/1999/xlink" x="0px" y="0px"
	 viewBox="0 0 512 512" style="enable-background:new 0 0 512 512;" xml:space="preserve">
<g>
	<g>
		<path d="M367.311,228.318h-0.001V10c0-5.523-4.477-10-10-10H37.155c-5.523,0-10,4.477-10,10v218.318h-0.001
			c-5.523,0-10,4.477-10,10V502c0,5.523,4.477,10,10,10h340.157c5.523,0,10-4.477,10-10V238.318
			C377.311,232.795,372.834,228.318,367.311,228.318z M47.155,20H347.31v208.318h-20V50c0-5.523-4.477-10-10-10H77.156
			c-5.523,0-10,4.477-10,10v178.318H47.155V20z M137.486,153.848L137.486,153.848c5.038-1.592,9.561-4.355,13.249-7.967
			c3.688,3.612,8.211,6.375,13.249,7.967v74.47h-26.498V153.848z M127.486,135.385c-7.305,0-13.248-5.943-13.248-13.249
			c0-7.306,5.943-13.249,13.248-13.249c7.306,0,13.249,5.943,13.249,13.249C140.735,129.442,134.792,135.385,127.486,135.385z
			 M160.735,122.136c0-7.306,5.943-13.249,13.249-13.249c7.306,0,13.249,5.943,13.249,13.249c0,7.306-5.943,13.249-13.249,13.249
			C166.678,135.385,160.735,129.442,160.735,122.136z M183.984,153.848c5.038-1.592,9.561-4.355,13.249-7.967
			c3.688,3.612,8.211,6.375,13.249,7.967v74.47h-26.498V153.848z M207.233,122.136c0-7.306,5.943-13.249,13.249-13.249
			c7.305,0,13.248,5.943,13.248,13.249c0,7.306-5.943,13.249-13.248,13.249C213.176,135.385,207.233,129.442,207.233,122.136z
			 M230.482,153.848c5.038-1.592,9.56-4.355,13.248-7.967c3.688,3.612,8.211,6.375,13.249,7.967v74.47h-26.497V153.848z
			 M253.73,122.136c0-7.306,5.943-13.249,13.249-13.249c7.306,0,13.249,5.943,13.249,13.249c0,7.306-5.943,13.249-13.249,13.249
			C259.673,135.385,253.73,129.442,253.73,122.136z M276.979,153.848c13.462-4.255,23.249-16.861,23.249-31.712
			c0-18.334-14.915-33.249-33.249-33.249c-9.041,0-17.249,3.629-23.249,9.505c-5.999-5.876-14.207-9.505-23.248-9.505
			c-9.041,0-17.249,3.629-23.249,9.505c-6-5.876-14.208-9.505-23.249-9.505s-17.249,3.629-23.249,9.505
			c-6-5.876-14.208-9.505-23.249-9.505c-18.333,0-33.248,14.915-33.248,33.249c0,14.85,9.786,27.457,23.248,31.712v74.47h-30.33V60
			H307.31v168.318h-30.331V153.848z M357.311,492H37.154V248.318h320.157V492z"/>
	</g>
</g>
<g>
	<g>
		<path d="M327.311,268.318H67.155c-5.522,0-10,4.477-10,10V462c0,5.523,4.478,10,10,10h260.156c5.523,0,10-4.477,10-10V278.318
			C337.311,272.795,332.834,268.318,327.311,268.318z M317.311,452H77.155V288.318h240.156V452z"/>
	</g>
</g>
<g>
	<g>
		<path d="M444.879,457.33c-0.13-0.64-0.32-1.27-0.57-1.87c-0.25-0.6-0.56-1.19-0.92-1.73c-0.359-0.54-0.78-1.06-1.24-1.52
			c-0.46-0.46-0.97-0.88-1.52-1.24c-0.54-0.36-1.12-0.67-1.73-0.92c-0.599-0.25-1.229-0.44-1.869-0.57c-1.29-0.26-2.62-0.26-3.91,0
			c-0.641,0.13-1.261,0.32-1.87,0.57c-0.601,0.25-1.181,0.56-1.72,0.92c-0.551,0.36-1.061,0.78-1.521,1.24
			c-0.47,0.46-0.88,0.98-1.25,1.52c-0.36,0.55-0.67,1.13-0.92,1.73c-0.25,0.6-0.44,1.23-0.57,1.87s-0.189,1.3-0.189,1.95
			c0,0.65,0.059,1.31,0.189,1.96c0.13,0.64,0.32,1.26,0.57,1.87c0.25,0.6,0.56,1.18,0.92,1.72c0.37,0.55,0.78,1.06,1.25,1.53
			c0.46,0.46,0.97,0.87,1.521,1.24c0.539,0.36,1.119,0.67,1.72,0.92c0.609,0.25,1.229,0.44,1.87,0.57
			c0.649,0.13,1.31,0.19,1.96,0.19c2.63,0,5.21-1.06,7.069-2.92c0.46-0.471,0.881-0.98,1.24-1.53c0.36-0.54,0.67-1.12,0.92-1.72
			c0.25-0.61,0.44-1.23,0.57-1.87c0.13-0.65,0.2-1.31,0.2-1.96S445.009,457.97,444.879,457.33z"/>
	</g>
</g>
<g>
	<g>
		<path d="M483.037,100.197c-0.003-0.004-0.006-0.008-0.009-0.012l-39.939-53.453c-1.888-2.527-4.857-4.015-8.011-4.015
			s-6.123,1.488-8.011,4.015l-39.947,53.464c-7.726,10.37-11.81,22.706-11.81,35.674c0,29.31,21.556,53.715,49.768,58.449v221.967
			c0,5.523,4.478,10,10,10c5.522,0,10-4.477,10-10V194.318c28.212-4.734,49.768-29.14,49.768-58.449
			C494.846,122.904,490.763,110.568,483.037,100.197z M435.078,175.152c-8.358,0-15.159-6.8-15.159-15.159
			c0-3.294,1.03-6.417,2.973-9.023l12.186-16.31l12.198,16.323c1.936,2.603,2.961,5.718,2.961,9.009
			C450.237,168.351,443.436,175.152,435.078,175.152z M469.866,154.883c-0.829-5.742-3.051-11.15-6.559-15.858
			c-0.003-0.003-0.006-0.007-0.008-0.01l-20.211-27.046c-1.888-2.526-4.857-4.014-8.011-4.014s-6.123,1.488-8.011,4.014
			l-20.204,27.039c-3.516,4.717-5.743,10.131-6.573,15.876c-3.171-5.638-4.98-12.121-4.98-19.015c0-8.629,2.714-16.833,7.84-23.714
			l31.928-42.731l31.92,42.719c5.134,6.894,7.848,15.098,7.848,23.726C474.846,142.762,473.037,149.245,469.866,154.883z"/>
	</g>
</g>
<g>
	<g>
		<path d="M281.636,307.843H105.603c-5.522,0-10,4.477-10,10v71c0,5.523,4.478,10,10,10h176.033c5.522,0,10-4.477,10-10v-71
			C291.636,312.32,287.158,307.843,281.636,307.843z M271.636,378.843H115.603v-51h156.033V378.843z"/>
	</g>
</g>
<g>
	<g>
		<path d="M293.599,422.22c-0.13-0.63-0.33-1.26-0.58-1.87c-0.25-0.6-0.55-1.18-0.91-1.72c-0.369-0.55-0.79-1.06-1.25-1.52
			c-0.46-0.46-0.97-0.88-1.52-1.25c-0.54-0.36-1.12-0.67-1.72-0.92c-0.61-0.25-1.24-0.44-1.88-0.57c-1.29-0.26-2.61-0.26-3.9,0
			c-0.64,0.13-1.27,0.32-1.87,0.57c-0.61,0.25-1.189,0.56-1.729,0.92c-0.551,0.37-1.061,0.78-1.521,1.25
			c-0.46,0.46-0.88,0.97-1.24,1.52c-0.36,0.54-0.67,1.12-0.92,1.72c-0.25,0.61-0.45,1.24-0.569,1.87c-0.131,0.65-0.2,1.31-0.2,1.96
			c0,2.63,1.07,5.21,2.93,7.07c0.46,0.46,0.97,0.88,1.521,1.24c0.54,0.36,1.119,0.67,1.729,0.92c0.599,0.25,1.23,0.44,1.87,0.57
			c0.639,0.13,1.3,0.2,1.95,0.2c2.63,0,5.21-1.07,7.068-2.93c1.861-1.86,2.931-4.44,2.931-7.07
			C293.789,423.53,293.729,422.87,293.599,422.22z"/>
	</g>
</g>
<g>
	<g>
		<path d="M240.792,414.177h-135.19c-5.522,0-10,4.477-10,10s4.478,10,10,10h135.19c5.522,0,10-4.477,10-10
			S246.314,414.177,240.792,414.177z"/>
	</g>
</g>
<g>
</g>
<g>
</g>
<g>
</g>
<g>
</g>
<g>
</g>
<g>
</g>
<g>
</g>
<g>
</g>
<g>
</g>
<g>
</g>
<g>
</g>
<g>
</g>
<g>
</g>
<g>
</g>
<g>
</g>
</svg>
