<?xml version="1.0" encoding="iso-8859-1"?>
<!-- Generator: Adobe Illustrator 19.0.0, SVG Export Plug-In . SVG Version: 6.00 Build 0)  -->
<svg version="1.1" id="Capa_1" xmlns="http://www.w3.org/2000/svg" xmlns:xlink="http://www.w3.org/1999/xlink" x="0px" y="0px"
	 viewBox="0 0 512.001 512.001" style="enable-background:new 0 0 512.001 512.001;" xml:space="preserve">
<g>
	<g>
		<path d="M320.983,40.993c-29.558,0-53.606,24.047-53.606,53.606c0,29.559,24.047,53.607,53.606,53.607
			c29.558,0,53.606-24.048,53.606-53.607C374.589,65.04,350.542,40.993,320.983,40.993z M320.983,128.205
			c-18.53,0-33.606-15.076-33.606-33.607c0-18.53,15.076-33.606,33.606-33.606s33.606,15.075,33.606,33.606
			C354.589,113.129,339.513,128.205,320.983,128.205z"/>
	</g>
</g>
<g>
	<g>
		<path d="M168.801,263.538c-0.12-0.63-0.32-1.26-0.57-1.87c-0.25-0.6-0.56-1.18-0.92-1.72c-0.36-0.55-0.78-1.06-1.24-1.52
			c-0.46-0.46-0.97-0.88-1.52-1.25c-0.54-0.36-1.12-0.67-1.73-0.92c-0.6-0.25-1.23-0.44-1.87-0.57c-1.29-0.26-2.62-0.26-3.91,0
			c-0.63,0.13-1.26,0.32-1.87,0.57c-0.6,0.25-1.18,0.56-1.72,0.92c-0.55,0.37-1.06,0.79-1.52,1.25c-0.46,0.46-0.88,0.97-1.24,1.52
			c-0.36,0.54-0.67,1.12-0.92,1.72c-0.25,0.61-0.45,1.24-0.57,1.87c-0.13,0.65-0.2,1.31-0.2,1.96c0,2.63,1.07,5.21,2.93,7.07
			c0.46,0.46,0.97,0.88,1.52,1.24c0.54,0.36,1.12,0.67,1.72,0.92c0.61,0.25,1.24,0.44,1.87,0.57c0.65,0.13,1.31,0.2,1.96,0.2
			c0.65,0,1.311-0.07,1.95-0.2c0.64-0.13,1.27-0.32,1.87-0.57c0.61-0.25,1.19-0.56,1.73-0.92c0.55-0.36,1.06-0.78,1.52-1.24
			c1.86-1.86,2.93-4.44,2.93-7.07C169.001,264.848,168.931,264.188,168.801,263.538z"/>
	</g>
</g>
<g>
	<g>
		<path d="M242.19,415.916c-0.13-0.64-0.32-1.27-0.57-1.87c-0.25-0.61-0.56-1.19-0.92-1.73c-0.37-0.55-0.78-1.06-1.25-1.52
			c-0.46-0.46-0.97-0.88-1.52-1.24c-0.54-0.361-1.12-0.671-1.72-0.921s-1.23-0.44-1.87-0.57c-1.29-0.26-2.62-0.26-3.91,0
			c-0.64,0.13-1.27,0.32-1.87,0.57c-0.6,0.25-1.19,0.561-1.73,0.921c-0.55,0.36-1.06,0.78-1.52,1.24c-0.46,0.46-0.88,0.97-1.24,1.52
			c-0.36,0.54-0.67,1.12-0.92,1.73c-0.25,0.6-0.44,1.23-0.57,1.87s-0.2,1.3-0.2,1.95c0,0.651,0.07,1.311,0.2,1.961
			c0.13,0.63,0.32,1.26,0.57,1.87c0.25,0.6,0.56,1.18,0.92,1.72c0.36,0.55,0.78,1.06,1.24,1.52c0.46,0.46,0.97,0.88,1.52,1.25
			c0.54,0.36,1.13,0.67,1.73,0.92c0.6,0.25,1.23,0.44,1.87,0.57c0.64,0.13,1.3,0.19,1.95,0.19c0.66,0,1.31-0.06,1.96-0.19
			c0.64-0.13,1.26-0.32,1.87-0.57c0.6-0.25,1.18-0.56,1.72-0.92c0.55-0.37,1.06-0.79,1.52-1.25c0.47-0.46,0.88-0.97,1.25-1.52
			c0.36-0.54,0.67-1.12,0.92-1.72c0.25-0.61,0.44-1.24,0.57-1.87c0.13-0.651,0.19-1.311,0.19-1.961
			C242.38,417.216,242.32,416.556,242.19,415.916z"/>
	</g>
</g>
<g>
	<g>
		<path d="M438.059,201.853l-49.035-26.694c14.884-22.88,26.557-50.428,26.557-80.56C415.581,42.437,373.145,0,320.983,0
			c-52.162,0-94.599,42.437-94.599,94.598c0,30.497,12.142,58.479,27.447,81.637l-57.529,39.506L83.504,154.336
			c-3.779-2.058-8.54-1.501-11.771,1.627c-1.996,1.933-3.01,4.668-3.01,7.446v274.25c0,3.663,2.002,7.032,5.219,8.783
			l117.924,64.413c1.01,0.518,3.186,1.148,5.042,1.147c1.76-0.001,4.812-0.504,6.403-1.519l112.387-77.928l112.798,61.404
			c1.492,0.813,3.138,1.217,4.781,1.217c2.595,0,5.188-1.009,7.164-3.018c1.884-1.915,2.836-4.562,2.836-7.249V210.635
			C443.278,206.973,441.276,203.603,438.059,201.853z M186.909,485.166l-18.018-9.809c0.072-0.484,0.11-172.864,0.11-172.864
			c0-5.523-4.477-10-10-10s-10,4.477-10,10v162.036l-60.278-32.813V179.949l98.185,53.45V485.166z M305.094,415.574l-98.185,67.424
			V232.72l15.476-10.628V380.87c0,5.523,4.477,10,10,10s10-4.477,10-10V209.491c0-0.369-0.021-0.732-0.06-1.091l23.254-15.968
			c14.53,18.382,29.813,32.488,39.516,40.687V415.574z M246.385,94.598C246.384,53.465,279.849,20,320.983,20
			c41.134,0,74.598,33.465,74.598,74.598c0,59.604-56.003,110.464-74.571,125.686C302.452,204.955,246.385,153.74,246.385,94.598z
			 M325.092,242.126c0.608-0.274,29.077-21.052,52.197-50.585l45.988,25.036v251.768l-98.184-53.449V242.126z"/>
	</g>
</g>
<g>
	<g>
		<path d="M388.326,315.737l11.436-11.436c3.905-3.905,3.905-10.237,0-14.142s-10.235-3.905-14.142,0l-11.435,11.436l-11.436-11.436
			c-3.906-3.905-10.236-3.905-14.143,0c-3.905,3.905-3.905,10.237,0,14.142l11.436,11.436l-11.436,11.436
			c-3.905,3.905-3.905,10.237,0,14.142c1.953,1.953,4.512,2.929,7.071,2.929c2.559,0,5.118-0.977,7.071-2.929l11.436-11.436
			l11.436,11.436c1.953,1.953,4.512,2.929,7.071,2.929c2.56,0,5.118-0.977,7.071-2.929c3.905-3.905,3.905-10.237,0-14.142
			L388.326,315.737z"/>
	</g>
</g>
<g>
</g>
<g>
</g>
<g>
</g>
<g>
</g>
<g>
</g>
<g>
</g>
<g>
</g>
<g>
</g>
<g>
</g>
<g>
</g>
<g>
</g>
<g>
</g>
<g>
</g>
<g>
</g>
<g>
</g>
</svg>
