<?xml version="1.0" encoding="iso-8859-1"?>
<!-- Generator: Adobe Illustrator 19.0.0, SVG Export Plug-In . SVG Version: 6.00 Build 0)  -->
<svg version="1.1" id="Capa_1" xmlns="http://www.w3.org/2000/svg" xmlns:xlink="http://www.w3.org/1999/xlink" x="0px" y="0px"
	 viewBox="0 0 512 512" style="enable-background:new 0 0 512 512;" xml:space="preserve">
<g>
	<g>
		<path d="M358.98,450.84c-0.13-0.64-0.32-1.27-0.57-1.87c-0.25-0.61-0.56-1.189-0.92-1.729c-0.36-0.551-0.78-1.061-1.24-1.521
			c-0.46-0.46-0.97-0.88-1.52-1.24c-0.54-0.36-1.13-0.67-1.73-0.92c-0.6-0.25-1.23-0.439-1.87-0.569c-1.29-0.261-2.62-0.261-3.91,0
			c-0.64,0.129-1.26,0.319-1.87,0.569c-0.6,0.25-1.18,0.561-1.72,0.92c-0.55,0.36-1.06,0.78-1.53,1.24
			c-0.46,0.46-0.87,0.97-1.24,1.521c-0.36,0.54-0.67,1.119-0.92,1.729c-0.25,0.599-0.44,1.23-0.57,1.87
			c-0.13,0.639-0.19,1.3-0.19,1.95c0,0.65,0.06,1.31,0.19,1.96c0.13,0.63,0.32,1.26,0.57,1.87c0.25,0.6,0.56,1.18,0.92,1.72
			c0.37,0.55,0.78,1.06,1.24,1.52c0.47,0.46,0.98,0.881,1.53,1.25c0.54,0.36,1.12,0.671,1.72,0.921c0.61,0.25,1.23,0.439,1.87,0.569
			c0.65,0.129,1.3,0.19,1.96,0.19c0.65,0,1.31-0.061,1.95-0.19c0.64-0.13,1.27-0.319,1.87-0.569c0.6-0.25,1.19-0.561,1.73-0.921
			c0.55-0.369,1.06-0.779,1.52-1.25c0.46-0.46,0.88-0.97,1.24-1.52c0.36-0.54,0.67-1.12,0.92-1.72c0.25-0.61,0.44-1.24,0.57-1.87
			c0.13-0.65,0.2-1.31,0.2-1.96C359.18,452.14,359.11,451.48,358.98,450.84z"/>
	</g>
</g>
<g>
	<g>
		<path d="M432.057,189.572c-25.172,0-46.37,17.336-52.285,40.696h-23.644c20.73-34.881,31.198-68.018,31.198-98.943
			C387.326,58.912,328.413,0,256,0S124.674,58.912,124.674,131.325c0,30.838,10.518,63.976,31.343,98.943h-23.789
			c-5.916-23.36-27.113-40.696-52.285-40.696c-29.738,0-53.931,24.193-53.931,53.932v209.579C26.012,485.57,52.442,512,84.93,512
			h342.14c31.946,0,58.175-25.742,58.896-57.569c0.013-0.206,0.021-0.413,0.021-0.621V243.504h0.001
			C485.988,213.766,461.795,189.572,432.057,189.572z M144.675,131.325C144.674,69.94,194.615,20,256,20
			s111.326,49.94,111.326,111.325c0,81.498-86.81,164.92-111.313,186.838C231.511,296.173,144.675,212.49,144.675,131.325z
			 M301.139,331.423c0,24.89-20.25,45.14-45.139,45.14c-24.889,0-45.139-20.25-45.139-45.14c0-8.191,2.183-16.076,6.266-22.965
			c18.032,18.647,31.658,29.975,32.502,30.673c1.849,1.528,4.109,2.292,6.371,2.292c2.252,0,4.505-0.759,6.351-2.275
			c0.845-0.695,14.503-11.988,32.567-30.614C298.972,315.406,301.139,323.264,301.139,331.423z M46.012,243.504
			c0-18.71,15.221-33.932,33.931-33.932c18.709,0,33.931,15.222,33.931,33.932v167.398c-9.274-7.527-21.084-12.041-33.931-12.041
			s-24.657,4.514-33.931,12.041V243.504z M427.07,492H84.93c-21.459,0-38.917-17.458-38.917-38.917v-0.29
			c0-18.71,15.221-33.932,33.931-33.932c18.709,0,33.931,15.222,33.931,33.932c0,5.522,4.477,10,10,10
			c0.027,0,0.054-0.002,0.081-0.002c0.027,0,0.054,0.002,0.081,0.002h188.142c5.523,0,10-4.478,10-10c0-5.522-4.477-10-10-10
			H133.874V250.269h35.043c5.674,8.184,11.886,16.459,18.641,24.82c5.244,6.492,10.476,12.608,15.553,18.293
			c-7.952,11.018-12.25,24.229-12.25,38.041c0,35.918,29.221,65.14,65.139,65.14c35.918,0,65.139-29.222,65.139-65.14
			c0-13.77-4.275-26.949-12.185-37.951c5.054-5.648,10.262-11.723,15.482-18.174c6.822-8.429,13.09-16.774,18.809-25.03h34.881
			V453.81c0,5.522,4.477,10,10,10s10-4.478,10-10c0-18.709,15.221-33.931,33.931-33.931c18.601,0,33.751,15.045,33.927,33.604
			C465.769,474.731,448.336,492,427.07,492z M465.988,411.92c-9.274-7.527-21.085-12.041-33.931-12.041
			c-12.847,0-24.657,4.514-33.931,12.04V243.504c0-18.71,15.221-33.932,33.931-33.932s33.931,15.222,33.931,33.932V411.92z"/>
	</g>
</g>
<g>
	<g>
		<path d="M256,40.163c-50.267,0-91.163,40.896-91.163,91.162c0,50.268,40.895,91.163,91.163,91.163s91.163-40.895,91.163-91.163
			C347.163,81.058,306.267,40.163,256,40.163z M256,202.488c-39.239,0-71.163-31.924-71.163-71.163
			c0-39.239,31.923-71.162,71.163-71.162s71.163,31.923,71.163,71.162C327.163,170.564,295.239,202.488,256,202.488z"/>
	</g>
</g>
<g>
</g>
<g>
</g>
<g>
</g>
<g>
</g>
<g>
</g>
<g>
</g>
<g>
</g>
<g>
</g>
<g>
</g>
<g>
</g>
<g>
</g>
<g>
</g>
<g>
</g>
<g>
</g>
<g>
</g>
</svg>
