<?xml version="1.0" encoding="iso-8859-1"?>
<!-- Generator: Adobe Illustrator 19.0.0, SVG Export Plug-In . SVG Version: 6.00 Build 0)  -->
<svg version="1.1" id="Capa_1" xmlns="http://www.w3.org/2000/svg" xmlns:xlink="http://www.w3.org/1999/xlink" x="0px" y="0px"
	 viewBox="0 0 512 512" style="enable-background:new 0 0 512 512;" xml:space="preserve">
<g>
	<g>
		<path d="M197.3,162.03c-0.13-0.64-0.32-1.269-0.57-1.869c-0.25-0.6-0.56-1.18-0.92-1.73c-0.37-0.541-0.79-1.05-1.25-1.52
			c-0.46-0.46-0.97-0.87-1.52-1.24c-0.54-0.36-1.12-0.67-1.72-0.92c-0.61-0.25-1.24-0.44-1.87-0.57c-1.29-0.26-2.62-0.26-3.91,0
			c-0.64,0.13-1.27,0.32-1.87,0.57c-0.61,0.25-1.19,0.56-1.73,0.92c-0.55,0.37-1.06,0.78-1.52,1.24c-0.46,0.47-0.88,0.98-1.24,1.52
			c-0.36,0.549-0.67,1.129-0.92,1.73c-0.25,0.599-0.44,1.229-0.57,1.869c-0.13,0.65-0.2,1.301-0.2,1.961
			c0,0.649,0.07,1.309,0.2,1.949c0.13,0.64,0.32,1.27,0.57,1.87c0.25,0.6,0.56,1.18,0.92,1.73c0.36,0.54,0.78,1.06,1.24,1.52
			c0.46,0.46,0.97,0.88,1.52,1.24c0.54,0.361,1.12,0.67,1.73,0.92c0.6,0.25,1.23,0.44,1.87,0.57c0.64,0.13,1.3,0.19,1.95,0.19
			c0.65,0,1.31-0.06,1.96-0.19c0.63-0.129,1.26-0.32,1.87-0.57c0.6-0.25,1.18-0.56,1.72-0.92c0.55-0.36,1.06-0.78,1.52-1.24
			c1.86-1.87,2.93-4.439,2.93-7.069C197.49,163.331,197.43,162.68,197.3,162.03z"/>
	</g>
</g>
<g>
	<g>
		<path d="M305.981,344.725c-5.485-0.627-10.438,3.333-11.053,8.822c-2.773,24.708-23.651,43.34-48.564,43.34
			c-26.949,0-48.873-21.924-48.873-48.872V198.933c0-5.522-4.477-10-10-10c-5.523,0-10,4.478-10,10v149.082
			c0,37.977,30.896,68.872,68.873,68.872c35.107,0,64.53-26.272,68.439-61.109C315.419,350.289,311.469,345.341,305.981,344.725z"/>
	</g>
</g>
<g>
	<g>
		<path d="M419.621,182.926h-9.273v-18.94c0-3.937-0.142-7.913-0.42-11.819c0-0.001,0-0.003,0-0.004
			c-2.942-41.274-21.262-79.62-51.583-107.973C327.873,15.693,288.104,0,246.364,0h-0.001C155.942,0,82.379,73.563,82.379,163.984
			v184.03C82.379,438.436,155.942,512,246.364,512c41.741,0,81.509-15.693,111.981-44.189
			c30.321-28.353,48.64-66.699,51.583-107.973c0,0,0-0.003,0-0.004c0.278-3.906,0.42-7.883,0.42-11.819v-18.94h9.273
			c5.522,0,10-4.477,10-10V192.926C429.621,187.403,425.144,182.926,419.621,182.926z M390.347,163.986v18.94h-35.064v-18.94
			c0-0.369-0.002-0.738-0.006-1.107h35.066C390.346,163.248,390.347,163.617,390.347,163.986z M256.364,20.348
			c67.148,4.68,122.654,56.082,132.446,122.53h-35.574c-9.283-47.396-48.815-82.987-96.872-87.359V20.348z M236.363,491.657
			c-74.743-5.155-133.984-67.611-133.984-143.642v-184.03c0-76.03,59.241-138.486,133.985-143.641v35.177
			c-55.387,5.067-98.92,51.778-98.92,108.464v184.031c0,56.686,43.533,103.397,98.92,108.464L236.363,491.657z M246.363,436.935
			c-49.031,0-88.92-39.889-88.92-88.919V163.984c0-49.03,39.889-88.919,88.92-88.919c45.325,0,83.312,33.932,88.362,78.928
			c0.37,3.298,0.558,6.66,0.558,9.992v18.94h-8.772c-5.522,0-10,4.478-10,10v126.148c0,5.523,4.478,10,10,10h8.772v18.942
			c0,3.332-0.188,6.694-0.558,9.992C329.675,403.003,291.688,436.935,246.363,436.935z M256.364,491.652v-35.171
			c48.057-4.372,87.588-39.963,96.872-87.359h35.574C378.976,435.852,327.553,486.691,256.364,491.652z M390.349,348.015
			L390.349,348.015c-0.001,0.369-0.002,0.738-0.005,1.108h-35.066c0.004-0.369,0.006-0.738,0.006-1.108v-18.94h35.065V348.015z
			 M336.511,309.074V202.926h73.11v106.148H336.511z"/>
	</g>
</g>
<g>
</g>
<g>
</g>
<g>
</g>
<g>
</g>
<g>
</g>
<g>
</g>
<g>
</g>
<g>
</g>
<g>
</g>
<g>
</g>
<g>
</g>
<g>
</g>
<g>
</g>
<g>
</g>
<g>
</g>
</svg>
