<?xml version="1.0" encoding="iso-8859-1"?>
<!-- Generator: Adobe Illustrator 19.0.0, SVG Export Plug-In . SVG Version: 6.00 Build 0)  -->
<svg version="1.1" id="Capa_1" xmlns="http://www.w3.org/2000/svg" xmlns:xlink="http://www.w3.org/1999/xlink" x="0px" y="0px"
	 viewBox="0 0 511.997 511.997" style="enable-background:new 0 0 511.997 511.997;" xml:space="preserve">
<g>
	<g>
		<path d="M404.318,363.211H218.121c-5.523,0-10,4.477-10,10v83.52c0,8.387,6.823,15.209,15.209,15.209h175.779
			c8.386,0,15.209-6.822,15.209-15.209v-83.52C414.318,367.688,409.841,363.211,404.318,363.211z M394.318,451.94H228.121v-68.728
			h166.197V451.94z"/>
	</g>
</g>
<g>
	<g>
		<path d="M411.389,311.91c-0.13-0.641-0.32-1.261-0.57-1.87c-0.25-0.601-0.56-1.181-0.92-1.721c-0.37-0.55-0.79-1.06-1.25-1.52
			c-0.46-0.47-0.97-0.88-1.52-1.25c-0.54-0.36-1.12-0.67-1.72-0.92c-0.61-0.25-1.24-0.44-1.87-0.57c-1.29-0.26-2.62-0.26-3.91,0
			c-0.64,0.13-1.27,0.32-1.87,0.57c-0.61,0.25-1.19,0.56-1.73,0.92c-0.55,0.37-1.06,0.78-1.52,1.25c-0.46,0.46-0.88,0.97-1.24,1.52
			c-0.36,0.54-0.67,1.121-0.92,1.721c-0.25,0.609-0.44,1.229-0.57,1.87c-0.13,0.649-0.2,1.31-0.2,1.96c0,0.649,0.07,1.309,0.2,1.949
			c0.13,0.641,0.32,1.27,0.57,1.87c0.25,0.61,0.56,1.19,0.92,1.73c0.36,0.55,0.78,1.06,1.24,1.52c0.46,0.46,0.97,0.88,1.52,1.24
			c0.54,0.36,1.12,0.67,1.73,0.92c0.6,0.25,1.23,0.44,1.87,0.57c0.64,0.129,1.3,0.189,1.95,0.189c0.65,0,1.31-0.059,1.96-0.189
			c0.63-0.13,1.26-0.32,1.87-0.57c0.6-0.25,1.18-0.56,1.72-0.92c0.55-0.36,1.06-0.78,1.52-1.24c0.46-0.46,0.88-0.97,1.25-1.52
			c0.36-0.54,0.67-1.12,0.92-1.73c0.25-0.599,0.44-1.229,0.57-1.87c0.13-0.639,0.19-1.3,0.19-1.949
			C411.579,313.219,411.519,312.559,411.389,311.91z"/>
	</g>
</g>
<g>
	<g>
		<path d="M449.245,267.579c3.259-5.584,5.13-12.079,5.13-19.014c0-20.77-16.897-37.666-37.667-37.666h-54.94
			c0.369-0.35,0.737-0.701,1.101-1.06c13.84-13.654,21.462-31.923,21.462-51.44c0-15.861-4.995-30.95-14.444-43.637
			c-0.003-0.004-0.006-0.008-0.009-0.012L319.23,46.964c-1.888-2.526-4.857-4.015-8.011-4.015s-6.123,1.488-8.011,4.015
			l-50.657,67.798c-9.45,12.684-14.445,27.773-14.445,43.638c0,19.517,7.622,37.785,21.462,51.439
			c0.363,0.359,0.732,0.71,1.102,1.061h-23.893c-5.523,0-10,4.478-10,10v45.413h-2.222c-3.913-18.21-18.283-32.581-36.493-36.493V10
			c0-5.523-4.477-10-10-10h-65.23C82.39,0,57.622,24.767,57.622,55.209v175.893c0,30.443,24.767,55.21,55.209,55.21h18.738
			c3.913,18.21,18.283,32.579,36.492,36.492v133.984c0,30.442,24.767,55.209,55.209,55.209h175.894
			c30.442,0,55.209-24.767,55.209-55.209V276.313C454.375,272.559,452.305,269.289,449.245,267.579z M258.106,158.399
			c0-11.526,3.625-22.483,10.475-31.678l42.638-57.066l42.635,57.062c6.854,9.206,10.478,20.161,10.478,31.682
			c0,12.154-4.202,23.356-11.243,32.264c0.022-0.554,0.036-1.111,0.036-1.671c0-9.1-2.856-17.741-8.259-24.989
			c-0.003-0.003-0.005-0.006-0.007-0.01l-25.629-34.298c-1.888-2.526-4.857-4.014-8.011-4.014s-6.123,1.487-8.011,4.015
			l-25.619,34.285c-5.414,7.261-8.276,15.909-8.276,25.011c0,0.56,0.014,1.116,0.036,1.671
			C262.308,181.756,258.106,170.554,258.106,158.399z M333.125,188.992c0,12.079-9.827,21.906-21.906,21.906
			c-12.079,0-21.907-9.826-21.907-21.905c0-4.76,1.49-9.274,4.304-13.048l17.603-23.557l17.612,23.568
			C331.641,179.725,333.125,184.232,333.125,188.992z M246.778,230.899H375.66v35.413H246.778V230.899z M131.57,266.312h-18.738
			c-19.414,0.001-35.209-15.794-35.209-35.21V55.209C77.622,35.795,93.418,20,112.832,20h55.23v209.819
			C149.851,233.732,135.481,248.102,131.57,266.312z M178.062,303.867c-15.194-0.001-27.554-12.361-27.554-27.554
			s12.36-27.555,27.554-27.555c15.193,0,27.554,12.361,27.554,27.555C205.617,291.506,193.256,303.867,178.062,303.867z
			 M434.375,456.789c0,19.414-15.794,35.209-35.209,35.209H223.27c-19.415,0-35.209-15.795-35.209-35.209V323.866h179.8
			c5.523,0,10-4.478,10-10c0-5.523-4.477-10-10-10H216.799c3.695-5.179,6.375-11.128,7.756-17.554h209.82V456.789z M416.708,266.312
			H395.66v-35.413h21.048c9.742,0,17.667,7.925,17.667,17.746C434.375,258.386,426.45,266.312,416.708,266.312z"/>
	</g>
</g>
<g>
</g>
<g>
</g>
<g>
</g>
<g>
</g>
<g>
</g>
<g>
</g>
<g>
</g>
<g>
</g>
<g>
</g>
<g>
</g>
<g>
</g>
<g>
</g>
<g>
</g>
<g>
</g>
<g>
</g>
</svg>
