<?xml version="1.0" encoding="iso-8859-1"?>
<!-- Generator: Adobe Illustrator 19.0.0, SVG Export Plug-In . SVG Version: 6.00 Build 0)  -->
<svg version="1.1" id="Capa_1" xmlns="http://www.w3.org/2000/svg" xmlns:xlink="http://www.w3.org/1999/xlink" x="0px" y="0px"
	 viewBox="0 0 512 512" style="enable-background:new 0 0 512 512;" xml:space="preserve">
<g>
	<g>
		<path d="M398.93,225.448c-0.13-0.641-0.32-1.27-0.57-1.87c-0.25-0.61-0.56-1.19-0.92-1.73c-0.359-0.55-0.779-1.06-1.239-1.52
			c-0.461-0.46-0.971-0.88-1.521-1.24c-0.54-0.36-1.12-0.67-1.729-0.92c-0.6-0.25-1.23-0.44-1.87-0.57c-1.29-0.26-2.61-0.26-3.91,0
			c-0.63,0.13-1.26,0.32-1.87,0.57c-0.6,0.25-1.18,0.56-1.72,0.92c-0.55,0.36-1.061,0.78-1.521,1.24c-0.46,0.46-0.88,0.97-1.25,1.52
			c-0.359,0.539-0.67,1.12-0.92,1.73c-0.25,0.599-0.439,1.229-0.57,1.87c-0.129,0.639-0.189,1.3-0.189,1.949
			c0,0.65,0.059,1.311,0.189,1.96c0.131,0.631,0.32,1.261,0.57,1.87c0.25,0.601,0.561,1.181,0.92,1.721
			c0.37,0.55,0.79,1.06,1.25,1.52c1.86,1.87,4.44,2.93,7.07,2.93c0.65,0,1.309-0.059,1.951-0.19c0.639-0.129,1.269-0.32,1.87-0.57
			c0.609-0.25,1.189-0.56,1.729-0.92c0.55-0.37,1.061-0.78,1.521-1.25c0.46-0.46,0.88-0.97,1.239-1.52
			c0.36-0.54,0.67-1.12,0.92-1.721c0.25-0.609,0.44-1.239,0.57-1.87c0.13-0.649,0.2-1.31,0.2-1.96
			C399.13,226.748,399.06,226.088,398.93,225.448z"/>
	</g>
</g>
<g>
	<g>
		<path d="M457.489,324.335v-0.002c5.522,0,10-4.478,10-10v-42.565c0-5.522-4.478-10-10-10h-3.212v-43.063
			c0-24.169-12.919-46.835-33.716-59.153c-14.414-8.537-23.369-24.606-23.369-41.937V10c0-5.523-4.478-10-10-10h-64.916
			c-5.522,0-10,4.477-10,10v2.516c0,31.031-25.245,56.276-56.276,56.276s-56.276-25.245-56.276-56.276V10c0-5.523-4.477-10-10-10
			h-64.915c-5.523,0-10,4.477-10,10v107.929c0,17.033-9.075,33.055-23.684,41.812c-20.603,12.351-33.401,34.944-33.401,58.966
			v43.063h-3.213c-5.523,0-10,4.478-10,10v42.565c0,5.522,4.477,10,10,10h3.212v37.116h-3.212c-5.523,0-10,4.478-10,10v42.564
			c0,5.522,4.477,10,10,10h3.212v46.646c0,22.794,18.545,41.339,41.339,41.339h313.876c22.794,0,41.339-18.545,41.339-41.339
			v-46.646h3.212c5.522,0,10-4.478,10-10v-42.564c0-5.522-4.478-10-10-10h-3.212v-37.116H457.489z M332.276,87.838V20h44.916v97.616
			c0,24.361,12.713,47.024,33.178,59.146c14.746,8.734,23.907,24.807,23.907,41.944v43.063H307.368v-2.293c0-5.522-4.478-10-10-10
			H266v-12.074h86.075c5.522,0,10-4.478,10-10c0-5.522-4.478-10-10-10H266v-53.943C303.35,158.546,332.276,126.507,332.276,87.838z
			 M297.368,349.156H266v-12.53h31.368c5.522,0,10-4.478,10-10v-2.293h126.909v37.116H307.368v-2.293
			C307.368,353.634,302.89,349.156,297.368,349.156z M214.632,336.626H246v12.53h-31.368c-5.523,0-10,4.478-10,10v2.293H77.723
			v-37.116h126.909v2.293C204.632,332.148,209.109,336.626,214.632,336.626z M224.632,316.626v-47.15h62.736v47.15H224.632z
			 M224.632,369.157h62.736v47.15h-62.736V369.157z M199.724,63.952C213.68,79.21,233.74,88.792,256,88.792
			c22.259,0,42.319-9.582,56.276-24.84v23.886c0,31.031-25.245,56.276-56.276,56.276s-56.276-25.245-56.276-56.276V63.952z
			 M101.407,176.895c20.603-12.351,33.401-34.944,33.401-58.966V20h44.915v67.838c0,38.669,28.926,70.708,66.276,75.621v53.943
			H77.745C78.195,200.858,87.172,185.427,101.407,176.895z M77.723,237.401H246v12.074h-31.368c-5.523,0-10,4.477-10,10v2.293
			H77.723V237.401z M64.511,281.768h140.121v22.565H64.511V281.768z M64.511,404.014V381.45h140.121v22.564H64.511z M99.062,491.997
			c-11.766,0.001-21.339-9.571-21.339-21.338v-46.646h126.909v2.293c0,5.522,4.477,10,10,10H246v18.847
			c-25.23,23.79-58.051,36.844-92.879,36.844H99.062z M229.546,491.998c9.374-5.307,18.238-11.62,26.454-18.89
			c8.216,7.269,17.08,13.583,26.454,18.89H229.546z M412.938,491.998h-54.06c-34.828,0-67.649-13.054-92.879-36.844v-18.847h31.368
			c5.522,0,10-4.478,10-10v-2.293h126.909v46.645h0.001C434.277,482.426,424.705,491.998,412.938,491.998z M447.489,404.013H307.368
			v-22.564h140.121V404.013z M447.489,304.333H307.368v-22.565h140.121V304.333z"/>
	</g>
</g>
<g>
</g>
<g>
</g>
<g>
</g>
<g>
</g>
<g>
</g>
<g>
</g>
<g>
</g>
<g>
</g>
<g>
</g>
<g>
</g>
<g>
</g>
<g>
</g>
<g>
</g>
<g>
</g>
<g>
</g>
</svg>
