<?xml version="1.0" encoding="iso-8859-1"?>
<!-- Generator: Adobe Illustrator 19.0.0, SVG Export Plug-In . SVG Version: 6.00 Build 0)  -->
<svg version="1.1" id="Capa_1" xmlns="http://www.w3.org/2000/svg" xmlns:xlink="http://www.w3.org/1999/xlink" x="0px" y="0px"
	 viewBox="0 0 512 512" style="enable-background:new 0 0 512 512;" xml:space="preserve">
<g>
	<g>
		<path d="M442.78,148.891c-0.13-0.63-0.32-1.26-0.57-1.87c-0.25-0.6-0.56-1.18-0.92-1.72c-0.37-0.55-0.79-1.059-1.25-1.53
			c-0.46-0.46-0.97-0.87-1.52-1.239c-0.54-0.36-1.12-0.671-1.72-0.921c-0.61-0.25-1.24-0.439-1.87-0.569
			c-1.29-0.26-2.62-0.26-3.91,0c-0.64,0.13-1.27,0.319-1.87,0.569c-0.61,0.25-1.19,0.561-1.73,0.921
			c-0.55,0.369-1.06,0.779-1.52,1.239c-0.46,0.47-0.88,0.98-1.24,1.53c-0.36,0.54-0.67,1.12-0.92,1.72
			c-0.25,0.61-0.44,1.24-0.57,1.87c-0.13,0.65-0.2,1.311-0.2,1.96c0,2.63,1.07,5.21,2.93,7.07c0.46,0.46,0.97,0.88,1.52,1.24
			c0.54,0.359,1.12,0.67,1.73,0.92c0.6,0.25,1.23,0.439,1.87,0.569c0.64,0.131,1.3,0.2,1.95,0.2c0.65,0,1.31-0.07,1.96-0.2
			c0.63-0.13,1.26-0.319,1.87-0.569c0.6-0.25,1.18-0.561,1.72-0.92c0.55-0.36,1.06-0.78,1.52-1.24c1.86-1.86,2.93-4.44,2.93-7.07
			C442.97,150.191,442.91,149.541,442.78,148.891z"/>
	</g>
</g>
<g>
	<g>
		<path d="M160.93,431.181c-0.12-0.63-0.32-1.26-0.57-1.87c-0.25-0.6-0.56-1.18-0.92-1.72c-0.36-0.55-0.78-1.06-1.24-1.521
			c-0.46-0.46-0.97-0.88-1.52-1.25c-0.54-0.359-1.12-0.67-1.73-0.92c-0.6-0.25-1.23-0.439-1.87-0.569c-1.29-0.261-2.62-0.261-3.91,0
			c-0.63,0.13-1.26,0.319-1.87,0.569c-0.6,0.25-1.18,0.561-1.72,0.92c-0.55,0.37-1.06,0.79-1.52,1.25
			c-0.46,0.461-0.88,0.971-1.24,1.521c-0.36,0.54-0.67,1.12-0.92,1.72c-0.25,0.61-0.45,1.24-0.57,1.87
			c-0.13,0.651-0.2,1.311-0.2,1.96c0,0.65,0.07,1.31,0.2,1.95c0.12,0.64,0.32,1.269,0.57,1.87c0.25,0.6,0.56,1.19,0.92,1.73
			s0.779,1.06,1.24,1.52c0.46,0.46,0.97,0.88,1.52,1.24c0.54,0.36,1.12,0.67,1.72,0.92c0.61,0.25,1.24,0.439,1.87,0.569
			c0.65,0.13,1.31,0.2,1.96,0.2c0.65,0,1.31-0.071,1.95-0.2c0.64-0.129,1.27-0.319,1.87-0.569c0.61-0.25,1.19-0.561,1.73-0.92
			c0.55-0.36,1.06-0.78,1.52-1.24c0.46-0.46,0.88-0.98,1.24-1.52c0.36-0.541,0.67-1.13,0.92-1.73c0.25-0.6,0.45-1.23,0.57-1.87
			c0.13-0.639,0.2-1.3,0.2-1.95C161.13,432.492,161.06,431.831,160.93,431.181z"/>
	</g>
</g>
<g>
	<g>
		<path d="M501.54,183.343c-0.001-0.004-0.003-0.008-0.004-0.012c-12.03-40.703-34.34-78.17-64.519-108.349
			c-30.174-30.173-67.633-52.481-108.328-64.512c-0.011-0.003-0.021-0.007-0.032-0.01C305.156,3.52,280.71,0,256,0
			c-24.71,0-49.156,3.52-72.656,10.46c-0.011,0.003-0.021,0.007-0.032,0.01c-40.696,12.031-78.154,34.339-108.329,64.512
			c-30.179,30.179-52.489,67.646-64.519,108.349c-0.001,0.004-0.002,0.007-0.004,0.011C3.52,206.842,0,231.287,0,256
			s3.52,49.158,10.46,72.657c0.001,0.002,0.001,0.003,0.002,0.005c12.03,40.705,34.341,78.175,64.521,108.355
			c30.174,30.173,67.633,52.481,108.329,64.512c0.011,0.003,0.021,0.007,0.032,0.01C206.844,508.48,231.29,512,256,512
			s49.156-3.52,72.656-10.46c0.011-0.003,0.021-0.007,0.032-0.01c40.696-12.031,78.154-34.339,108.328-64.512
			c30.181-30.181,52.492-67.65,64.521-108.355c0-0.002,0.001-0.003,0.002-0.005C508.48,305.158,512,280.713,512,256
			S508.48,206.842,501.54,183.343z M327.322,73.556c25.009,9.815,48.078,24.893,67.154,43.969c2.422,2.423,4.821,4.952,7.129,7.518
			c1.975,2.195,4.7,3.313,7.438,3.313c2.382,0,4.773-0.847,6.684-2.565c4.106-3.693,4.441-10.016,0.747-14.122
			c-2.543-2.827-5.187-5.615-7.857-8.285c-22.04-22.04-48.922-39.241-78.043-49.989l3.269-20.262
			c68.174,23.722,121.301,76.849,145.027,145.023l-104.12,16.797c-12.755-24.823-32.881-44.948-57.703-57.704L327.322,73.556z
			 M369.501,256.001c0,15.988-3.258,31.44-9.684,45.929c-0.001,0.002-0.001,0.004-0.002,0.005c0,0,0,0,0,0.001
			c-11.456,25.869-32.012,46.424-57.88,57.88c-0.002,0.001-0.004,0.001-0.006,0.002c-14.49,6.427-29.943,9.685-45.929,9.685
			s-31.439-3.259-45.929-9.686c-0.002-0.001-0.004-0.002-0.006-0.002c-25.869-11.456-46.424-32.012-57.88-57.88
			c-0.001-0.002-0.001-0.004-0.002-0.006c-6.426-14.488-9.684-29.941-9.684-45.929s3.258-31.44,9.684-45.929
			c0.001-0.002,0.001-0.004,0.002-0.005c0,0,0,0,0-0.001c11.456-25.869,32.012-46.424,57.88-57.88
			c0.002-0.001,0.004-0.001,0.006-0.002c14.49-6.427,29.943-9.685,45.929-9.685c15.986,0,31.44,3.258,45.929,9.685
			c0.002,0.001,0.004,0.002,0.006,0.003c25.869,11.456,46.424,32.012,57.88,57.88c0.001,0.002,0.001,0.004,0.002,0.006
			C366.243,224.56,369.501,240.013,369.501,256.001z M256,20c19.837,0,39.481,2.457,58.523,7.312l-16.447,101.954
			c-13.507-4.496-27.609-6.768-42.076-6.768s-28.569,2.272-42.076,6.768L197.477,27.312C216.519,22.457,236.163,20,256,20z
			 M184.678,73.555l10.275,63.694c-24.823,12.756-44.948,32.881-57.703,57.704l-63.695-10.275
			c9.815-25.008,24.902-48.084,43.97-67.153C136.589,98.462,159.674,83.368,184.678,73.555z M178.157,33.131l3.269,20.266
			c-29.112,10.744-56.017,27.96-78.044,49.984c-22.032,22.033-39.239,48.927-49.986,78.044l-20.266-3.269
			C56.856,109.982,109.983,56.855,178.157,33.131z M20,256c0-19.839,2.457-39.483,7.312-58.523l101.954,16.447
			c-4.496,13.507-6.768,27.608-6.768,42.076c0,14.468,2.272,28.569,6.768,42.076L27.312,314.523C22.457,295.483,20,275.839,20,256z
			 M180.605,463.684l-2.45,15.188C109.983,455.145,56.856,402.018,33.13,333.844l20.264-3.269
			c10.75,29.121,27.952,56.006,49.989,78.044c3.323,3.323,6.803,6.581,10.343,9.685c1.898,1.664,4.247,2.48,6.588,2.48
			c2.78,0,5.547-1.153,7.523-3.408c3.641-4.152,3.226-10.471-0.928-14.111c-3.212-2.816-6.371-5.773-9.385-8.788
			c-19.073-19.073-34.153-42.144-43.969-67.153l63.693-10.275c12.755,24.823,32.881,44.948,57.703,57.704L180.605,463.684z M256,492
			c-19.837,0-39.481-2.457-58.523-7.312l16.447-101.954c13.507,4.496,27.609,6.769,42.076,6.769s28.569-2.272,42.076-6.769
			l16.447,101.954C295.481,489.543,275.837,492,256,492z M327.321,438.444l-10.274-63.693
			c24.823-12.756,44.948-32.881,57.703-57.704l63.692,10.275c-9.816,25.013-24.884,48.071-43.967,67.153
			C375.402,413.547,352.33,428.63,327.321,438.444z M333.843,478.869l-2.45-15.188l-0.819-5.077
			c29.119-10.749,56.007-27.952,78.043-49.987c22.048-22.046,39.237-48.915,49.989-78.042l20.264,3.269
			C455.144,402.018,402.017,455.145,333.843,478.869z M484.688,314.523l-101.954-16.447c4.496-13.507,6.768-27.608,6.768-42.076
			c0-14.468-2.272-28.569-6.768-42.076l101.954-16.447C489.543,216.517,492,236.161,492,256S489.543,295.483,484.688,314.523z"/>
	</g>
</g>
<g>
</g>
<g>
</g>
<g>
</g>
<g>
</g>
<g>
</g>
<g>
</g>
<g>
</g>
<g>
</g>
<g>
</g>
<g>
</g>
<g>
</g>
<g>
</g>
<g>
</g>
<g>
</g>
<g>
</g>
</svg>
