<?xml version="1.0" encoding="iso-8859-1"?>
<!-- Generator: Adobe Illustrator 19.0.0, SVG Export Plug-In . SVG Version: 6.00 Build 0)  -->
<svg version="1.1" id="Capa_1" xmlns="http://www.w3.org/2000/svg" xmlns:xlink="http://www.w3.org/1999/xlink" x="0px" y="0px"
	 viewBox="0 0 512 512" style="enable-background:new 0 0 512 512;" xml:space="preserve">
<g>
	<g>
		<path d="M408.814,213.099c-0.13-0.64-0.32-1.269-0.57-1.87c-0.25-0.609-0.56-1.189-0.92-1.729c-0.36-0.55-0.78-1.061-1.24-1.521
			c-0.46-0.46-0.97-0.88-1.52-1.239c-0.54-0.36-1.13-0.671-1.73-0.921c-0.6-0.25-1.23-0.439-1.87-0.569c-1.29-0.26-2.62-0.26-3.91,0
			c-0.64,0.13-1.27,0.319-1.87,0.569c-0.6,0.25-1.18,0.561-1.72,0.921c-0.55,0.359-1.06,0.779-1.53,1.239
			c-0.46,0.46-0.87,0.971-1.24,1.521c-0.36,0.54-0.67,1.12-0.92,1.729c-0.25,0.6-0.44,1.23-0.57,1.87s-0.19,1.3-0.19,1.95
			c0,0.65,0.06,1.31,0.19,1.96c0.13,0.63,0.32,1.26,0.57,1.87c0.25,0.6,0.56,1.18,0.92,1.72c0.37,0.55,0.78,1.061,1.24,1.521
			c0.47,0.46,0.98,0.88,1.53,1.25c0.54,0.359,1.12,0.67,1.72,0.92c0.61,0.25,1.23,0.439,1.87,0.569c0.65,0.13,1.31,0.19,1.96,0.19
			c0.65,0,1.31-0.059,1.95-0.19c0.64-0.13,1.27-0.319,1.87-0.569c0.6-0.25,1.18-0.561,1.73-0.92c0.54-0.37,1.06-0.79,1.52-1.25
			c0.46-0.46,0.88-0.971,1.24-1.521c0.36-0.54,0.67-1.12,0.92-1.72c0.25-0.61,0.44-1.24,0.57-1.87c0.13-0.65,0.2-1.31,0.2-1.96
			C409.014,214.399,408.944,213.74,408.814,213.099z"/>
	</g>
</g>
<g>
	<g>
		<path d="M509.045,194.459l-36.909-36.909c11.077-33.323,2.566-70.027-22.56-95.153c-25.125-25.125-61.83-33.636-95.152-22.559
			l-36.909-36.91c-3.905-3.904-10.237-3.904-14.143,0l-32.714,32.714c-1.875,1.876-2.929,4.419-2.929,7.071
			c0,2.652,1.054,5.195,2.929,7.071l10.447,10.446l-77.163,77.164c-16.18,16.181-16.18,42.508,0,58.688l5.853,5.853L48.566,363.164
			c-18.589,18.59-23.479,45.768-14.674,68.878L2.955,462.98c-1.941,1.941-2.999,4.597-2.925,7.341
			c0.074,2.745,1.273,5.339,3.317,7.173l35.595,31.948c1.908,1.712,4.295,2.558,6.677,2.558c2.649,0,5.291-1.047,7.254-3.114
			l28.658-30.179c6.823,2.4,14.077,3.652,21.524,3.652c17.284,0,33.533-6.73,45.754-18.952l161.229-161.229l5.853,5.853
			c8.09,8.09,18.717,12.135,29.344,12.135s21.254-4.045,29.344-12.135l77.163-77.163l10.447,10.447
			c1.875,1.875,4.419,2.929,7.071,2.929c2.652,0,5.196-1.054,7.071-2.929l32.713-32.714
			C512.95,204.696,512.95,198.364,509.045,194.459z M435.435,76.539c17.215,17.215,24.498,41.352,20.298,64.608L370.827,56.24
			C394.08,52.042,418.22,59.323,435.435,76.539z M45.065,488.063L24.56,469.659l19.719-19.718c1.338,1.63,2.766,3.211,4.288,4.733
			l8.733,8.733c1.929,1.929,3.959,3.721,6.078,5.372L45.065,488.063z M134.667,449.264c-8.443,8.444-19.67,13.095-31.612,13.095
			c-6.805,0-13.377-1.512-19.336-4.374c-0.211-0.112-0.425-0.218-0.642-0.314c-4.25-2.127-8.176-4.948-11.635-8.407l-8.733-8.733
			c-17.432-17.431-17.432-45.794,0-63.225l161.229-161.228l71.958,71.958L134.667,449.264z M360.436,293.888
			c-8.382,8.383-22.022,8.383-30.403,0c0,0,0,0-0.001,0L218.085,181.94c-8.382-8.382-8.382-22.021,0-30.403l51.635-51.634
			l95.704,95.703c1.952,1.952,4.512,2.929,7.071,2.929c2.559,0,5.119-0.977,7.071-2.929c3.905-3.905,3.905-10.237-0.001-14.143
			L283.861,85.76l11.387-11.387L437.6,216.725L360.436,293.888z M469.261,220.101L291.872,42.713l18.572-18.571L487.832,201.53
			L469.261,220.101z"/>
	</g>
</g>
<g>
	<g>
		<path d="M230.11,285.613l-3.751-3.753c-6.327-6.328-14.74-9.812-23.688-9.812s-17.361,3.485-23.688,9.812l-47.426,47.427
			c-6.328,6.328-9.812,14.74-9.812,23.688c0,8.95,3.485,17.362,9.812,23.689l3.752,3.752c6.328,6.327,14.74,9.811,23.689,9.811
			c8.949,0,17.361-3.484,23.685-9.811l47.426-47.427c6.328-6.328,9.813-14.74,9.813-23.688
			C239.922,300.351,236.437,291.939,230.11,285.613z M215.969,318.846l-47.426,47.427c-2.549,2.551-5.94,3.954-9.545,3.954
			c-3.606,0-6.996-1.403-9.546-3.954l-3.752-3.752c-2.55-2.55-3.954-5.94-3.954-9.546c0-3.606,1.404-6.995,3.954-9.545
			l47.427-47.427c2.55-2.551,5.94-3.954,9.546-3.954c3.606,0,6.996,1.404,9.545,3.953l3.752,3.753
			c2.55,2.55,3.954,5.939,3.954,9.546C219.924,312.907,218.519,316.296,215.969,318.846z"/>
	</g>
</g>
<g>
</g>
<g>
</g>
<g>
</g>
<g>
</g>
<g>
</g>
<g>
</g>
<g>
</g>
<g>
</g>
<g>
</g>
<g>
</g>
<g>
</g>
<g>
</g>
<g>
</g>
<g>
</g>
<g>
</g>
</svg>
