<?xml version="1.0" encoding="iso-8859-1"?>
<!-- Generator: Adobe Illustrator 19.0.0, SVG Export Plug-In . SVG Version: 6.00 Build 0)  -->
<svg version="1.1" id="Capa_1" xmlns="http://www.w3.org/2000/svg" xmlns:xlink="http://www.w3.org/1999/xlink" x="0px" y="0px"
	 viewBox="0 0 512 512" style="enable-background:new 0 0 512 512;" xml:space="preserve">
<g>
	<g>
		<path d="M398.989,467.39c-0.13-0.64-0.32-1.26-0.57-1.87c-0.25-0.6-0.561-1.18-0.92-1.72c-0.36-0.55-0.78-1.06-1.24-1.52
			c-0.46-0.46-0.98-0.88-1.52-1.25c-0.55-0.36-1.131-0.67-1.73-0.92s-1.229-0.44-1.87-0.57c-1.29-0.26-2.62-0.26-3.91,0
			c-0.64,0.13-1.269,0.32-1.87,0.57c-0.6,0.25-1.18,0.56-1.72,0.92c-0.55,0.37-1.059,0.79-1.53,1.25c-1.86,1.86-2.92,4.44-2.92,7.07
			c0,0.65,0.06,1.31,0.19,1.95c0.13,0.64,0.32,1.27,0.57,1.87c0.25,0.61,0.56,1.19,0.92,1.73c0.37,0.55,0.779,1.06,1.239,1.52
			c0.471,0.46,0.98,0.88,1.53,1.24c0.54,0.36,1.12,0.67,1.72,0.92c0.6,0.25,1.23,0.44,1.87,0.57c0.65,0.13,1.301,0.2,1.96,0.2
			c0.65,0,1.3-0.07,1.951-0.2c0.641-0.13,1.271-0.32,1.87-0.57s1.179-0.56,1.73-0.92c0.541-0.36,1.06-0.78,1.52-1.24
			c0.46-0.46,0.88-0.97,1.24-1.52c0.36-0.54,0.67-1.12,0.92-1.73c0.25-0.6,0.439-1.23,0.57-1.87c0.129-0.64,0.189-1.3,0.189-1.95
			C399.178,468.69,399.119,468.04,398.989,467.39z"/>
	</g>
</g>
<g>
	<g>
		<path d="M423.559,416.046h-15.907c3.257-9.834,4.618-20.21,3.971-30.645l-13.627-220.143
			c-1.411-22.784-12.143-42.949-28.333-56.867c4.464-1.003,7.8-4.987,7.8-9.754c0-5.523-4.477-10-10-10h-18.466V76.325
			c0-14.474-11.775-26.25-26.25-26.25h-15.433C306.644,22.349,283.882,0,255.998,0c-27.884,0-50.646,22.349-51.317,50.075h-15.433
			c-14.475,0-26.25,11.776-26.25,26.25v12.312h-18.466c-5.522,0-10,4.477-10,10c0,4.767,3.336,8.752,7.8,9.754
			c-16.189,13.918-26.921,34.083-28.333,56.868L100.373,385.4c-0.647,10.436,0.714,20.812,3.971,30.646H88.438
			c-5.522,0-10,4.477-10,10V502c0,5.523,4.478,10,10,10h335.121c5.523,0,10-4.477,10-10v-75.954
			C433.559,420.523,429.081,416.046,423.559,416.046z M255.998,20c16.856,0,30.642,13.379,31.306,30.075h-62.611
			C225.356,33.379,239.143,20,255.998,20z M182.998,76.325c0-3.446,2.804-6.25,6.25-6.25h133.5c3.446,0,6.25,2.804,6.25,6.25v12.312
			h-146V76.325z M120.334,386.636l13.627-220.142c2.011-32.443,29.047-57.858,61.552-57.858h120.971
			c32.505,0,59.541,25.414,61.552,57.857l13.627,220.144c0.628,10.128-1.255,20.188-5.467,29.409h-18.357
			c5.614-8.294,8.411-18.323,7.786-28.417l-13.628-220.141c-1.484-23.99-21.476-42.783-45.513-42.783H195.513
			c-24.036,0-44.028,18.793-45.513,42.783l-13.628,220.141c-0.625,10.094,2.172,20.123,7.786,28.418h-18.357
			C121.589,406.825,119.706,396.765,120.334,386.636z M289.609,369.224c-0.002-0.003-0.005-0.006-0.007-0.009l-25.593-34.249
			c-1.888-2.526-4.857-4.014-8.011-4.014c-3.154,0-6.123,1.488-8.011,4.014l-25.582,34.236c-5.409,7.254-8.268,15.893-8.268,24.983
			c0,0.544,0.014,1.085,0.035,1.624c-7.012-8.887-11.196-20.056-11.196-32.173c0-11.506,3.619-22.445,10.457-31.624l42.564-56.968
			l42.565,56.968c6.841,9.19,10.456,20.125,10.456,31.624c0,12.118-4.184,23.286-11.196,32.173c0.021-0.539,0.035-1.08,0.035-1.624
			C297.859,385.096,295.006,376.465,289.609,369.224z M255.998,416.044c-12.053,0.002-21.86-9.805-21.86-21.859
			c0-4.749,1.487-9.254,4.295-13.02l17.565-23.508l17.575,23.519c2.804,3.761,4.285,8.259,4.285,13.008
			C277.858,406.238,268.051,416.044,255.998,416.044z M266.998,447.046c0,6.065-4.935,11-11,11c-6.065,0-11-4.935-11-11
			s4.935-11,11-11C262.063,436.046,266.998,440.98,266.998,447.046z M307.584,415.013c13.823-13.637,21.436-31.883,21.436-51.376
			c0-15.841-4.988-30.912-14.426-43.582c-0.003-0.004-0.006-0.008-0.009-0.012l-50.576-67.689c-1.888-2.527-4.856-4.015-8.011-4.015
			c-3.155,0-6.123,1.488-8.011,4.015l-50.583,67.7c-9.438,12.668-14.428,27.739-14.428,43.583c0,19.493,7.612,37.738,21.436,51.375
			c0.354,0.35,0.714,0.693,1.074,1.034h-23.602c-7.139,0-13.764-2.865-18.653-8.066c-4.89-5.202-7.339-11.99-6.898-19.115
			l13.628-220.141c0.834-13.468,12.058-24.018,25.552-24.018h120.971c13.494,0,24.718,10.55,25.552,24.018l13.628,220.142
			c0.44,7.125-2.009,13.913-6.898,19.115c-4.89,5.202-11.515,8.066-18.653,8.066h-23.601
			C306.871,415.705,307.23,415.362,307.584,415.013z M98.438,436.046h128.578c-1.303,3.42-2.018,7.128-2.018,11
			c0,4.368,0.91,8.528,2.548,12.301H98.438V436.046z M413.56,492L413.56,492H98.438v-12.653h253.748c5.522,0,10-4.477,10-10
			s-4.478-10-10-10h-67.735c1.637-3.773,2.548-7.932,2.548-12.301c0-3.872-0.716-7.58-2.018-11H413.54h0.02V492z"/>
	</g>
</g>
<g>
	<g>
		<path d="M423.562,416.046h-15.907c3.257-9.834,4.618-20.21,3.971-30.645L398,165.258c-1.411-22.784-12.143-42.949-28.333-56.867
			c4.464-1.003,7.8-4.987,7.8-9.754c0-5.523-4.477-10-10-10h-18.466V76.325c0-14.474-11.775-26.25-26.25-26.25h-15.433
			C306.648,22.349,283.886,0,256.002,0s-50.646,22.349-51.317,50.075h-15.433c-14.475,0-26.25,11.776-26.25,26.25v12.312h-18.466
			c-5.522,0-10,4.477-10,10c0,4.767,3.336,8.752,7.8,9.754c-16.189,13.918-26.921,34.083-28.333,56.868L100.377,385.4
			c-0.647,10.436,0.714,20.812,3.971,30.646H88.441c-5.522,0-10,4.477-10,10V502c0,5.523,4.478,10,10,10h335.121
			c5.523,0,10-4.477,10-10v-75.954C433.562,420.523,429.085,416.046,423.562,416.046z M256.002,20
			c16.856,0,30.642,13.379,31.306,30.075h-62.611C225.359,33.379,239.146,20,256.002,20z M183.002,76.325
			c0-3.446,2.804-6.25,6.25-6.25h133.5c3.446,0,6.25,2.804,6.25,6.25v12.312h-146V76.325z M120.338,386.636l13.627-220.142
			c2.011-32.443,29.047-57.858,61.552-57.858h120.971c32.505,0,59.541,25.414,61.552,57.857l13.627,220.144
			c0.628,10.128-1.255,20.188-5.467,29.409h-18.357c5.614-8.294,8.411-18.323,7.786-28.417L362,167.488
			c-1.484-23.99-21.477-42.783-45.513-42.783H195.516c-24.036,0-44.028,18.793-45.513,42.783l-13.628,220.141
			c-0.625,10.094,2.172,20.123,7.786,28.418h-18.357C121.593,406.825,119.71,396.765,120.338,386.636z M289.612,369.224
			c-0.002-0.003-0.005-0.006-0.007-0.009l-25.593-34.249c-1.888-2.526-4.857-4.014-8.011-4.014c-3.154,0-6.123,1.488-8.011,4.014
			l-25.582,34.236c-5.409,7.254-8.268,15.893-8.268,24.983c0,0.544,0.014,1.085,0.035,1.624
			c-7.012-8.887-11.196-20.056-11.196-32.173c0-11.506,3.619-22.445,10.457-31.624L256,275.044l42.565,56.968
			c6.841,9.19,10.456,20.125,10.456,31.624c0,12.118-4.184,23.286-11.196,32.173c0.021-0.539,0.035-1.08,0.035-1.624
			C297.862,385.096,295.01,376.465,289.612,369.224z M256.001,416.044c-12.053,0.002-21.86-9.805-21.86-21.859
			c0-4.749,1.487-9.254,4.295-13.02l17.565-23.508l17.575,23.519c2.804,3.761,4.285,8.259,4.285,13.008
			C277.861,406.238,268.054,416.044,256.001,416.044z M267.002,447.046c0,6.065-4.935,11-11,11c-6.065,0-11-4.935-11-11
			s4.935-11,11-11C262.067,436.046,267.002,440.98,267.002,447.046z M307.588,415.013c13.823-13.637,21.436-31.883,21.436-51.376
			c0-15.841-4.988-30.912-14.426-43.582c-0.003-0.004-0.006-0.008-0.009-0.012l-50.576-67.689c-1.888-2.527-4.856-4.015-8.011-4.015
			c-3.155,0-6.123,1.488-8.011,4.015l-50.583,67.7c-9.438,12.668-14.428,27.739-14.428,43.583c0,19.493,7.612,37.738,21.436,51.375
			c0.354,0.35,0.714,0.693,1.074,1.034h-23.602c-7.139,0-13.764-2.865-18.653-8.066c-4.89-5.202-7.339-11.99-6.898-19.115
			l13.628-220.141c0.834-13.468,12.058-24.018,25.552-24.018h120.971c13.494,0,24.718,10.55,25.552,24.018l13.628,220.142
			c0.44,7.125-2.009,13.913-6.898,19.115c-4.89,5.202-11.515,8.066-18.653,8.066h-23.601
			C306.875,415.705,307.234,415.362,307.588,415.013z M98.441,436.046H227.02c-1.303,3.42-2.018,7.128-2.018,11
			c0,4.368,0.91,8.528,2.548,12.301H98.441V436.046z M413.563,492L413.563,492H98.441v-12.653h253.748c5.522,0,10-4.477,10-10
			s-4.478-10-10-10h-67.735c1.637-3.773,2.548-7.932,2.548-12.301c0-3.872-0.716-7.58-2.018-11h128.559h0.02V492z"/>
	</g>
</g>
<g>
</g>
<g>
</g>
<g>
</g>
<g>
</g>
<g>
</g>
<g>
</g>
<g>
</g>
<g>
</g>
<g>
</g>
<g>
</g>
<g>
</g>
<g>
</g>
<g>
</g>
<g>
</g>
<g>
</g>
</svg>
