<?xml version="1.0" encoding="iso-8859-1"?>
<!-- Generator: Adobe Illustrator 19.0.0, SVG Export Plug-In . SVG Version: 6.00 Build 0)  -->
<svg version="1.1" id="Capa_1" xmlns="http://www.w3.org/2000/svg" xmlns:xlink="http://www.w3.org/1999/xlink" x="0px" y="0px"
	 viewBox="0 0 511.999 511.999" style="enable-background:new 0 0 511.999 511.999;" xml:space="preserve">
<g>
	<g>
		<path d="M439.018,77.898c-0.12-0.64-0.319-1.27-0.569-1.87c-0.25-0.61-0.561-1.19-0.92-1.73c-0.36-0.55-0.78-1.06-1.24-1.52
			c-0.46-0.46-0.971-0.88-1.521-1.24c-0.54-0.36-1.12-0.67-1.729-0.92c-0.6-0.25-1.23-0.44-1.87-0.57c-1.29-0.26-2.61-0.26-3.9,0
			c-0.64,0.13-1.269,0.32-1.87,0.57c-0.61,0.25-1.19,0.56-1.73,0.92c-0.549,0.36-1.06,0.78-1.52,1.24
			c-0.46,0.46-0.88,0.97-1.25,1.52c-0.359,0.54-0.67,1.12-0.92,1.73c-0.24,0.6-0.44,1.23-0.56,1.87c-0.13,0.64-0.2,1.3-0.2,1.95
			c0,0.651,0.07,1.311,0.2,1.961c0.121,0.63,0.321,1.26,0.56,1.87c0.25,0.6,0.561,1.18,0.92,1.72c0.37,0.55,0.79,1.06,1.25,1.52
			c0.46,0.46,0.97,0.88,1.52,1.25c0.541,0.36,1.121,0.67,1.73,0.92c0.6,0.25,1.23,0.44,1.87,0.57c0.641,0.13,1.3,0.19,1.95,0.19
			c0.651,0,1.311-0.059,1.95-0.19c0.64-0.13,1.27-0.32,1.87-0.57c0.609-0.25,1.189-0.56,1.729-0.92c0.55-0.37,1.061-0.79,1.521-1.25
			c0.46-0.46,0.88-0.97,1.24-1.52c0.359-0.54,0.67-1.12,0.92-1.72c0.25-0.61,0.449-1.24,0.569-1.87c0.13-0.651,0.2-1.311,0.2-1.961
			C439.218,79.198,439.148,78.538,439.018,77.898z"/>
	</g>
</g>
<g>
	<g>
		<path d="M461.22,5.532c-1.436-2.876-4.168-4.887-7.342-5.403c-3.175-0.514-6.402,0.526-8.676,2.799l-250.17,250.17l-13.646-13.646
			c-1.876-1.875-4.419-2.929-7.071-2.929s-5.196,1.054-7.071,2.929l-31.796,31.796c-3.905,3.905-3.905,10.237,0,14.142
			l13.646,13.646l-68.592,68.592l-2.832-2.832c-3.905-3.905-10.237-3.905-14.143,0l-28.68,28.68c-3.905,3.905-3.905,10.237,0,14.143
			L136.298,509.07c1.953,1.953,4.512,2.929,7.071,2.929c2.559,0,5.119-0.976,7.071-2.929l28.68-28.68
			c3.905-3.905,3.905-10.237,0-14.143l-2.831-2.831l68.592-68.592l13.647,13.647c1.876,1.875,4.419,2.929,7.071,2.929
			c2.652,0,5.195-1.054,7.071-2.929l31.796-31.796c3.905-3.905,3.905-10.237,0-14.142l-13.646-13.646L427.656,212.05
			c17.097-17.097,30.346-37.105,39.381-59.471c8.848-21.903,13.234-44.991,13.038-68.622C479.85,56.9,473.33,29.781,461.22,5.532z
			 M143.369,487.858L56.06,400.549l14.538-14.538l87.309,87.309L143.369,487.858z M162.146,449.275l-67.502-67.504l44.882-44.882
			l67.503,67.503L162.146,449.275z M221.172,390.249l-67.503-67.503l9.567-9.567l67.503,67.503L221.172,390.249z M265.599,387.258
			L156.661,278.319l17.654-17.654l108.939,108.938L265.599,387.258z M413.513,197.908l-104.16,104.161
			c-0.545-26.854,9.756-52.922,29.194-72.359L458.21,110.046C453.11,143.183,437.699,173.722,413.513,197.908z M324.405,215.567
			c-27.651,27.652-39.903,66.467-33.342,104.792l-14.385,14.385l-44.104-44.104l177.014-177.013c3.905-3.905,3.905-10.237,0-14.143
			c-3.906-3.905-10.236-3.905-14.143,0L218.431,276.497l-9.257-9.257l239.9-239.899c6.64,16.818,10.298,34.458,10.911,52.644
			L324.405,215.567z"/>
	</g>
</g>
<g>
</g>
<g>
</g>
<g>
</g>
<g>
</g>
<g>
</g>
<g>
</g>
<g>
</g>
<g>
</g>
<g>
</g>
<g>
</g>
<g>
</g>
<g>
</g>
<g>
</g>
<g>
</g>
<g>
</g>
</svg>
