<?xml version="1.0" encoding="iso-8859-1"?>
<!-- Generator: Adobe Illustrator 19.0.0, SVG Export Plug-In . SVG Version: 6.00 Build 0)  -->
<svg version="1.1" id="Capa_1" xmlns="http://www.w3.org/2000/svg" xmlns:xlink="http://www.w3.org/1999/xlink" x="0px" y="0px"
	 viewBox="0 0 512 512" style="enable-background:new 0 0 512 512;" xml:space="preserve">
<g>
	<g>
		<path d="M447.628,154c-5.522,0-10,4.477-10,10v300c0,15.44-12.56,28-28,28c-15.178,0-28-13.28-28-29v-14.328
			c0-5.522-4.477-10-10-10c-5.522,0-10,4.478-10,10V463c0,12.816,4.949,25.003,13.934,34.314C384.7,506.784,396.799,512,409.628,512
			c26.467,0,48-21.533,48-48V164C457.628,158.477,453.151,154,447.628,154z"/>
	</g>
</g>
<g>
	<g>
		<path d="M381.429,409.72c-0.13-0.64-0.32-1.269-0.57-1.87c-0.25-0.61-0.56-1.19-0.92-1.73c-0.359-0.55-0.779-1.06-1.239-1.52
			c-0.46-0.46-0.97-0.88-1.52-1.24c-0.541-0.36-1.121-0.67-1.73-0.92c-0.6-0.25-1.23-0.439-1.87-0.569
			c-1.29-0.261-2.62-0.261-3.91,0c-0.63,0.129-1.26,0.319-1.87,0.569c-0.6,0.25-1.18,0.561-1.72,0.92
			c-0.55,0.36-1.061,0.78-1.521,1.24c-0.47,0.46-0.88,0.969-1.25,1.52c-0.359,0.541-0.67,1.121-0.92,1.73
			c-0.25,0.6-0.439,1.23-0.57,1.87c-0.129,0.64-0.189,1.3-0.189,1.95c0,0.649,0.059,1.309,0.189,1.95
			c0.131,0.64,0.32,1.27,0.57,1.88c0.25,0.6,0.561,1.18,0.92,1.72c0.37,0.55,0.78,1.061,1.25,1.521c0.46,0.46,0.971,0.88,1.521,1.25
			c0.54,0.359,1.12,0.67,1.72,0.92c0.61,0.25,1.24,0.439,1.87,0.569c0.649,0.13,1.31,0.19,1.96,0.19c0.65,0,1.31-0.061,1.95-0.19
			c0.64-0.13,1.269-0.319,1.87-0.569c0.61-0.25,1.19-0.561,1.73-0.92c0.549-0.37,1.06-0.79,1.52-1.25
			c0.46-0.46,0.88-0.971,1.239-1.521c0.36-0.54,0.67-1.12,0.92-1.72c0.25-0.61,0.44-1.24,0.57-1.88s0.2-1.301,0.2-1.95
			C381.629,411.02,381.559,410.36,381.429,409.72z"/>
	</g>
</g>
<g>
	<g>
		<path d="M308.429,314.551c-0.13-0.64-0.32-1.269-0.57-1.87c-0.25-0.61-0.56-1.189-0.92-1.729
			c-0.359-0.551-0.779-1.061-1.239-1.521c-0.46-0.46-0.97-0.88-1.52-1.24c-0.541-0.359-1.121-0.67-1.73-0.92
			c-0.6-0.25-1.23-0.45-1.87-0.569c-1.29-0.261-2.62-0.261-3.91,0c-0.639,0.119-1.26,0.319-1.87,0.569
			c-0.6,0.25-1.18,0.561-1.72,0.92c-0.55,0.36-1.061,0.78-1.521,1.24c-0.46,0.46-0.88,0.97-1.25,1.521
			c-0.359,0.54-0.67,1.119-0.92,1.729c-0.25,0.6-0.439,1.23-0.57,1.87c-0.129,0.64-0.189,1.3-0.189,1.95
			c0,0.649,0.059,1.309,0.189,1.95c0.131,0.64,0.32,1.269,0.57,1.869c0.25,0.61,0.561,1.19,0.92,1.73c0.37,0.55,0.79,1.06,1.25,1.52
			c0.46,0.461,0.971,0.881,1.521,1.24c0.54,0.37,1.12,0.67,1.72,0.92c0.61,0.25,1.23,0.45,1.87,0.57c0.649,0.13,1.31,0.2,1.96,0.2
			c0.65,0,1.31-0.07,1.95-0.2c0.64-0.12,1.269-0.32,1.87-0.57c0.61-0.25,1.19-0.55,1.73-0.92c0.549-0.359,1.06-0.779,1.52-1.24
			c0.46-0.46,0.88-0.97,1.239-1.52c0.36-0.54,0.67-1.12,0.92-1.73c0.25-0.599,0.44-1.229,0.57-1.869s0.2-1.301,0.2-1.95
			C308.629,315.851,308.559,315.191,308.429,314.551z"/>
	</g>
</g>
<g>
	<g>
		<path d="M335.128,223.165c-25.641,0-46.501,20.859-46.501,46.5V283.5c0,5.522,4.477,10,10,10c5.522,0,10-4.478,10-10v-13.835
			c0-14.612,11.889-26.5,26.501-26.5s26.5,11.888,26.5,26.5v108.34c0,5.522,4.478,10,10,10c5.523,0,10-4.478,10-10v-108.34
			C381.628,244.024,360.769,223.165,335.128,223.165z"/>
	</g>
</g>
<g>
	<g>
		<path d="M332.881,140.846h-7.651L208.626,24.244V10c0-5.523-4.477-10-10-10c-5.523,0-10,4.477-10,10v14.244L72.023,140.847h-7.651
			c-5.523,0-10,4.478-10,10c0,5.522,4.477,10,10,10h5.097L171.81,304.044l-10.065-5.811c-7.493-4.325-16.439-4.326-23.931,0
			c-7.492,4.325-11.965,12.073-11.965,20.725v30.82c0,8.651,4.473,16.399,11.966,20.725c7.492,4.326,16.438,4.327,23.931,0
			l26.88-15.52V452c0,33.084,26.916,60,60,60c33.084,0,60.001-26.916,60.001-60.001v-98.998c0-5.523-4.478-10-10-10
			c-5.523,0-10,4.477-10,10v98.998c0,22.057-17.944,40.001-40.001,40.001c-22.056,0-40-17.944-40-40v-97.017l26.88,15.52
			c3.747,2.163,7.856,3.245,11.966,3.244c4.109,0,8.219-1.081,11.965-3.244c7.492-4.325,11.966-12.073,11.966-20.725v-30.82
			c0-8.651-4.474-16.399-11.966-20.726c-7.492-4.324-16.438-4.324-23.931,0.001h0.001l-10.065,5.811l102.342-143.198h5.097
			c5.522,0,10-4.478,10-10C342.881,145.324,338.403,140.846,332.881,140.846z M151.746,353.183c-1.71,0.985-3.196,0.424-3.931,0
			c-0.734-0.424-1.965-1.43-1.965-3.404v-30.82c0-1.975,1.231-2.98,1.965-3.404c0.433-0.25,1.128-0.549,1.977-0.549
			c0.59,0,1.253,0.145,1.955,0.549l32.587,18.814L151.746,353.183z M188.626,293.177l-94.575-132.33h94.575V293.177z
			 M188.626,140.846h-88.318l88.318-88.317V140.846z M208.626,52.528l88.318,88.318h-88.318V52.528z M245.507,315.554
			c1.709-0.989,3.197-0.424,3.931,0c0.734,0.424,1.965,1.43,1.965,3.404v30.82c0,1.975-1.231,2.98-1.966,3.404
			c-0.734,0.425-2.221,0.986-3.931,0l-32.588-18.814L245.507,315.554z M208.626,293.177v-132.33h94.575L208.626,293.177z"/>
	</g>
</g>
<g>
</g>
<g>
</g>
<g>
</g>
<g>
</g>
<g>
</g>
<g>
</g>
<g>
</g>
<g>
</g>
<g>
</g>
<g>
</g>
<g>
</g>
<g>
</g>
<g>
</g>
<g>
</g>
<g>
</g>
</svg>
