<?xml version="1.0" encoding="iso-8859-1"?>
<!-- Generator: Adobe Illustrator 19.0.0, SVG Export Plug-In . SVG Version: 6.00 Build 0)  -->
<svg version="1.1" id="Capa_1" xmlns="http://www.w3.org/2000/svg" xmlns:xlink="http://www.w3.org/1999/xlink" x="0px" y="0px"
	 viewBox="0 0 512 512" style="enable-background:new 0 0 512 512;" xml:space="preserve">
<g>
	<g>
		<path d="M436.369,240.041c-0.13-0.63-0.32-1.261-0.57-1.87c-0.25-0.601-0.56-1.18-0.92-1.72c-0.36-0.55-0.78-1.06-1.24-1.52
			c-0.46-0.46-0.97-0.88-1.52-1.25c-0.54-0.36-1.12-0.67-1.73-0.92c-0.599-0.25-1.229-0.44-1.87-0.57c-1.29-0.26-2.62-0.26-3.91,0
			c-0.63,0.13-1.26,0.32-1.869,0.57c-0.601,0.25-1.181,0.56-1.721,0.92c-0.55,0.37-1.06,0.79-1.52,1.25
			c-0.47,0.459-0.88,0.969-1.25,1.52c-0.36,0.54-0.67,1.119-0.92,1.72c-0.25,0.609-0.44,1.24-0.57,1.87
			c-0.129,0.649-0.19,1.31-0.19,1.96c0,0.649,0.06,1.309,0.19,1.95c0.13,0.639,0.32,1.269,0.57,1.869c0.25,0.61,0.56,1.19,0.92,1.73
			c0.37,0.55,0.78,1.06,1.25,1.52c0.461,0.46,0.97,0.881,1.52,1.24c0.54,0.36,1.12,0.67,1.721,0.92
			c0.609,0.25,1.239,0.44,1.869,0.57c0.65,0.13,1.311,0.2,1.96,0.2c0.651,0,1.311-0.07,1.95-0.2c0.641-0.13,1.27-0.32,1.87-0.57
			c0.61-0.25,1.19-0.56,1.73-0.92c0.55-0.359,1.06-0.78,1.52-1.24c0.46-0.46,0.88-0.97,1.24-1.52c0.36-0.54,0.67-1.12,0.92-1.73
			c0.25-0.599,0.44-1.229,0.57-1.869s0.199-1.301,0.199-1.95C436.568,241.351,436.499,240.691,436.369,240.041z"/>
	</g>
</g>
<g>
	<g>
		<path d="M182.139,399.401c-0.129-0.64-0.32-1.27-0.57-1.88c-0.25-0.6-0.56-1.18-0.92-1.72c-0.359-0.55-0.779-1.06-1.239-1.521
			c-0.46-0.47-0.971-0.88-1.521-1.25c-0.54-0.36-1.12-0.67-1.729-0.92c-0.6-0.25-1.23-0.439-1.87-0.569
			c-1.29-0.261-2.62-0.261-3.91,0c-0.63,0.129-1.26,0.319-1.87,0.569c-0.6,0.25-1.18,0.561-1.72,0.92
			c-0.55,0.37-1.061,0.78-1.521,1.25c-0.46,0.461-0.88,0.971-1.25,1.521c-0.359,0.54-0.67,1.12-0.92,1.72
			c-0.25,0.61-0.439,1.24-0.569,1.88s-0.19,1.301-0.19,1.95c0,0.65,0.059,1.31,0.19,1.95c0.13,0.64,0.319,1.269,0.579,1.87
			c0.24,0.61,0.551,1.19,0.91,1.73c0.37,0.55,0.79,1.06,1.25,1.52c0.46,0.46,0.971,0.88,1.521,1.24c0.54,0.359,1.12,0.67,1.72,0.92
			c0.61,0.25,1.24,0.439,1.87,0.569c0.65,0.13,1.31,0.2,1.96,0.2c0.65,0,1.309-0.071,1.95-0.2c0.64-0.13,1.269-0.319,1.87-0.569
			c0.609-0.25,1.189-0.561,1.729-0.92c0.55-0.36,1.061-0.78,1.521-1.24c0.46-0.459,0.88-0.969,1.239-1.52
			c0.361-0.54,0.67-1.121,0.92-1.73c0.25-0.6,0.44-1.23,0.57-1.87c0.13-0.639,0.2-1.3,0.2-1.95
			C182.339,400.702,182.269,400.042,182.139,399.401z"/>
	</g>
</g>
<g>
	<g>
		<path d="M501.031,203.765C501.031,91.408,409.622,0,297.266,0C184.909,0,93.501,91.408,93.501,203.765v26.872L40.12,217.848
			c-4.843-1.158-9.798,1.418-11.629,6.047L11.67,266.428c-1.307,3.303-0.763,7.05,1.427,9.845l91.348,116.595
			c5.739,16.452,13.57,32.173,23.334,46.708c20.035,29.826,47.81,53.914,80.346,69.672c3.699,1.779,7.826,2.73,11.986,2.752h153.875
			c4.108-0.022,8.235-0.973,11.958-2.764c32.513-15.746,60.287-39.834,80.321-69.66c19.533-29.079,31.332-62.907,34.12-97.828
			c0.345-4.315,0.546-8.635,0.612-12.952c0.021-0.263,0.035-0.528,0.035-0.796V203.765H501.031z M93.659,341.747
			c0.149,1.871,0.33,3.737,0.531,5.601l-61.813-78.897l11.521-29.133l62.106,14.879C95.544,282.114,91.286,312.032,93.659,341.747z
			 M377.25,491.225c-1.042,0.501-2.207,0.77-3.316,0.775H220.162c-1.161-0.006-2.326-0.274-3.345-0.764
			C193.389,479.89,172.69,463.744,156.103,444H437.94C421.355,463.744,400.66,479.887,377.25,491.225z M468.823,391.349H209.337
			c-5.522,0-10,4.478-10,10c0,5.522,4.478,10,10,10h250.492c-2.251,4.295-4.679,8.516-7.286,12.651H141.501
			c-32.477-51.508-37.346-116.329-13.027-172.002h261.095c5.522,0,10-4.478,10-10c0-5.522-4.478-10-10-10H138.716
			c2.928-4.946,6.087-9.758,9.461-14.405h297.689c6.382,8.787,11.998,18.161,16.727,27.926v0.001
			C484.861,291.497,486.623,344.498,468.823,391.349z M374.006,159.389c0.908-0.014,1.831,0.16,2.686,0.484
			c0.174,0.098,0.353,0.191,0.533,0.278c19.26,9.328,36.872,22.09,51.799,37.441H165.02c14.927-15.352,32.54-28.114,51.798-37.441
			c0.182-0.088,0.359-0.181,0.533-0.277c0.858-0.326,1.78-0.51,2.76-0.485H374.006z M277.689,120.056
			c0-10.661,8.673-19.334,19.333-19.334c10.661,0,19.334,8.673,19.334,19.334c0,10.66-8.673,19.333-19.334,19.333
			S277.689,130.716,277.689,120.056z M481.032,237.727c-0.147-0.308-0.29-0.618-0.439-0.925
			c-6.024-12.442-13.348-24.311-21.767-35.277c-0.005-0.007-0.01-0.015-0.016-0.022c-19.017-24.768-43.856-45.108-71.886-58.873
			c-0.272-0.167-0.555-0.322-0.848-0.465c-3.783-1.847-7.993-2.787-12.144-2.776h-42.668c3.238-5.713,5.09-12.31,5.09-19.333
			c0-21.688-17.645-39.334-39.334-39.334c-21.689,0-39.333,17.646-39.333,39.334c0,7.023,1.852,13.62,5.09,19.333h-42.79
			c-4.145,0-8.298,0.958-12.021,2.776c-0.293,0.143-0.575,0.298-0.848,0.465c-28.029,13.765-52.868,34.104-71.886,58.873
			c-8.145,10.608-15.261,22.061-21.173,34.059l-0.559-0.134v-31.663h0.001C113.501,102.437,195.938,20,297.266,20
			c101.329,0,183.766,82.437,183.766,183.765V237.727z"/>
	</g>
</g>
<g>
</g>
<g>
</g>
<g>
</g>
<g>
</g>
<g>
</g>
<g>
</g>
<g>
</g>
<g>
</g>
<g>
</g>
<g>
</g>
<g>
</g>
<g>
</g>
<g>
</g>
<g>
</g>
<g>
</g>
</svg>
