<?xml version="1.0" encoding="iso-8859-1"?>
<!-- Generator: Adobe Illustrator 19.0.0, SVG Export Plug-In . SVG Version: 6.00 Build 0)  -->
<svg version="1.1" id="Capa_1" xmlns="http://www.w3.org/2000/svg" xmlns:xlink="http://www.w3.org/1999/xlink" x="0px" y="0px"
	 viewBox="0 0 512 512" style="enable-background:new 0 0 512 512;" xml:space="preserve">
<g>
	<g>
		<path d="M254.19,91.6c-0.46-0.46-0.97-0.88-1.52-1.24c-0.54-0.36-1.12-0.67-1.72-0.92c-0.61-0.25-1.24-0.44-1.87-0.57
			c-1.3-0.26-2.62-0.26-3.91,0c-0.64,0.13-1.27,0.32-1.87,0.57c-0.61,0.25-1.19,0.56-1.73,0.92c-0.55,0.36-1.06,0.78-1.52,1.24
			c-0.46,0.461-0.88,0.98-1.24,1.52c-0.359,0.55-0.67,1.13-0.92,1.73c-0.25,0.6-0.45,1.23-0.57,1.87
			c-0.13,0.64-0.199,1.3-0.199,1.95c0,0.66,0.069,1.31,0.199,1.96c0.12,0.64,0.32,1.27,0.57,1.87s0.561,1.18,0.92,1.73
			c0.36,0.54,0.78,1.05,1.24,1.52c0.461,0.46,0.97,0.87,1.52,1.24c0.54,0.36,1.12,0.67,1.73,0.92c0.6,0.25,1.23,0.44,1.87,0.57
			c0.64,0.13,1.3,0.19,1.95,0.19c0.649,0,1.309-0.06,1.961-0.19c0.63-0.13,1.26-0.32,1.87-0.57c0.6-0.25,1.18-0.56,1.72-0.92
			c0.55-0.37,1.06-0.78,1.52-1.24c0.46-0.47,0.88-0.98,1.25-1.52c0.36-0.55,0.67-1.13,0.92-1.73c0.25-0.6,0.44-1.23,0.57-1.87
			c0.129-0.65,0.19-1.3,0.19-1.96C257.121,96.04,256.05,93.46,254.19,91.6z"/>
	</g>
</g>
<g>
	<g>
		<path d="M511.92,220.279c-0.709-12.654-6.101-24.585-15.183-33.595c-9.08-9.009-21.052-14.308-33.711-14.921
			c-11.659-0.568-22.783,2.708-31.949,9.098c-1.82-99.89-83.64-180.59-183.955-180.59c-101.453,0-183.991,82.538-183.991,183.991
			c0,49.273,33.683,89.339,72.684,135.732c11.579,13.773,23.552,28.015,35.355,43.316c1.894,2.454,4.818,3.892,7.918,3.892h3.468
			v41.961c-5.381,0.161-9.695,4.572-9.695,9.992v55.575c0,20.402,16.598,37,37,37h74.522c20.402,0,37-16.598,37-37v-55.575
			c0-4.715-3.265-8.666-7.656-9.721v-42.232h1.429c3.1,0,6.024-1.438,7.918-3.892c11.805-15.302,23.777-29.544,35.357-43.317
			c15.326-18.231,29.863-35.531,41.812-52.736h66.951c12.048,0,23.79-4.934,32.216-13.537c8.358-8.538,12.827-19.756,12.581-31.597
			C511.977,221.51,511.954,220.894,511.92,220.279z M411.103,182.897c-2.984-0.552-6.037-0.838-9.136-0.838
			c-2.182,0-4.36,0.144-6.522,0.432c-4.319-5.086-9.377-9.34-14.957-12.667c-2.67-43.833-17.43-85.292-41.876-117.305
			c-2.378-3.113-4.825-6.103-7.337-8.963C378.699,72.026,410.619,123.783,411.103,182.897z M322.716,64.658
			c20.432,26.757,33.372,60.993,37.097,97.61c-4.234-0.702-8.59-0.964-13.013-0.744c-13.3,0.657-25.506,5.688-35.179,13.691
			c-0.693-44.051-6.442-85.284-16.363-116.937c-3.379-10.778-7.141-20.112-11.245-27.954
			C297.915,37.893,311.178,49.549,322.716,64.658z M285.595,347.201h-4.364c2.714-10.772,5.425-21.059,8.071-31.095
			c5.568-21.116,10.781-40.898,14.775-60.717c7.62,7.022,17.727,11.407,28.819,11.83c-5.179,8.925-10.793,18.011-16.618,27.435
			C306.023,311.246,295.448,328.355,285.595,347.201z M293.726,367.202v41.953h-36.605v-41.953H293.726z M247.122,20.271
			c18.173,0,44.571,63.884,44.571,163.991c0,44.331-10.07,82.523-21.73,126.745c-3.058,11.596-6.202,23.523-9.348,36.194h-3.494
			V135.632c0.001-5.523-4.477-10-9.999-10c-5.523,0-10,4.477-10,10v211.569h-3.495c-3.145-12.671-6.289-24.595-9.346-36.19
			c-11.66-44.224-21.73-82.416-21.73-126.749C202.551,84.156,228.949,20.271,247.122,20.271z M237.121,367.202v41.953h-34.566
			v-41.953H237.121z M210.253,30.279c-4.113,7.852-7.883,17.2-11.268,27.999c-10.598,33.811-16.435,78.553-16.435,125.984
			c0,46.925,10.376,86.279,22.391,131.848c2.646,10.034,5.358,20.32,8.069,31.091h-4.363c-9.855-18.859-20.437-35.978-30.698-52.581
			c-23.954-38.755-44.642-72.226-44.642-110.358c0-43.513,12.907-85.093,36.344-117.083
			C181.654,50.796,195.589,38.255,210.253,30.279z M183.983,347.202c-11.059-14.145-22.126-27.31-32.859-40.078
			c-37.988-45.187-67.993-80.879-67.993-122.862c0-59.69,32.057-112.031,79.858-140.718c-3.266,3.724-6.428,7.663-9.47,11.815
			c-25.931,35.393-40.211,81.171-40.211,128.903c0,43.814,23.136,81.245,47.629,120.874c8.342,13.496,16.897,27.342,25.009,42.066
			H183.983z M301.382,474.729c0,9.374-7.626,17-17,17H209.86c-9.374,0-17-7.626-17-17v-45.575h108.522V474.729z M343.121,307.122
			c-10.734,12.768-21.802,25.934-32.861,40.079h-1.96c8.107-14.712,16.656-28.546,24.992-42.032
			c8.065-13.048,15.738-25.463,22.554-37.913h19.688C365.809,280.132,354.694,293.355,343.121,307.122z M485.12,239.725
			c-4.757,4.856-11.124,7.531-17.928,7.531H334.666c-12.679,0-23.245-9.23-24.578-21.468c-0.276-2.538-0.31-5.138-0.1-7.729
			c1.614-19.857,17.864-35.575,37.801-36.56c0.683-0.034,1.363-0.05,2.041-0.05c5.719,0,11.24,1.197,16.276,3.437
			c0.316,0.168,0.642,0.317,0.977,0.451c6.313,3.018,11.814,7.707,15.905,13.779c2.408,3.574,6.84,5.203,10.982,4.044
			c2.614-0.73,5.306-1.1,7.998-1.1c4.822,0,9.459,1.14,13.645,3.322c0.087,0.046,0.175,0.092,0.263,0.136
			c1.397,0.746,2.743,1.608,4.026,2.585c2.194,1.67,4.979,2.358,7.698,1.906c2.719-0.453,5.13-2.008,6.665-4.297
			c6.224-9.289,16.58-14.509,27.793-13.97c15.873,0.768,29.004,13.796,29.893,29.663c0.022,0.385,0.036,0.77,0.044,1.146
			C492.129,228.961,489.687,235.061,485.12,239.725z"/>
	</g>
</g>
<g>
	<g>
		<path d="M168.629,396.479c-1.164-20.761-17.705-37.175-38.477-38.181c-11.133-0.533-21.672,3.38-29.568,10.739
			c-4.84-2.088-10.07-3.168-15.472-3.168c-1.242,0-2.484,0.06-3.72,0.178c-9.342-10.355-22.735-15.983-36.988-15.28
			C21.07,351.92,2.049,370.329,0.156,393.59c-0.242,2.999-0.202,6.017,0.119,8.968c1.941,17.826,17.131,31.268,35.332,31.268h97.482
			c9.568,0,18.894-3.919,25.586-10.753c6.652-6.791,10.207-15.719,10.011-25.145C168.675,397.449,168.656,396.967,168.629,396.479z
			 M144.385,409.081c-2.997,3.06-7.01,4.746-11.297,4.746H35.606c-7.973,0-14.615-5.775-15.449-13.434
			c-0.185-1.699-0.208-3.444-0.067-5.183c1.081-13.289,11.958-23.806,25.301-24.466c0.457-0.023,0.912-0.034,1.367-0.034
			c8.941,0,17.164,4.354,22.199,11.828c2.407,3.574,6.835,5.204,10.983,4.044c1.69-0.473,3.431-0.712,5.171-0.712
			c4.227,0,8.235,1.35,11.591,3.904c2.194,1.669,4.98,2.36,7.698,1.906c2.719-0.453,5.131-2.008,6.665-4.298
			c4.056-6.054,10.821-9.463,18.118-9.106c10.343,0.501,18.897,8.988,19.476,19.318c0.013,0.255,0.024,0.509,0.029,0.757
			C148.771,402.352,147.243,406.162,144.385,409.081z"/>
	</g>
</g>
<g>
</g>
<g>
</g>
<g>
</g>
<g>
</g>
<g>
</g>
<g>
</g>
<g>
</g>
<g>
</g>
<g>
</g>
<g>
</g>
<g>
</g>
<g>
</g>
<g>
</g>
<g>
</g>
<g>
</g>
</svg>
