<?xml version="1.0" encoding="iso-8859-1"?>
<!-- Generator: Adobe Illustrator 19.0.0, SVG Export Plug-In . SVG Version: 6.00 Build 0)  -->
<svg version="1.1" id="Capa_1" xmlns="http://www.w3.org/2000/svg" xmlns:xlink="http://www.w3.org/1999/xlink" x="0px" y="0px"
	 viewBox="0 0 512 512" style="enable-background:new 0 0 512 512;" xml:space="preserve">
<g>
	<g>
		<path d="M121.949,454.4c-0.131-0.64-0.32-1.27-0.57-1.87c-0.25-0.61-0.561-1.19-0.92-1.73c-0.36-0.55-0.78-1.06-1.24-1.52
			c-0.46-0.46-0.97-0.88-1.52-1.24c-0.54-0.36-1.12-0.67-1.73-0.92c-0.599-0.25-1.229-0.44-1.87-0.57c-1.29-0.26-2.62-0.26-3.91,0
			c-0.63,0.13-1.26,0.32-1.87,0.57c-0.6,0.25-1.18,0.56-1.72,0.92c-0.55,0.36-1.06,0.78-1.52,1.24c-0.46,0.46-0.88,0.97-1.25,1.52
			c-0.36,0.54-0.67,1.12-0.92,1.73c-0.25,0.6-0.44,1.23-0.57,1.87c-0.129,0.64-0.19,1.3-0.19,1.95c0,0.65,0.06,1.31,0.19,1.96
			c0.13,0.63,0.32,1.26,0.57,1.87c0.25,0.6,0.56,1.18,0.92,1.72c0.37,0.55,0.79,1.06,1.25,1.52c0.46,0.46,0.97,0.88,1.52,1.25
			c0.54,0.36,1.12,0.67,1.72,0.92c0.61,0.25,1.24,0.44,1.87,0.57c0.65,0.13,1.311,0.19,1.96,0.19c0.651,0,1.311-0.06,1.95-0.19
			c0.64-0.13,1.27-0.32,1.87-0.57c0.61-0.25,1.19-0.56,1.73-0.92c0.55-0.37,1.06-0.79,1.52-1.25c0.46-0.46,0.88-0.97,1.24-1.52
			c0.359-0.54,0.67-1.12,0.92-1.72c0.25-0.61,0.439-1.24,0.57-1.87c0.13-0.65,0.199-1.31,0.199-1.96S122.078,455.04,121.949,454.4z"
			/>
	</g>
</g>
<g>
	<g>
		<path d="M450.988,390.702H435.27c-0.001-29.586-0.004-152.673-0.011-153.151c0-0.009-0.001-0.017-0.001-0.026
			c-0.557-47.052-19.199-91.3-52.497-124.597c-13.19-13.192-28.226-24.174-44.603-32.598c-1.861-0.98-3.861-1.97-6.113-3.025
			c-4.784-2.243-9.713-4.284-14.728-6.105C317.765,68.197,318,65.125,318,62c0-34.187-27.814-62-62-62c-34.186,0-62,27.813-62,62
			c0,3.308,0.263,6.555,0.765,9.724c-5.388,1.765-10.882,3.74-14.809,5.581c-1.871,0.877-3.834,1.841-6.041,2.968
			c-59.09,30.488-96.307,90.651-97.16,157.042c0,0.004-0.001,0.008-0.001,0.013c0,0.01-0.001,0.032-0.001,0.061
			c0,0.034-0.002,0.068-0.002,0.103c0,0.017,0.001,0.033,0.001,0.049c-0.012,2.343-0.02,112.855-0.022,153.163H61.012
			c-5.522,0-10,4.477-10,10V502c0,5.523,4.478,10,10,10h389.977c5.522,0,10-4.477,10-10V400.702
			C460.988,395.179,456.51,390.702,450.988,390.702z M256,20c23.159,0,42,18.841,42,42s-18.841,42-42,42s-42-18.841-42-42
			S232.841,20,256,20z M183.046,98.065c1.967-1.003,3.732-1.871,5.399-2.652c2.678-1.255,7.09-2.896,12.616-4.705
			c3.452,6.579,8.05,12.466,13.529,17.392l-19.973,19.973c-3.905,3.905-3.905,10.237,0,14.142c1.953,1.953,4.512,2.929,7.071,2.929
			c2.559,0,5.118-0.977,7.071-2.929l23.107-23.107c4.469,1.896,9.206,3.277,14.134,4.08v46.477c0,5.523,4.477,10,10,10
			c5.522,0,10-4.477,10-10V123.19c4.928-0.803,9.665-2.184,14.134-4.08l23.107,23.107c1.953,1.953,4.512,2.929,7.071,2.929
			s5.118-0.977,7.071-2.929c3.905-3.905,3.905-10.237,0-14.142l-19.973-19.973c5.606-5.04,10.292-11.084,13.769-17.848
			c4.213,1.552,8.353,3.275,12.376,5.161c1.971,0.924,3.699,1.778,5.37,2.658c14.615,7.518,27.97,17.274,39.692,28.999
			c24.858,24.857,40.523,56.585,45.188,90.883c-4.452-1.892-9.848-3.184-16.695-3.184c-15.283,0-23.33,6.436-29.796,11.607
			c-5.44,4.35-9.032,7.224-17.295,7.224c-8.249,0-11.838-2.872-17.27-7.221c-6.462-5.172-14.505-11.609-29.78-11.609
			c-15.272,0-23.314,6.435-29.777,11.606c-5.438,4.351-9.029,7.225-17.292,7.225c-8.257,0-11.847-2.874-17.282-7.223
			c-6.462-5.171-14.505-11.608-29.778-11.608c-15.268,0-23.308,6.436-29.768,11.607c-5.435,4.35-9.025,7.224-17.282,7.224
			c-8.257,0-11.847-2.874-17.282-7.223c-6.462-5.171-14.504-11.608-29.777-11.608c-6.756,0-12.097,1.261-16.512,3.114
			C105.205,166.883,136.489,122.087,183.046,98.065z M96.742,242.563c0.241-0.192,0.483-0.385,0.722-0.576
			c5.433-4.347,9.021-7.218,17.266-7.218c8.256,0,11.847,2.874,17.281,7.223c6.462,5.171,14.504,11.607,29.778,11.607
			c15.275,0,23.318-6.437,29.78-11.61c5.432-4.348,9.021-7.22,17.27-7.22c8.257,0,11.847,2.874,17.282,7.223
			c6.462,5.171,14.505,11.607,29.778,11.607c15.278,0,23.323-6.436,29.787-11.608c5.435-4.349,9.026-7.222,17.282-7.222
			c8.257,0,11.848,2.874,17.282,7.224c6.46,5.171,14.5,11.606,29.767,11.606c15.276,0,23.321-6.434,29.786-11.604
			c5.441-4.352,9.035-7.226,17.305-7.226c8.266,0,11.862,2.874,17.307,7.223c0.279,0.223,0.563,0.449,0.846,0.674
			c0.004,12.047,0.006,43.979,0.006,70.077c-4.723-2.244-10.542-3.844-18.159-3.844c-15.283,0-23.331,6.436-29.797,11.607
			c-5.44,4.35-9.032,7.223-17.294,7.223c-8.249,0-11.838-2.873-17.27-7.22c-6.462-5.173-14.505-11.61-29.78-11.61
			c-15.271,0-23.313,6.435-29.776,11.605c-5.438,4.351-9.029,7.225-17.293,7.225c-8.257,0-11.847-2.874-17.282-7.223
			c-6.462-5.171-14.505-11.607-29.778-11.607c-15.268,0-23.308,6.436-29.768,11.607c-5.435,4.35-9.025,7.224-17.282,7.224
			s-11.847-2.874-17.282-7.223c-6.462-5.171-14.504-11.607-29.777-11.607c-7.534,0-13.308,1.566-18,3.774
			C96.731,286.57,96.734,254.58,96.742,242.563z M96.729,390.702v-53.998c0.244-0.195,0.49-0.39,0.73-0.583
			c5.429-4.349,9.017-7.222,17.27-7.222c8.256,0,11.847,2.873,17.281,7.223c6.462,5.171,14.504,11.607,29.778,11.607
			c15.275,0,23.318-6.437,29.78-11.609c5.432-4.348,9.021-7.221,17.27-7.221c8.257,0,11.847,2.874,17.282,7.223
			c6.462,5.171,14.505,11.607,29.778,11.607c15.279,0,23.324-6.436,29.788-11.608c5.435-4.349,9.026-7.222,17.281-7.222
			c8.257,0,11.848,2.874,17.282,7.224c6.46,5.171,14.5,11.606,29.767,11.606c15.275,0,23.32-6.434,29.785-11.603
			c5.441-4.352,9.036-7.227,17.306-7.227c8.26,0,11.853,2.871,17.293,7.216c0.286,0.228,0.576,0.459,0.866,0.69v53.897H96.729z
			 M314.298,410.702v35.65H197.702v-35.65H314.298z M71.012,492v-81.298h106.69v35.65h-28.556c-5.523,0-10,4.477-10,10
			s4.477,10,10,10h250.705c5.522,0,10-4.477,10-10s-4.478-10-10-10h-65.554v-35.65h106.69V492H71.012z"/>
	</g>
</g>
<g>
</g>
<g>
</g>
<g>
</g>
<g>
</g>
<g>
</g>
<g>
</g>
<g>
</g>
<g>
</g>
<g>
</g>
<g>
</g>
<g>
</g>
<g>
</g>
<g>
</g>
<g>
</g>
<g>
</g>
</svg>
