<?xml version="1.0" encoding="iso-8859-1"?>
<!-- Generator: Adobe Illustrator 19.0.0, SVG Export Plug-In . SVG Version: 6.00 Build 0)  -->
<svg version="1.1" id="Capa_1" xmlns="http://www.w3.org/2000/svg" xmlns:xlink="http://www.w3.org/1999/xlink" x="0px" y="0px"
	 viewBox="0 0 512.001 512.001" style="enable-background:new 0 0 512.001 512.001;" xml:space="preserve">
<g>
	<g>
		<path d="M223.713,420.244c-0.13-0.641-0.32-1.27-0.57-1.87s-0.56-1.19-0.92-1.73c-0.37-0.55-0.79-1.06-1.25-1.52
			c-1.86-1.86-4.44-2.92-7.07-2.92c-2.63,0-5.21,1.06-7.07,2.92c-0.46,0.46-0.88,0.97-1.24,1.52c-0.36,0.54-0.67,1.129-0.92,1.73
			c-0.25,0.6-0.44,1.229-0.57,1.87c-0.13,0.639-0.2,1.3-0.2,1.95c0,0.649,0.07,1.31,0.2,1.96c0.13,0.63,0.32,1.26,0.57,1.869
			c0.25,0.601,0.56,1.181,0.92,1.721c0.36,0.55,0.78,1.06,1.24,1.52c0.46,0.46,0.97,0.88,1.52,1.25c0.54,0.36,1.12,0.67,1.73,0.92
			c0.6,0.25,1.23,0.44,1.87,0.57c0.64,0.129,1.3,0.19,1.95,0.19c0.65,0,1.31-0.061,1.95-0.19c0.64-0.13,1.27-0.32,1.88-0.57
			c0.6-0.25,1.18-0.56,1.72-0.92c0.55-0.37,1.06-0.79,1.52-1.25c0.46-0.46,0.88-0.97,1.25-1.52c0.36-0.54,0.67-1.12,0.92-1.721
			c0.25-0.609,0.44-1.239,0.57-1.869c0.13-0.65,0.19-1.311,0.19-1.96C223.903,421.544,223.843,420.884,223.713,420.244z"/>
	</g>
</g>
<g>
	<g>
		<path d="M196.795,446.921c-3.086-4.579-9.3-5.792-13.88-2.705c-2.205,1.485-4.601,2.929-7.124,4.294
			c-6.591,3.567-16.24,6.919-32.51,1.139c-13.946-4.954-29.635-15.691-44.162-30.219l-6.565-6.552
			c-14.523-14.551-25.247-30.235-30.197-44.162c-5.782-16.274-2.434-25.921,1.128-32.507c7.745-14.316,17.083-23.237,30.28-28.928
			c5.071-2.187,7.41-8.071,5.223-13.141c-2.186-5.074-8.072-7.41-13.141-5.224c-17.365,7.487-30.059,19.491-39.951,37.776
			c-7.997,14.785-8.776,30.721-2.382,48.718c5.923,16.664,18.312,34.987,34.921,51.63l6.529,6.517
			c16.601,16.599,34.934,29.006,51.624,34.934c8.005,2.844,15.601,4.268,22.871,4.268c9.074,0,17.639-2.217,25.848-6.66
			c3.089-1.67,6.044-3.453,8.783-5.299C198.669,457.716,199.88,451.502,196.795,446.921z"/>
	</g>
</g>
<g>
	<g>
		<path d="M228.585,283.358c-23.232-23.186-61.036-23.146-84.264,0.081c-11.248,11.226-17.442,26.183-17.439,42.116
			c0.003,15.936,6.203,30.892,17.441,42.098c11.237,11.253,26.201,17.449,42.142,17.449c0.006,0,0.014,0,0.018,0
			c15.929-0.005,30.88-6.201,42.097-17.445c11.229-11.19,17.424-26.122,17.444-42.046
			C246.044,309.639,239.856,294.637,228.585,283.358z M214.455,353.503c-0.008,0.007-0.017,0.016-0.025,0.024
			c-7.441,7.462-17.367,11.573-27.951,11.576c-0.004,0-0.009,0-0.013,0c-10.594,0-20.533-4.114-28.006-11.596
			c-7.465-7.443-11.576-17.371-11.578-27.956c-0.002-10.581,4.106-20.511,11.574-27.964c7.737-7.737,17.902-11.605,28.062-11.605
			c10.121,0,20.234,3.841,27.932,11.523c7.48,7.485,11.591,17.458,11.578,28.082C226.014,336.171,221.904,346.085,214.455,353.503z"
			/>
	</g>
</g>
<g>
	<g>
		<path d="M496.204,15.797C475.779-4.628,452.38,0.509,451.394,0.739c-1.822,0.423-3.489,1.348-4.811,2.67l-5.996,5.996
			l-2.157-2.157c-3.905-3.904-10.237-3.904-14.142,0c-3.905,3.905-3.905,10.237,0,14.142l2.157,2.157l-10.041,10.041
			c-1.918,1.918-3.789,3.875-5.613,5.869l-2.285-2.285c-3.905-3.904-10.237-3.904-14.142,0c-3.905,3.905-3.905,10.237,0,14.142
			l3.701,3.701c-4.491,6.158-8.582,12.597-12.269,19.291l-7.213-7.213c-3.905-3.904-10.237-3.904-14.142,0
			c-3.905,3.905-3.905,10.237,0,14.142l9.792,9.792l-80.861,77.837c-18.778-14.153-54.462-33.468-91.747-13.511
			c-25.394,13.559-32.128,30.765-38.069,45.945c-4.542,11.605-8.465,21.63-20.6,30.622c-5.513,4.08-16.105,6.192-28.372,8.637
			c-31.525,6.284-74.7,14.89-103.157,67.496c-13.39,24.757-15.018,51.835-4.839,80.48c10.045,28.268,29.551,51.617,44.177,66.258
			l6.489,6.478c14.597,14.597,37.934,34.106,66.216,44.153c12.353,4.388,24.414,6.58,36.123,6.58
			c15.445,0,30.279-3.814,44.36-11.434c52.608-28.458,61.213-71.622,67.497-103.138c2.445-12.263,4.556-22.854,8.636-28.364
			c8.989-12.137,19.014-16.062,30.623-20.606c15.184-5.945,32.395-12.682,45.94-38.067c19.959-37.288,0.64-72.976-13.516-91.755
			l77.844-80.867l2.862,2.862c1.953,1.952,4.512,2.929,7.071,2.929s5.119-0.977,7.071-2.929c3.905-3.905,3.905-10.237,0-14.142
			l-0.277-0.277c6.693-3.689,13.131-7.781,19.288-12.272l3.697,3.698c1.953,1.952,4.512,2.929,7.071,2.929s5.119-0.977,7.071-2.929
			c3.905-3.905,3.905-10.237-0.001-14.142l-2.283-2.284c1.986-1.818,3.935-3.681,5.846-5.592l10.062-10.063l2.157,2.157
			c1.953,1.952,4.512,2.929,7.071,2.929c2.559,0,5.119-0.977,7.071-2.929c3.905-3.905,3.905-10.237,0-14.142l-2.157-2.157
			l5.996-5.997c1.322-1.322,2.247-2.989,2.67-4.81C511.49,59.621,516.63,36.225,496.204,15.797z M339.011,300.962
			c-10.076,18.882-21.9,23.512-35.592,28.872c-12.651,4.953-26.99,10.567-39.405,27.328c-6.744,9.111-9.262,21.736-12.175,36.354
			c-5.815,29.169-13.052,65.471-57.4,89.46C143.376,510.607,91.38,467.111,71.41,447.139l-6.526-6.514
			c-19.979-20-63.467-72.027-35.865-123.058c23.989-44.345,60.299-51.582,89.476-57.397c14.622-2.914,27.251-5.432,36.365-12.179
			c16.759-12.418,22.37-26.756,27.321-39.404c5.357-13.687,9.984-25.51,28.875-35.596c25.988-13.911,52.228-1.054,67.696,9.951
			l-47.204,45.439l-4.674-4.674c-3.905-3.904-10.237-3.904-14.141,0c-3.905,3.905-3.905,10.237,0.001,14.142l61.423,61.423
			c1.953,1.952,4.512,2.929,7.071,2.929s5.119-0.977,7.071-2.929c3.905-3.905,3.905-10.237,0-14.142l-4.674-4.674l45.433-47.197
			C340.062,248.725,352.925,274.97,339.011,300.962z M269.488,266.301l-23.794-23.781l142.681-137.347l18.443,18.465
			L269.488,266.301z M422.913,111.42l-22.326-22.325c3.474-6.878,7.422-13.466,11.815-19.744l30.252,30.252
			C436.378,103.996,429.79,107.945,422.913,111.42z M464.253,81.476c-1.912,1.912-3.871,3.766-5.867,5.572l-33.43-33.43
			c1.813-2.003,3.673-3.97,5.592-5.889l10.041-10.041l33.726,33.727L464.253,81.476z M492.02,53.706l-3.566,3.566l-33.725-33.725
			l3.565-3.565c4.522-0.207,14.436,0.624,23.769,9.958C491.396,39.272,492.223,49.178,492.02,53.706z"/>
	</g>
</g>
<g>
</g>
<g>
</g>
<g>
</g>
<g>
</g>
<g>
</g>
<g>
</g>
<g>
</g>
<g>
</g>
<g>
</g>
<g>
</g>
<g>
</g>
<g>
</g>
<g>
</g>
<g>
</g>
<g>
</g>
</svg>
