<?xml version="1.0" encoding="iso-8859-1"?>
<!-- Generator: Adobe Illustrator 19.0.0, SVG Export Plug-In . SVG Version: 6.00 Build 0)  -->
<svg version="1.1" id="Capa_1" xmlns="http://www.w3.org/2000/svg" xmlns:xlink="http://www.w3.org/1999/xlink" x="0px" y="0px"
	 viewBox="0 0 512 512" style="enable-background:new 0 0 512 512;" xml:space="preserve">
<g>
	<g>
		<path d="M486.991,321.73c-0.13-0.64-0.32-1.27-0.57-1.87c-0.25-0.6-0.56-1.18-0.92-1.72c-0.36-0.55-0.78-1.059-1.24-1.52
			c-0.46-0.47-0.97-0.88-1.52-1.25c-0.54-0.36-1.12-0.67-1.73-0.92c-0.6-0.25-1.23-0.44-1.87-0.57c-1.29-0.26-2.62-0.26-3.91,0
			c-0.64,0.13-1.27,0.32-1.87,0.57c-0.6,0.25-1.18,0.56-1.72,0.92c-0.55,0.37-1.059,0.78-1.52,1.25c-0.47,0.461-0.88,0.97-1.25,1.52
			c-0.36,0.54-0.67,1.12-0.92,1.72c-0.25,0.6-0.44,1.23-0.57,1.87c-0.13,0.65-0.19,1.3-0.19,1.96c0,0.65,0.06,1.31,0.19,1.95
			s0.32,1.27,0.57,1.87c0.25,0.6,0.56,1.18,0.92,1.73c0.37,0.54,0.78,1.06,1.25,1.52c0.461,0.46,0.97,0.88,1.52,1.24
			c0.54,0.36,1.12,0.67,1.72,0.92c0.6,0.25,1.23,0.44,1.87,0.57c0.65,0.13,1.3,0.2,1.96,0.2c0.65,0,1.31-0.07,1.95-0.2
			s1.27-0.32,1.87-0.57c0.61-0.25,1.19-0.56,1.73-0.92c0.55-0.36,1.06-0.78,1.52-1.24c0.46-0.46,0.88-0.98,1.24-1.52
			c0.36-0.55,0.67-1.13,0.92-1.73c0.25-0.6,0.44-1.23,0.57-1.87s0.2-1.3,0.2-1.95C487.191,323.03,487.121,322.38,486.991,321.73z"/>
	</g>
</g>
<g>
	<g>
		<path d="M477.187,74.041h-57.569c-1.547-16.398-6.026-32.404-12.997-46.086C397.57,10.189,386.156,0,375.307,0
			c-0.202,0-0.405,0.011-0.608,0.018C374.508,0.007,374.315,0,374.122,0h-95.072c-30.786,0-57.906,20.051-67.35,48.712h-15.419
			c-7.347,0-13.861,3.62-17.864,9.166h-23.405c-3.797-13.56-16.268-23.536-31.024-23.536c-17.761,0-32.211,14.45-32.211,32.211
			c0,2.557,0.302,5.065,0.876,7.488H34.815c-5.523,0-10,4.477-10,10V147c0,5.523,4.477,10,10,10c5.523,0,10-4.477,10-10V94.041
			h47.838c-0.574,2.422-0.876,4.931-0.876,7.488c0,17.761,14.45,32.211,32.211,32.211c14.756,0,27.227-9.975,31.024-23.536h23.405
			c4.003,5.546,10.517,9.167,17.865,9.167h13.842c7.531,31.475,35.73,54.232,68.927,54.232h95.072c0.193,0,0.384-0.007,0.574-0.018
			c0.204,0.007,0.408,0.018,0.612,0.018c10.849,0,22.262-10.189,31.314-27.955c7.751-15.214,12.423-33.302,13.406-51.607h47.16
			v184.962c0,5.523,4.477,10,10,10s10-4.477,10-10V84.041C487.187,78.519,482.711,74.041,477.187,74.041z M174.258,90.206h-28.102
			v-0.001c-2.753,0-5.383,1.135-7.272,3.136c-1.889,2.002-2.87,4.694-2.711,7.442c0.015,0.247,0.026,0.496,0.026,0.747
			c0,6.733-5.478,12.211-12.211,12.211c-6.733,0-12.211-5.478-12.211-12.211c0-3.773,1.711-7.279,4.695-9.616
			c2.419-1.896,3.832-4.798,3.832-7.872c0-3.073-1.413-5.976-3.832-7.871c-2.983-2.338-4.695-5.843-4.695-9.617
			c0-6.733,5.478-12.211,12.211-12.211c6.733,0,12.211,5.478,12.211,12.211c0,0.247-0.011,0.492-0.025,0.735
			c-0.163,2.75,0.816,5.445,2.706,7.449c1.89,2.004,4.522,3.141,7.276,3.141h28.102V90.206z M343.995,145.649
			c1.453,2.851,2.967,5.505,4.529,7.955h-69.474c-26.029,0-47.777-19.481-50.588-45.314c-0.552-5.074-4.837-8.918-9.941-8.918
			h-22.24c-1.116,0-2.024-0.908-2.024-2.024V70.736c0-1.116,0.908-2.024,2.024-2.024h23.095c4.756,0,8.854-3.35,9.8-8.01
			C233.964,37.118,254.94,20,279.049,20h69.474c-1.562,2.45-3.077,5.104-4.529,7.955c-8.772,17.218-13.604,38.117-13.604,58.847
			C330.391,107.531,335.223,128.43,343.995,145.649z M375.307,153.539c-6.395-2.198-24.918-28.682-24.918-66.737
			s18.522-64.539,24.918-66.737c5.653,1.943,20.779,22.864,24.214,53.977h-24.214c-5.523,0-10,4.477-10,10s4.477,10,10,10h24.691
			C397.877,128.182,381.289,151.483,375.307,153.539z"/>
	</g>
</g>
<g>
	<g>
		<path d="M44.62,191.05c-0.13-0.64-0.32-1.27-0.57-1.87c-0.25-0.61-0.56-1.19-0.92-1.73c-0.37-0.55-0.78-1.06-1.25-1.52
			c-0.46-0.46-0.97-0.88-1.52-1.24c-0.54-0.36-1.12-0.67-1.72-0.92c-0.61-0.25-1.24-0.44-1.87-0.57c-1.29-0.26-2.62-0.26-3.91,0
			c-0.64,0.13-1.27,0.32-1.87,0.57c-0.61,0.25-1.19,0.56-1.73,0.92c-0.55,0.36-1.06,0.78-1.52,1.24c-0.46,0.46-0.88,0.97-1.24,1.52
			c-0.36,0.54-0.67,1.12-0.92,1.73c-0.25,0.6-0.44,1.23-0.57,1.87s-0.2,1.3-0.2,1.95c0,0.65,0.07,1.31,0.2,1.95
			c0.13,0.64,0.32,1.27,0.57,1.88c0.25,0.6,0.56,1.18,0.92,1.72c0.36,0.55,0.78,1.06,1.24,1.52c0.46,0.46,0.97,0.88,1.52,1.24
			c0.54,0.36,1.12,0.67,1.73,0.92c0.6,0.25,1.23,0.45,1.87,0.57c0.64,0.13,1.3,0.2,1.95,0.2s1.31-0.07,1.96-0.2
			c0.63-0.12,1.26-0.32,1.87-0.57c0.6-0.25,1.18-0.56,1.72-0.92c0.55-0.36,1.06-0.78,1.52-1.24c0.47-0.46,0.88-0.97,1.25-1.52
			c0.36-0.54,0.67-1.12,0.92-1.72c0.25-0.61,0.44-1.24,0.57-1.88c0.13-0.64,0.19-1.3,0.19-1.95
			C44.81,192.35,44.75,191.69,44.62,191.05z"/>
	</g>
</g>
<g>
	<g>
		<path d="M495.088,492h-7.901V366.337c0-5.523-4.477-10-10-10s-10,4.477-10,10V492h-7.902c-5.523,0-10,4.477-10,10s4.477,10,10,10
			h35.803c5.523,0,10-4.477,10-10S500.61,492,495.088,492z"/>
	</g>
</g>
<g>
	<g>
		<path d="M52.716,492h-7.902V235c0-5.523-4.477-10-10-10s-10,4.477-10,10v257h-7.901c-5.523,0-10,4.477-10,10s4.477,10,10,10
			h35.803c5.523,0,10-4.477,10-10S58.238,492,52.716,492z"/>
	</g>
</g>
<g>
	<g>
		<path d="M414.245,435.431c-0.429-0.165-21.979-6.794-21.979-6.794l19.275-5.855c20.897-6.348,32.733-28.513,26.385-49.41
			c-3.07-10.105-9.9-18.423-19.251-23.431c-9.343-4.975-20.054-6.023-30.159-2.955l-64.392,19.561
			c8.264-13.05,12.697-28.154,12.697-43.869c0-17.534-5.521-34.214-15.966-48.236l-0.009-0.012l-56.834-76.066
			c-1.888-2.527-4.857-4.015-8.011-4.015s-6.123,1.488-8.011,4.015l-56.843,76.077c-10.446,14.02-15.967,30.7-15.967,48.237
			c0,15.714,4.433,30.819,12.698,43.869l-64.393-19.561c-10.105-3.069-20.817-2.021-30.18,2.966
			c-9.331,4.997-16.161,13.314-19.231,23.419c-3.074,10.12-2.022,20.834,2.962,30.168c4.984,9.334,13.303,16.168,23.423,19.242
			l19.275,5.855c0,0-21.55,6.629-21.979,6.794c-19.288,7.4-29.69,28.691-23.681,48.471c3.07,10.106,9.899,18.423,19.241,23.425
			c5.781,3.087,12.188,4.67,18.642,4.67c2.93,0,5.872-0.327,8.766-0.987C121.167,510.908,256,470.031,256,470.031
			s134.833,40.877,135.277,40.978c2.894,0.66,5.833,0.987,8.764,0.987c6.455,0,12.866-1.584,18.653-4.675
			c9.332-4.997,16.162-13.314,19.232-23.42C443.935,464.122,433.534,442.831,414.245,435.431z M207.177,286.401L256,221.057
			l48.819,65.338c7.851,10.543,12.001,23.089,12.001,36.283c0,15.849-5.88,30.325-15.532,41.29c0.337-2.278,0.514-4.602,0.514-6.96
			c0-9.946-3.121-19.39-9.025-27.311c-0.002-0.003-0.005-0.006-0.007-0.009l-28.76-38.487c-1.888-2.526-4.857-4.014-8.011-4.014
			s-6.123,1.488-8.011,4.014l-28.747,38.472c-5.917,7.936-9.045,17.389-9.045,27.335c0,2.358,0.177,4.682,0.514,6.96
			c-9.652-10.965-15.532-25.44-15.532-41.29C195.18,309.479,199.331,296.931,207.177,286.401z M281.804,357.008
			c0,14.703-12.057,27.6-25.803,27.6c-13.746,0-25.803-12.898-25.803-27.601c0-5.605,1.756-10.924,5.073-15.372L256,313.893
			l20.742,27.757C280.054,346.091,281.804,351.402,281.804,357.008z M106.273,403.645c-10.345-3.142-16.204-14.115-13.062-24.46
			c1.52-5.003,4.906-9.123,9.515-11.591c2.896-1.542,6.053-2.325,9.234-2.325c1.912,0,3.833,0.283,5.711,0.854l103.925,31.57
			l-67.458,20.492L106.273,403.645z M115.576,491.656c-4.362,0.827-8.894,0.136-12.831-1.966c-4.629-2.479-8.015-6.599-9.535-11.601
			c-2.905-9.562,1.934-19.834,11.047-23.718c4.354-0.825,8.882-0.133,12.819,1.969c4.63,2.479,8.017,6.6,9.536,11.602
			C129.518,477.503,124.685,487.774,115.576,491.656z M146.443,482.411c1.5-6.523,1.371-13.491-0.692-20.282
			c-2.029-6.68-5.703-12.578-10.658-17.255l259.236-78.751c5.003-1.52,10.31-0.997,14.925,1.46c4.629,2.48,8.016,6.6,9.536,11.602
			c3.143,10.345-2.717,21.317-13.062,24.46L146.443,482.411z M366.251,462.129c-2.063,6.791-2.192,13.759-0.692,20.282
			l-75.154-22.83l67.457-20.493l19.046,5.786C371.954,449.549,368.281,455.448,366.251,462.129z M418.791,478.089
			c-1.52,5.002-4.906,9.122-9.526,11.596c-3.947,2.108-8.48,2.799-12.841,1.971c-9.108-3.882-13.941-14.153-11.036-23.715
			c1.519-5.001,4.906-9.122,9.525-11.596c3.947-2.107,8.477-2.8,12.83-1.975C416.857,458.255,421.695,468.528,418.791,478.089z"/>
	</g>
</g>
<g>
</g>
<g>
</g>
<g>
</g>
<g>
</g>
<g>
</g>
<g>
</g>
<g>
</g>
<g>
</g>
<g>
</g>
<g>
</g>
<g>
</g>
<g>
</g>
<g>
</g>
<g>
</g>
<g>
</g>
</svg>
