<?xml version="1.0" encoding="iso-8859-1"?>
<!-- Generator: Adobe Illustrator 19.0.0, SVG Export Plug-In . SVG Version: 6.00 Build 0)  -->
<svg version="1.1" id="Capa_1" xmlns="http://www.w3.org/2000/svg" xmlns:xlink="http://www.w3.org/1999/xlink" x="0px" y="0px"
	 viewBox="0 0 512 512" style="enable-background:new 0 0 512 512;" xml:space="preserve">
<g>
	<g>
		<path d="M504.201,193.113c-0.009-0.038-0.016-0.076-0.025-0.114c-11.552-45.692-35.612-87.328-69.579-120.403
			C404.039,42.84,366.32,21.042,325.515,9.555c-0.013-0.004-0.025-0.008-0.038-0.012C302.957,3.211,279.582,0,256,0
			c-23.582,0-46.957,3.211-69.477,9.543c-0.013,0.004-0.025,0.008-0.038,0.012C145.68,21.042,107.961,42.84,77.403,72.596
			c-33.957,33.065-58.017,74.689-69.578,120.371c-0.001,0.005-0.002,0.01-0.003,0.014C2.632,213.476,0,234.678,0,256
			c0,21.273,2.624,42.431,7.799,62.887c0.009,0.038,0.016,0.076,0.025,0.114c11.552,45.692,35.612,87.328,69.579,120.403
			c30.558,29.756,68.277,51.554,109.082,63.041c0.013,0.004,0.025,0.008,0.038,0.012C209.043,508.789,232.418,512,256,512
			c23.496,0,46.789-3.19,69.239-9.479c0.074-0.019,0.146-0.041,0.219-0.061c0.069-0.019,0.139-0.035,0.208-0.056
			c40.747-11.498,78.41-33.279,108.931-62.999c33.957-33.065,58.017-74.689,69.578-120.371c0.001-0.005,0.002-0.01,0.003-0.014
			C509.369,298.524,512,277.322,512,256C512,234.727,509.376,213.569,504.201,193.113z M483.768,194.016l-1.614,2.796L453.757,246
			h-69.452l-27.74-48.047l-27.74-48.047l34.73-60.146h59.953C452.365,118.828,473.113,154.722,483.768,194.016z M366.984,256
			l-55.492,96.115H200.508L145.016,256l55.493-96.115h110.983L366.984,256z M400.943,69.76h-37.42l-2.923-5.064l-15.83-27.42
			C364.84,45.445,383.779,56.396,400.943,69.76z M195.831,27.738C215.385,22.602,235.605,20,256,20s40.615,2.602,60.169,7.738
			l30.034,52.022l-34.716,60.125H200.506L165.797,79.76L195.831,27.738z M167.23,37.275l-15.83,27.42l-2.924,5.064h-37.42
			C128.221,56.396,147.16,45.445,167.23,37.275z M88.493,89.76h59.983l17.355,30.064l17.355,30.064L127.695,246H58.274
			l-30.038-52.021C38.9,154.7,59.646,118.816,88.493,89.76z M20,256c0-10.882,0.742-21.729,2.217-32.447l11.775,20.392l6.946,12.029
			l-18.724,32.433C20.742,277.7,20,266.868,20,256z M28.232,317.984l1.614-2.796L58.243,266h69.452l55.48,96.094l-34.729,60.146
			H88.493C59.635,393.172,38.887,357.278,28.232,317.984z M111.057,442.24h37.42l2.924,5.064l15.83,27.42
			C147.16,466.555,128.221,455.603,111.057,442.24z M316.17,484.26C296.614,489.397,276.393,492,256,492
			c-20.395,0-40.615-2.602-60.169-7.738l-30.034-52.021l34.709-60.125h110.981l34.715,60.126L316.17,484.26z M344.77,474.725
			l15.83-27.42l2.923-5.064h37.42C383.779,455.603,364.84,466.555,344.77,474.725z M423.507,422.24h-59.983l-34.71-60.127
			L384.305,266h69.422l30.038,52.021C473.1,357.3,452.353,393.185,423.507,422.24z M489.783,288.447l-11.775-20.392l-6.946-12.029
			l18.724-32.433C491.258,234.3,492,245.132,492,256C492,266.882,491.258,277.729,489.783,288.447z"/>
	</g>
</g>
<g>
	<g>
		<path d="M319.14,278.869c-4.785-2.762-10.898-1.122-13.66,3.66l-17.082,29.586h-64.797L191.203,256l35.285-61.115
			c2.762-4.783,1.123-10.898-3.66-13.66c-4.784-2.761-10.897-1.123-13.66,3.66L170.996,251c-1.786,3.094-1.786,6.906,0,10
			l38.172,66.115c1.786,3.094,5.088,5,8.66,5h76.344c3.572,0,6.874-1.906,8.659-5l19.969-34.586
			C325.562,287.746,323.923,281.631,319.14,278.869z"/>
	</g>
</g>
<g>
	<g>
		<path d="M339.958,249.47l-0.542-0.542c-3.907-3.904-10.237-3.904-14.143,0c-3.905,3.906-3.905,10.238,0,14.143l0.542,0.542
			c1.953,1.952,4.511,2.929,7.071,2.929c2.559,0,5.118-0.977,7.072-2.929C343.863,259.707,343.863,253.375,339.958,249.47z"/>
	</g>
</g>
<g>
</g>
<g>
</g>
<g>
</g>
<g>
</g>
<g>
</g>
<g>
</g>
<g>
</g>
<g>
</g>
<g>
</g>
<g>
</g>
<g>
</g>
<g>
</g>
<g>
</g>
<g>
</g>
<g>
</g>
</svg>
