<?xml version="1.0" encoding="iso-8859-1"?>
<!-- Generator: Adobe Illustrator 19.0.0, SVG Export Plug-In . SVG Version: 6.00 Build 0)  -->
<svg version="1.1" id="Capa_1" xmlns="http://www.w3.org/2000/svg" xmlns:xlink="http://www.w3.org/1999/xlink" x="0px" y="0px"
	 viewBox="0 0 512.002 512.002" style="enable-background:new 0 0 512.002 512.002;" xml:space="preserve">
<g>
	<g>
		<path d="M78.548,348.572c-0.13-0.64-0.32-1.27-0.57-1.88c-0.25-0.6-0.56-1.18-0.92-1.72c-0.359-0.55-0.779-1.06-1.24-1.52
			c-0.47-0.46-0.98-0.881-1.52-1.25c-0.549-0.36-1.129-0.67-1.73-0.91c-0.599-0.26-1.229-0.45-1.869-0.58
			c-1.29-0.26-2.62-0.26-3.91,0c-0.641,0.13-1.27,0.32-1.87,0.58c-0.6,0.24-1.179,0.55-1.73,0.91c-0.54,0.369-1.05,0.79-1.51,1.25
			c-0.47,0.46-0.88,0.97-1.25,1.52c-0.36,0.54-0.67,1.12-0.92,1.72c-0.25,0.61-0.44,1.24-0.57,1.88s-0.199,1.301-0.199,1.95
			c0,0.65,0.069,1.31,0.199,1.95c0.13,0.64,0.32,1.27,0.57,1.87c0.25,0.611,0.56,1.191,0.92,1.73c0.37,0.55,0.78,1.06,1.25,1.52
			c0.46,0.46,0.97,0.88,1.51,1.24c0.55,0.359,1.129,0.67,1.73,0.92c0.599,0.25,1.229,0.439,1.87,0.569c0.649,0.131,1.3,0.2,1.96,0.2
			c0.65,0,1.31-0.07,1.95-0.2c0.64-0.13,1.269-0.319,1.869-0.569c0.6-0.25,1.18-0.561,1.73-0.92c0.541-0.36,1.05-0.78,1.52-1.24
			c0.461-0.459,0.881-0.969,1.24-1.52c0.36-0.539,0.67-1.12,0.92-1.73c0.25-0.599,0.44-1.23,0.57-1.87c0.13-0.639,0.2-1.3,0.2-1.95
			C78.748,349.873,78.678,349.213,78.548,348.572z"/>
	</g>
</g>
<g>
	<g>
		<path d="M510.606,298.103l-3.012-17.32c-0.072-0.415-0.171-0.826-0.295-1.229c-2.439-7.922-6.198-15.212-11.221-21.768
			c4.727-6.194,8.429-13.732,11.221-22.804c0.148-0.483,0.261-0.977,0.334-1.477l3.012-20.332c0.023-0.156,0.043-0.313,0.059-0.47
			c0.817-8.178,0.824-15.478,0.019-23.641l-0.741-11.866c-0.222-3.543-2.305-6.703-5.475-8.304c-3.17-1.599-6.951-1.398-9.932,0.528
			l-93.977,60.708c-18.763-16.383-47.982-37.678-82.997-48.807c3.302-5.235,7.622-9.845,12.678-13.445
			c2.635-1.876,4.199-4.91,4.199-8.145c0-3.234-1.564-6.27-4.199-8.146c-11.452-8.156-24.96-12.467-39.063-12.467
			c-27.151,0-51.396,16.182-61.948,40.794c-4.476,1.287-8.966,2.773-13.461,4.462c-0.006,0.002-0.012,0.005-0.018,0.007
			c-56.008,21.041-95.207,65.958-96.848,67.86c-3.239,3.753-3.239,9.313,0,13.066c1.641,1.902,40.84,46.819,96.848,67.859
			c0.006,0.002,0.012,0.005,0.018,0.007c4.495,1.689,8.985,3.175,13.461,4.462c10.552,24.612,34.797,40.795,61.948,40.795
			c14.102,0,27.609-4.312,39.063-12.468c2.635-1.876,4.199-4.911,4.199-8.146s-1.564-6.27-4.199-8.145
			c-5.057-3.601-9.376-8.211-12.679-13.445c35.015-11.129,64.234-32.425,82.997-48.808l93.977,60.708
			c1.645,1.063,3.532,1.6,5.427,1.6c1.551,0,3.106-0.36,4.536-1.088c3.175-1.617,5.25-4.8,5.447-8.357l0.742-13.35
			c0.763-8.103,0.098-25.538,0.019-27.517C510.728,298.977,510.681,298.537,510.606,298.103z M291.216,159.119
			c5.522,0,10.914,0.938,15.997,2.76c-3.852,4.348-7.113,9.175-9.725,14.387c-8.576-1.581-17.416-2.467-26.463-2.467
			c-4.914,0-9.875,0.268-14.871,0.799C264.946,164.948,277.555,159.119,291.216,159.119z M216.522,311.935
			c-36.012-15.173-64.319-41.094-76.268-53.159c11.952-12.069,40.26-37.988,76.268-53.16c12.309,14.959,19.019,33.598,19.019,53.16
			C235.54,278.337,228.83,296.976,216.522,311.935z M271.026,193.799c40.426,0,77.274,21.024,102.543,40.274
			c-12.866-3.186-27.876-5.574-43.976-5.574c-32.181,0-60.013,9.537-75.042,15.922c-2.283-16.524-8.49-32.156-18.158-45.73
			C248.171,195.447,259.772,193.799,271.026,193.799z M291.216,358.432c-13.661,0-26.271-5.829-35.062-15.48
			c4.996,0.531,9.957,0.799,14.871,0.799c9.047,0,17.887-0.886,26.463-2.467c2.611,5.212,5.872,10.04,9.725,14.388
			C302.13,357.493,296.738,358.432,291.216,358.432z M271.026,323.751c-11.253,0-22.855-1.648-34.632-4.892
			c9.667-13.574,15.875-29.205,18.158-45.729c15.029,6.385,42.86,15.921,75.042,15.921c16.1,0,31.11-2.388,43.976-5.573
			C348.299,302.728,311.451,323.751,271.026,323.751z M329.593,269.051c-22.26,0-42.51-5.289-56.681-10.29
			c14.134-4.993,34.341-10.262,56.681-10.262c22.237,0,42.468,5.278,56.64,10.276C372.061,263.772,351.83,269.051,329.593,269.051z
			 M475.609,264.717c5.795,5.794,9.962,12.569,12.393,20.145l2.784,16.01c0.174,4.635,0.446,14.802,0.212,21.138l-75.377-48.693
			c4.4-4.458,6.995-7.426,7.497-8.009c3.239-3.753,3.239-9.313,0-13.066c-0.502-0.582-3.097-3.55-7.497-8.008l75.542-48.799
			c0.286,5.033,0.174,9.829-0.338,15.048l-2.861,19.321c-2.885,9.075-6.805,15.757-11.974,20.409
			c-2.039,1.835-3.235,4.428-3.307,7.17S473.669,262.776,475.609,264.717z"/>
	</g>
</g>
<g>
	<g>
		<path d="M78.745,47.885V10c0-5.522-4.478-10-10-10c-5.522,0-10,4.478-10,10v37.885C25.938,52.736,0.681,81.079,0.681,115.214
			s25.258,62.478,58.065,67.329v132.703h-0.001c0,5.522,4.478,10,10,10s10-4.478,10-10V182.543
			c32.807-4.852,58.065-33.195,58.065-67.329S111.552,52.737,78.745,47.885z M68.745,163.279c-23.076,0-42.404-16.344-47.018-38.065
			h94.038C111.151,146.935,91.821,163.279,68.745,163.279z M21.727,105.213c4.614-21.72,23.943-38.065,47.018-38.065
			s42.405,16.345,47.02,38.065H21.727z"/>
	</g>
</g>
<g>
	<g>
		<path d="M197.963,349.022c-3.916-1.454-8.329-0.319-11.058,2.85l-58.575,68.015c-2.552,2.962-3.143,7.14-1.513,10.693
			c1.629,3.554,5.181,5.832,9.09,5.832h48.575v2.722c0,29.151-23.717,52.868-52.869,52.868c-29.151,0-52.868-23.717-52.868-52.868
			v-50.676c0-5.522-4.478-10-10-10c-5.522,0-10,4.478-10,10v50.676c0,40.18,32.689,72.868,72.869,72.868
			s72.868-32.689,72.868-72.868v-80.736C204.483,354.217,201.882,350.478,197.963,349.022z M184.483,416.412h-26.766l26.766-31.079
			V416.412z"/>
	</g>
</g>
<g>
	<g>
		<path d="M211.348,226.079c-5.522,0-10,4.478-10,10v4.84c0,5.522,4.478,10,10,10c5.522,0,10-4.478,10-10v-4.84
			C221.348,230.557,216.871,226.079,211.348,226.079z"/>
	</g>
</g>
<g>
</g>
<g>
</g>
<g>
</g>
<g>
</g>
<g>
</g>
<g>
</g>
<g>
</g>
<g>
</g>
<g>
</g>
<g>
</g>
<g>
</g>
<g>
</g>
<g>
</g>
<g>
</g>
<g>
</g>
</svg>
