<?xml version="1.0" encoding="iso-8859-1"?>
<!-- Generator: Adobe Illustrator 19.0.0, SVG Export Plug-In . SVG Version: 6.00 Build 0)  -->
<svg version="1.1" id="Capa_1" xmlns="http://www.w3.org/2000/svg" xmlns:xlink="http://www.w3.org/1999/xlink" x="0px" y="0px"
	 viewBox="0 0 512 512" style="enable-background:new 0 0 512 512;" xml:space="preserve">
<g>
	<g>
		<path d="M273.53,241.671c-0.13-0.63-0.32-1.26-0.57-1.87c-0.25-0.6-0.56-1.18-0.92-1.72c-0.36-0.55-0.78-1.06-1.24-1.52
			c-0.46-0.46-0.97-0.88-1.52-1.25c-0.54-0.359-1.12-0.66-1.73-0.91c-0.6-0.25-1.23-0.449-1.87-0.58c-1.29-0.26-2.61-0.26-3.9,0
			c-0.64,0.131-1.27,0.33-1.88,0.58c-0.6,0.25-1.18,0.551-1.72,0.91c-0.55,0.37-1.06,0.79-1.52,1.25
			c-0.46,0.459-0.88,0.969-1.25,1.52c-0.36,0.54-0.66,1.12-0.91,1.72c-0.25,0.61-0.45,1.24-0.57,1.87c-0.13,0.649-0.2,1.31-0.2,1.96
			c0,0.649,0.07,1.309,0.2,1.95c0.12,0.64,0.32,1.269,0.57,1.87c0.25,0.61,0.56,1.19,0.92,1.73c0.36,0.549,0.78,1.06,1.24,1.52
			c0.46,0.46,0.97,0.88,1.52,1.239c0.54,0.36,1.12,0.67,1.72,0.92c0.61,0.25,1.24,0.45,1.88,0.57c0.64,0.13,1.3,0.2,1.95,0.2
			c0.65,0,1.31-0.07,1.95-0.2c0.64-0.12,1.27-0.32,1.87-0.57c0.61-0.25,1.19-0.56,1.73-0.92c0.55-0.359,1.06-0.779,1.52-1.239
			c0.46-0.459,0.88-0.97,1.24-1.52c0.36-0.541,0.67-1.121,0.92-1.73c0.25-0.6,0.44-1.23,0.57-1.87s0.2-1.301,0.2-1.95
			C273.73,242.981,273.66,242.32,273.53,241.671z"/>
	</g>
</g>
<g>
	<g>
		<path d="M489.885,365.258l-45.381-44.238c-3.884-3.785-10.077-3.786-13.961,0.001l-13.568,13.226l-46.545-80.618h1.925
			c3.573,0,6.874-1.906,8.66-5c1.787-3.094,1.787-6.906,0-10l-59.318-102.742h1.21c3.573,0,6.874-1.906,8.66-5
			c1.787-3.094,1.787-6.906,0-10L264.66,5c-1.786-3.094-5.087-5-8.66-5s-6.874,1.906-8.66,5l-66.907,115.887
			c-1.787,3.094-1.787,6.906,0,10c1.786,3.094,5.087,5,8.66,5h1.21l-59.318,102.742c-1.787,3.094-1.787,6.906,0,10
			c1.786,3.094,5.087,5,8.66,5h1.925l-46.545,80.618L81.457,321.02c-3.884-3.787-10.077-3.787-13.961,0l-45.381,44.237
			c-1.931,1.883-3.02,4.465-3.02,7.161V502c0,5.522,4.477,10,10,10h453.809c5.523,0,10-4.478,10-10V372.419
			C492.904,369.723,491.815,367.141,489.885,365.258z M256,30l49.587,85.887h-99.174L256,30z M164.664,253.629h53.335v0
			c5.523,0,10-4.478,10-10c0-5.523-4.477-10-10-10h-61.034l56.432-97.742h85.206l56.432,97.742H313c-5.523,0-10,4.477-10,10
			c0,5.522,4.477,10,10,10h34.336l37.029,64.136h-256.73L164.664,253.629z M109.858,421.771H74.477c-5.523,0-10,4.477-10,10
			c0,5.522,4.477,10,10,10h35.381V492H39.096V376.636l35.381-34.49l35.381,34.49V421.771z M109.803,348.653l6.284-10.887h24.993
			l-21.222,20.688L109.803,348.653z M200.619,492h-70.762v-50.229h70.762V492z M200.619,421.771h-70.762v-45.135l35.381-34.49
			l35.381,34.49V421.771z M189.397,337.766h42.445l-21.223,20.688L189.397,337.766z M291.382,492h-70.762v-50.229h70.762V492z
			 M291.382,421.771h-70.762v-45.135L256,342.146l35.381,34.49V421.771z M280.158,337.765h42.445l-21.222,20.688L280.158,337.765z
			 M382.143,492h-70.762v-50.229h70.762V492z M382.144,421.771h-70.762v-45.135l35.381-34.49l35.381,34.49V421.771z
			 M370.921,337.766h24.992l6.285,10.887l-10.054,9.801L370.921,337.766z M402.142,492v-50.229h35.38c5.523,0,10-4.478,10-10
			c0-5.523-4.477-10-10-10h-35.38v-45.135l35.38-34.49l35.381,34.49V492H402.142z"/>
	</g>
</g>
<g>
</g>
<g>
</g>
<g>
</g>
<g>
</g>
<g>
</g>
<g>
</g>
<g>
</g>
<g>
</g>
<g>
</g>
<g>
</g>
<g>
</g>
<g>
</g>
<g>
</g>
<g>
</g>
<g>
</g>
</svg>
