<?xml version="1.0" encoding="iso-8859-1"?>
<!-- Generator: Adobe Illustrator 19.0.0, SVG Export Plug-In . SVG Version: 6.00 Build 0)  -->
<svg version="1.1" id="Capa_1" xmlns="http://www.w3.org/2000/svg" xmlns:xlink="http://www.w3.org/1999/xlink" x="0px" y="0px"
	 viewBox="0 0 512 512" style="enable-background:new 0 0 512 512;" xml:space="preserve">
<g>
	<g>
		<path d="M383.199,232.64c-0.13-0.64-0.32-1.27-0.57-1.87c-0.25-0.61-0.56-1.19-0.92-1.73c-0.37-0.55-0.78-1.06-1.24-1.52
			c-2.32-2.32-5.78-3.39-9.03-2.73c-0.64,0.13-1.27,0.32-1.87,0.57c-0.6,0.25-1.18,0.56-1.73,0.92c-0.54,0.36-1.06,0.78-1.52,1.24
			c-0.46,0.46-0.88,0.97-1.24,1.52c-0.36,0.54-0.67,1.12-0.92,1.73c-0.25,0.6-0.44,1.23-0.57,1.87c-0.13,0.64-0.19,1.3-0.19,1.95
			c0,0.65,0.06,1.31,0.19,1.96c0.13,0.63,0.32,1.26,0.57,1.87c0.25,0.6,0.56,1.18,0.92,1.72c0.36,0.55,0.78,1.06,1.24,1.52
			c0.46,0.46,0.98,0.88,1.52,1.25c0.55,0.36,1.13,0.67,1.73,0.92c0.6,0.25,1.23,0.44,1.87,0.57c0.65,0.13,1.3,0.19,1.96,0.19
			c0.65,0,1.3-0.06,1.95-0.19c0.64-0.13,1.27-0.32,1.87-0.57c0.6-0.25,1.18-0.56,1.73-0.92c0.54-0.37,1.05-0.79,1.52-1.25
			c0.46-0.46,0.87-0.97,1.24-1.52c0.36-0.54,0.67-1.12,0.92-1.72c0.25-0.61,0.44-1.24,0.57-1.87c0.131-0.65,0.19-1.31,0.19-1.96
			C383.389,233.94,383.329,233.28,383.199,232.64z"/>
	</g>
</g>
<g>
	<g>
		<path d="M336.395,224.592H154.189c-5.523,0-10,4.477-10,10s4.477,10,10,10h182.206c5.523,0,10-4.477,10-10
			S341.918,224.592,336.395,224.592z"/>
	</g>
</g>
<g>
	<g>
		<path d="M163.99,97.5c-0.12-0.64-0.32-1.27-0.57-1.87c-0.25-0.6-0.56-1.18-0.92-1.73c-0.36-0.54-0.78-1.06-1.24-1.52
			s-0.97-0.88-1.52-1.24c-0.54-0.36-1.12-0.67-1.72-0.92c-0.61-0.25-1.24-0.44-1.87-0.57c-1.29-0.26-2.62-0.26-3.91,0
			c-0.64,0.13-1.27,0.32-1.87,0.57c-0.61,0.25-1.19,0.56-1.73,0.92c-0.55,0.36-1.059,0.78-1.52,1.24c-0.46,0.46-0.88,0.98-1.24,1.52
			c-0.36,0.55-0.67,1.13-0.92,1.73s-0.45,1.23-0.57,1.87c-0.13,0.65-0.2,1.3-0.2,1.96c0,0.65,0.07,1.3,0.2,1.95
			c0.12,0.64,0.32,1.27,0.57,1.87c0.25,0.6,0.56,1.18,0.92,1.73c0.36,0.54,0.78,1.06,1.24,1.52c0.461,0.46,0.97,0.88,1.52,1.24
			c0.54,0.36,1.12,0.67,1.73,0.92c0.6,0.25,1.23,0.44,1.87,0.57c0.64,0.13,1.3,0.2,1.95,0.2c0.65,0,1.31-0.07,1.96-0.2
			c0.63-0.13,1.26-0.32,1.87-0.57c0.6-0.25,1.18-0.56,1.72-0.92c0.55-0.36,1.06-0.78,1.52-1.24c0.46-0.46,0.88-0.98,1.24-1.52
			c0.36-0.55,0.67-1.13,0.92-1.73c0.25-0.6,0.45-1.23,0.57-1.87c0.13-0.65,0.2-1.3,0.2-1.95C164.189,98.8,164.12,98.15,163.99,97.5z
			"/>
	</g>
</g>
<g>
	<g>
		<path d="M373.393,89.455H191.189c-5.523,0-10,4.477-10,10s4.477,10,10,10h182.206c5.523,0,10-4.477,9.999-10
			C383.393,93.932,378.916,89.455,373.393,89.455z"/>
	</g>
</g>
<g>
	<g>
		<path d="M407.525,155.975c2.484,0,4.88-0.925,6.72-2.594l51.271-46.519c2.089-1.895,3.28-4.585,3.28-7.406
			s-1.192-5.511-3.281-7.407l-51.271-46.52c-1.84-1.669-4.235-2.594-6.72-2.594H295.983V10c0-5.523-4.477-10-10-10h-58.991
			c-5.523,0-10,4.477-10,10v32.936H94.184c-5.523,0-10,4.477-10,10v93.039c0,5.523,4.477,10,10,10h122.808v22.098H104.474
			c-2.484,0-4.88,0.925-6.72,2.594l-51.271,46.519c-2.089,1.896-3.28,4.585-3.28,7.406s1.191,5.511,3.28,7.406l51.271,46.519
			c1.84,1.669,4.235,2.594,6.72,2.594h112.518v97.127c-8.455-3.978-17.816-6.159-27.509-6.159
			c-35.679,0-64.707,29.027-64.707,64.707c0,0.739,0.017,1.478,0.042,2.216H79.835c-5.523,0-10,4.477-10,10V502
			c0,5.523,4.477,10,10,10h353.304c5.523,0,10-4.477,10-10v-42.998c0-5.523-4.477-10-10-10h-6.285
			c-4.683-24.177-26.006-42.49-51.531-42.49c-7.256,0-14.31,1.466-20.833,4.293c-11.882-17.732-32.002-28.725-53.788-28.725
			c-1.584,0-3.158,0.063-4.721,0.175v-91.144h121.832c5.523,0,10-4.477,10-10v-93.038c0-5.523-4.477-10-10-10h-121.83v-22.098
			H407.525z M275.983,20v22.936h-38.991V20H275.983z M189.484,402.079c17.59,0,33.61,10.374,40.813,26.428
			c1.228,2.736,3.618,4.776,6.512,5.56c2.894,0.782,5.988,0.225,8.427-1.519c3.45-2.467,7.291-4.207,11.35-5.166
			c0.016-0.004,0.032-0.007,0.048-0.011c2.424-0.569,4.926-0.86,7.47-0.86c14.428,0,26.689,9.452,30.916,22.49H144.83
			c-0.036-0.736-0.054-1.476-0.054-2.215C144.776,422.135,164.832,402.079,189.484,402.079z M236.993,402.865V291.111h38.991v95.841
			c-10.995,4.529-20.632,12.068-27.784,22.009c-1.672,0.531-3.316,1.145-4.928,1.844C241.38,407.981,239.277,405.33,236.993,402.865
			z M423.139,469.002V492H89.835v-22.998H423.139z M300.704,402.079c17.59,0,33.611,10.374,40.814,26.428
			c1.228,2.736,3.618,4.776,6.512,5.559c2.895,0.785,5.988,0.226,8.427-1.518c5.525-3.95,12.049-6.037,18.868-6.037
			c14.428,0,26.689,9.452,30.916,22.49h-90.606c-3.811-19.678-18.647-35.468-37.799-40.664c3.313-1.973,6.88-3.506,10.617-4.563
			c0.059-0.015,0.117-0.032,0.176-0.048C292.501,402.648,296.554,402.079,300.704,402.079z M407.814,198.072v73.039h-299.48
			l-40.25-36.519l40.25-36.52H407.814z M236.993,178.072v-22.098h38.991v22.098H236.993z M104.184,135.974V62.936h299.48
			l40.25,36.52l-40.25,36.518H104.184z"/>
	</g>
</g>
<g>
</g>
<g>
</g>
<g>
</g>
<g>
</g>
<g>
</g>
<g>
</g>
<g>
</g>
<g>
</g>
<g>
</g>
<g>
</g>
<g>
</g>
<g>
</g>
<g>
</g>
<g>
</g>
<g>
</g>
</svg>
