<?xml version="1.0" encoding="iso-8859-1"?>
<!-- Generator: Adobe Illustrator 19.0.0, SVG Export Plug-In . SVG Version: 6.00 Build 0)  -->
<svg version="1.1" id="Capa_1" xmlns="http://www.w3.org/2000/svg" xmlns:xlink="http://www.w3.org/1999/xlink" x="0px" y="0px"
	 viewBox="0 0 512 512" style="enable-background:new 0 0 512 512;" xml:space="preserve">
<g>
	<g>
		<path d="M296.156,205.395c-59.772,0-108.4,48.628-108.4,108.399c0,59.772,48.628,108.4,108.4,108.4
			c59.772,0,108.4-48.628,108.4-108.4C404.556,254.023,355.928,205.395,296.156,205.395z M296.156,402.194
			c-48.744,0-88.4-39.656-88.4-88.4c0-48.743,39.656-88.399,88.4-88.399s88.4,39.656,88.4,88.399
			C384.556,362.538,344.9,402.194,296.156,402.194z"/>
	</g>
</g>
<g>
	<g>
		<path d="M302.058,246.628c-3.501-2.557-8.251-2.57-11.764-0.028c-1.909,1.382-46.751,34.333-46.751,77.825
			c0,29.01,23.602,52.613,52.613,52.613s52.614-23.603,52.614-52.613C348.77,281.272,303.965,248.024,302.058,246.628z
			 M296.156,357.039c-17.983,0-32.613-14.63-32.613-32.613c0-25.141,21.821-47.366,32.603-56.811
			c10.79,9.478,32.624,31.753,32.624,56.811C328.77,342.409,314.139,357.039,296.156,357.039z"/>
	</g>
</g>
<g>
	<g>
		<path d="M453.47,173.441c-0.13-0.64-0.32-1.269-0.57-1.87c-0.25-0.6-0.56-1.19-0.92-1.73c-0.36-0.549-0.78-1.06-1.24-1.52
			c-0.46-0.46-0.98-0.88-1.52-1.239c-0.55-0.361-1.13-0.67-1.73-0.92c-0.6-0.25-1.23-0.44-1.87-0.57c-1.29-0.26-2.62-0.26-3.91,0
			c-0.64,0.129-1.27,0.32-1.87,0.57c-0.6,0.25-1.18,0.56-1.72,0.92c-0.55,0.359-1.06,0.779-1.53,1.239
			c-0.46,0.459-0.87,0.97-1.24,1.52c-0.36,0.541-0.67,1.13-0.92,1.73s-0.44,1.23-0.57,1.87s-0.19,1.301-0.19,1.95
			c0,0.66,0.06,1.311,0.19,1.96c0.13,0.641,0.32,1.27,0.57,1.87c0.25,0.599,0.56,1.179,0.92,1.73c0.37,0.541,0.78,1.06,1.24,1.52
			c0.47,0.46,0.98,0.88,1.53,1.24c0.54,0.359,1.12,0.67,1.72,0.92c0.61,0.25,1.24,0.439,1.87,0.57c0.65,0.129,1.31,0.189,1.96,0.189
			c0.65,0,1.31-0.06,1.95-0.189c0.64-0.131,1.27-0.32,1.87-0.57c0.6-0.25,1.18-0.561,1.73-0.92c0.54-0.36,1.06-0.78,1.52-1.24
			c0.46-0.46,0.88-0.98,1.24-1.52c0.36-0.55,0.67-1.13,0.92-1.73c0.25-0.599,0.44-1.229,0.57-1.87c0.13-0.649,0.2-1.3,0.2-1.96
			C453.67,174.742,453.6,174.081,453.47,173.441z"/>
	</g>
</g>
<g>
	<g>
		<path d="M502,23.658H90.312c-5.523,0-10,4.478-10,10v46.013H40.641C18.231,79.671,0,97.902,0,120.312v227.107
			c0,22.409,18.231,40.641,40.641,40.641h59.038v32.408c0,37.427,30.448,67.875,67.875,67.875h257.207
			c37.426,0,67.874-30.448,67.874-67.875V99.671H502c5.523,0,10-4.478,10-10V33.658C512,28.136,507.523,23.658,502,23.658z
			 M99.679,322.333h-0.001H65.726V145.398h33.953V322.333z M99.679,125.398H55.726c-5.523,0-10,4.478-10,10v196.936
			c0,5.522,4.477,10,10,10h43.953v25.726H40.641v-0.001c-11.381,0-20.641-9.26-20.641-20.641V120.312
			c0-11.381,9.259-20.641,20.641-20.641h59.038V125.398z M472.634,420.467c0,26.398-21.477,47.875-47.874,47.875H167.553
			c-26.398,0-47.875-21.477-47.875-47.875V185.395h102.134c-44.244,25.717-74.055,73.642-74.055,128.399
			c0,81.828,66.572,148.399,148.4,148.399s148.4-66.571,148.4-148.399c0-54.758-29.811-102.683-74.055-128.399h36.167
			c5.523,0,10-4.477,10-10c0-5.522-4.477-10-10-10H119.678V153.4h352.956V420.467z M296.156,185.395
			c70.8,0,128.4,57.6,128.4,128.399c0,70.8-57.6,128.399-128.4,128.399s-128.4-57.6-128.4-128.399
			C167.756,242.994,225.356,185.395,296.156,185.395z M472.634,133.399H119.678V99.671h352.956V133.399z M492,79.671H100.312V43.658
			H492V79.671z"/>
	</g>
</g>
<g>
</g>
<g>
</g>
<g>
</g>
<g>
</g>
<g>
</g>
<g>
</g>
<g>
</g>
<g>
</g>
<g>
</g>
<g>
</g>
<g>
</g>
<g>
</g>
<g>
</g>
<g>
</g>
<g>
</g>
</svg>
