<?xml version="1.0" encoding="iso-8859-1"?>
<!-- Generator: Adobe Illustrator 19.0.0, SVG Export Plug-In . SVG Version: 6.00 Build 0)  -->
<svg version="1.1" id="Capa_1" xmlns="http://www.w3.org/2000/svg" xmlns:xlink="http://www.w3.org/1999/xlink" x="0px" y="0px"
	 viewBox="0 0 512 512" style="enable-background:new 0 0 512 512;" xml:space="preserve">
<g>
	<g>
		<path d="M363.85,181.67c-0.13-0.64-0.32-1.27-0.57-1.87c-0.25-0.61-0.56-1.19-0.92-1.73c-0.36-0.55-0.78-1.06-1.24-1.52
			c-0.46-0.46-0.98-0.88-1.52-1.24c-0.55-0.361-1.13-0.671-1.73-0.921c-0.6-0.25-1.23-0.45-1.87-0.57c-1.29-0.26-2.62-0.26-3.91,0
			c-0.64,0.12-1.27,0.32-1.87,0.57c-0.6,0.25-1.18,0.561-1.72,0.921c-0.55,0.36-1.06,0.78-1.52,1.24c-0.47,0.46-0.88,0.97-1.25,1.52
			c-0.36,0.54-0.67,1.12-0.92,1.73c-0.25,0.6-0.44,1.23-0.57,1.87s-0.19,1.3-0.19,1.95c0,0.65,0.06,1.31,0.19,1.95
			c0.13,0.64,0.32,1.27,0.57,1.87c0.25,0.61,0.56,1.19,0.92,1.73c0.37,0.55,0.78,1.06,1.25,1.52c0.46,0.46,0.97,0.88,1.52,1.24
			c0.54,0.36,1.12,0.67,1.72,0.92c0.6,0.25,1.23,0.45,1.87,0.57c0.65,0.13,1.3,0.2,1.96,0.2c0.65,0,1.3-0.07,1.95-0.2
			c0.64-0.12,1.27-0.32,1.87-0.57c0.6-0.25,1.18-0.56,1.73-0.92c0.54-0.36,1.06-0.78,1.52-1.24c0.46-0.46,0.88-0.97,1.24-1.52
			c0.36-0.54,0.67-1.12,0.92-1.73c0.25-0.6,0.44-1.23,0.57-1.87c0.13-0.64,0.19-1.3,0.19-1.95
			C364.04,182.97,363.98,182.31,363.85,181.67z"/>
	</g>
</g>
<g>
	<g>
		<path d="M416.811,123.767c-32.058-32.058-72-53.366-115.454-62.114c1.414-4.538,2.141-9.296,2.141-14.154
			C303.498,21.308,282.19,0,256,0s-47.498,21.308-47.498,47.498c0,4.859,0.727,9.617,2.141,14.154
			c-43.454,8.748-83.396,30.057-115.454,62.114c-42.954,42.954-66.61,100.065-66.61,160.811c0,60.746,23.656,117.857,66.61,160.811
			C138.143,488.344,195.253,512,256,512s117.857-23.656,160.811-66.61c42.954-42.954,66.61-100.065,66.61-160.811
			C483.421,223.833,459.766,166.721,416.811,123.767z M256,20c15.163,0,27.498,12.335,27.498,27.498
			c0,3.847-0.785,7.582-2.297,11.03c-8.31-0.91-16.72-1.372-25.201-1.372s-16.89,0.461-25.201,1.372
			c-1.512-3.448-2.297-7.183-2.297-11.03C228.502,32.335,240.837,20,256,20z M256,492c-114.373,0-207.422-93.049-207.422-207.422
			S141.627,77.156,256,77.156s207.422,93.049,207.422,207.422S370.373,492,256,492z"/>
	</g>
</g>
<g>
	<g>
		<path d="M256,95.468c-104.275,0-189.11,84.834-189.11,189.11s84.834,189.11,189.11,189.11s189.11-84.834,189.11-189.11
			S360.275,95.468,256,95.468z M256,453.688c-93.248,0-169.11-75.862-169.11-169.11c0-93.247,75.862-169.11,169.11-169.11
			s169.11,75.862,169.11,169.11S349.248,453.688,256,453.688z"/>
	</g>
</g>
<g>
	<g>
		<path d="M396.797,274.578c-5.523,0-10,4.477-10,10c0,72.122-58.675,130.797-130.797,130.797S125.203,356.7,125.203,284.578
			S183.878,153.781,256,153.781c19.187,0,37.682,4.077,54.969,12.119c5.008,2.33,10.956,0.158,13.285-4.849
			c2.33-5.008,0.158-10.956-4.849-13.285c-19.949-9.28-41.282-13.985-63.404-13.985c-83.15,0-150.797,67.647-150.797,150.797
			S172.85,435.375,256,435.375s150.797-67.647,150.797-150.797C406.797,279.055,402.32,274.578,396.797,274.578z"/>
	</g>
</g>
<g>
	<g>
		<path d="M336.615,274.578h-29.117l22.118-50.443c1.654-3.773,0.826-8.174-2.087-11.087c-2.913-2.913-7.313-3.741-11.086-2.087
			L266,233.079v-29.117c0-5.523-4.477-10-10-10s-10,4.477-10,10v37.674c0,0.071,0.001,0.141,0.003,0.211l-8.97,3.933
			c-4.412,1.935-8.376,4.643-11.782,8.048c-3.406,3.406-6.114,7.371-8.048,11.783l-3.933,8.97c-0.07-0.001-0.141-0.003-0.211-0.003
			h-37.674c-5.523,0-10,4.477-10,10s4.477,10,10,10h29.117l-22.118,50.443c-1.654,3.773-0.826,8.174,2.087,11.087
			c1.915,1.915,4.474,2.929,7.074,2.929c1.355-0.001,2.721-0.275,4.013-0.842L246,336.077v29.117c0,5.523,4.477,10,10,10
			s10-4.477,10-10V327.52c0-0.071-0.001-0.141-0.003-0.212l8.969-3.933c4.412-1.934,8.376-4.642,11.783-8.048
			c3.405-3.406,6.113-7.37,8.048-11.782l3.933-8.97c0.07,0.001,0.141,0.003,0.211,0.003h37.674c5.523,0,10-4.477,10-10
			S342.138,274.578,336.615,274.578z M210.987,329.591l23.131-52.753l29.622,29.622L210.987,329.591z M277.882,292.318
			l-29.622-29.622l52.753-23.131L277.882,292.318z"/>
	</g>
</g>
<g>
</g>
<g>
</g>
<g>
</g>
<g>
</g>
<g>
</g>
<g>
</g>
<g>
</g>
<g>
</g>
<g>
</g>
<g>
</g>
<g>
</g>
<g>
</g>
<g>
</g>
<g>
</g>
<g>
</g>
</svg>
