<?xml version="1.0" encoding="iso-8859-1"?>
<!-- Generator: Adobe Illustrator 19.0.0, SVG Export Plug-In . SVG Version: 6.00 Build 0)  -->
<svg version="1.1" id="Capa_1" xmlns="http://www.w3.org/2000/svg" xmlns:xlink="http://www.w3.org/1999/xlink" x="0px" y="0px"
	 viewBox="0 0 512.001 512.001" style="enable-background:new 0 0 512.001 512.001;" xml:space="preserve">
<g>
	<g>
		<path d="M21.735,8.045c-0.13-0.64-0.32-1.27-0.57-1.87c-0.25-0.61-0.56-1.19-0.92-1.73c-0.37-0.55-0.78-1.06-1.25-1.52
			c-0.46-0.46-0.97-0.88-1.52-1.24c-0.54-0.36-1.12-0.67-1.72-0.92c-0.6-0.25-1.23-0.44-1.87-0.57c-1.29-0.26-2.62-0.26-3.91,0
			c-0.64,0.13-1.27,0.32-1.87,0.57c-0.6,0.25-1.18,0.56-1.73,0.92c-0.54,0.36-1.06,0.78-1.52,1.24c-0.46,0.46-0.88,0.97-1.24,1.52
			c-0.36,0.54-0.67,1.12-0.92,1.73c-0.25,0.6-0.44,1.23-0.57,1.87c-0.13,0.64-0.19,1.3-0.19,1.95c0,0.65,0.06,1.31,0.19,1.95
			s0.32,1.27,0.57,1.88c0.25,0.6,0.56,1.18,0.92,1.72c0.36,0.55,0.78,1.06,1.24,1.52c0.46,0.46,0.98,0.88,1.52,1.24
			c0.55,0.37,1.13,0.67,1.73,0.92c0.6,0.25,1.23,0.45,1.87,0.57c0.65,0.13,1.3,0.2,1.95,0.2c0.66,0,1.31-0.07,1.96-0.2
			c0.64-0.12,1.27-0.32,1.87-0.57c0.6-0.25,1.18-0.55,1.72-0.92c0.55-0.36,1.06-0.78,1.52-1.24c0.47-0.46,0.88-0.97,1.25-1.52
			c0.36-0.54,0.67-1.12,0.92-1.72c0.25-0.61,0.44-1.24,0.57-1.88s0.19-1.3,0.19-1.95C21.925,9.345,21.865,8.685,21.735,8.045z"/>
	</g>
</g>
<g>
	<g>
		<path d="M507.137,424.406l-67.775-67.775c-1.735-1.735-4.048-2.772-6.499-2.912l-66.907-3.838l-1.755-1.755
			c26.559-27.53,49.334-60.725,67.741-98.763c15.401-31.829,27.8-67.108,36.85-104.854c15.394-64.201,15.777-112.783,15.786-114.82
			c0.011-2.667-1.043-5.229-2.929-7.115c-1.876-1.875-4.419-2.929-7.071-2.929h-0.043c-2.037,0.009-50.619,0.393-114.82,15.787
			c-37.746,9.051-73.024,21.449-104.854,36.851c-38.038,18.406-71.232,41.18-98.763,67.741L52.913,36.837
			c-3.904-3.905-10.237-3.905-14.142,0s-3.905,10.237,0,14.142l103.364,103.364c-24.146,26.306-44.996,57.442-62.083,92.751
			c-15.401,31.829-27.8,67.107-36.85,104.854c-15.394,64.201-15.777,112.783-15.786,114.82c-0.011,2.667,1.043,5.228,2.929,7.114
			c1.876,1.875,4.42,2.929,7.071,2.929h0.043c2.037-0.009,50.62-0.392,114.82-15.787c37.746-9.05,73.024-21.449,104.854-36.85
			c34.35-16.621,64.749-36.806,90.595-60.122l4.058,70.746c0.14,2.45,1.177,4.763,2.912,6.499l67.775,67.775
			c1.953,1.953,4.512,2.929,7.071,2.929s5.118-0.976,7.071-2.929l70.523-70.522c1.875-1.875,2.929-4.419,2.929-7.071
			C510.065,428.825,509.012,426.282,507.137,424.406z M148.115,441.455c-45.06,10.847-82.831,14.037-100.315,14.971
			c0.935-17.486,4.124-55.255,14.971-100.315c12.92-53.673,39.54-128.428,93.524-187.609l14.739,14.739
			c-43.912,48.528-68.127,108.283-80.889,151.188c-2.442,8.21-4.719,16.632-6.766,25.034c-4.897,20.087-8.733,40.823-11.403,61.633
			c-0.394,3.071,0.657,6.152,2.847,8.342c1.887,1.888,4.436,2.93,7.072,2.93c0.421,0,0.846-0.027,1.269-0.081
			c29.742-3.804,58.912-9.902,86.698-18.125c0.002,0,0.003-0.001,0.004-0.001c61.136-18.092,111.901-45.297,151.132-80.957
			l14.726,14.726C276.542,401.915,201.786,428.535,148.115,441.455z M400.952,162.005c-13.074,42.002-37.172,98.554-79.761,143.11
			l-14.406-14.406c18.853-19.941,32.696-42.478,39.22-63.981c7.64-25.184,4.514-46.388-8.802-59.706
			c-13.317-13.316-34.522-16.442-59.706-8.802c-21.503,6.524-44.039,20.367-63.982,39.22l-14.403-14.403
			c36.472-34.941,84.531-61.778,143.022-79.85L400.952,162.005z M364.162,96.93c17.635-4.583,35.77-8.298,54.192-11.101
			c-2.396,15.683-10.449,51.594-11.122,54.172L364.162,96.93z M227.666,211.59c17.606-16.557,37.185-28.632,55.639-34.23
			c7.027-2.132,13.563-3.186,19.374-3.186c8.685,0,15.747,2.356,20.382,6.992c7.737,7.736,9.124,22.227,3.806,39.756
			c-5.599,18.452-17.673,38.032-34.23,55.638L227.666,211.59z M278.186,290.396c-15.948,13.719-33.163,23.746-49.495,28.702
			c-17.53,5.317-32.02,3.93-39.756-3.806c-7.737-7.736-9.124-22.227-3.806-39.756c4.955-16.332,14.983-33.547,28.702-49.495
			L278.186,290.396z M199.651,211.861c-37.906,43.405-49.094,93.338-24.86,117.573c8.547,8.546,20.339,12.895,34.35,12.895
			c7.82,0,16.334-1.355,25.355-4.092c19.332-5.865,39.499-17.647,57.865-33.665l14.473,14.473
			c-35.679,32.208-81.664,57.136-136.975,74.225l-58.817-58.817c12.489-40.12,35.037-93.515,74.15-137.05L199.651,211.861z
			 M147.833,399.527c-17.635,4.583-35.77,8.298-54.192,11.101c2.396-15.685,5.468-31.249,9.168-46.427c0,0,1.281-5.166,1.953-7.744
			L147.833,399.527z M350.056,333.98l-14.721-14.721c47.49-49.53,73.22-112.527,86.517-157.232
			c2.442-8.21,4.719-16.632,6.766-25.034c4.897-20.092,8.734-40.828,11.403-61.633c0.394-3.071-0.657-6.152-2.847-8.342
			c-2.189-2.19-5.271-3.241-8.341-2.85c-29.743,3.804-58.913,9.902-86.698,18.125c-64.321,19.035-117.162,48.156-157.171,86.595
			l-14.718-14.718c60.06-57.789,138.124-85.806,193.634-99.169c45.063-10.849,82.838-14.038,100.32-14.971
			c-0.923,17.393-4.082,54.88-14.856,99.816C435.997,195.512,407.971,273.789,350.056,333.98z M429.544,487.858l-58.01-58.01
			l-3.431-59.811l59.811,3.431l58.01,58.01L429.544,487.858z"/>
	</g>
</g>
<g>
</g>
<g>
</g>
<g>
</g>
<g>
</g>
<g>
</g>
<g>
</g>
<g>
</g>
<g>
</g>
<g>
</g>
<g>
</g>
<g>
</g>
<g>
</g>
<g>
</g>
<g>
</g>
<g>
</g>
</svg>
