<?xml version="1.0" encoding="iso-8859-1"?>
<!-- Generator: Adobe Illustrator 19.0.0, SVG Export Plug-In . SVG Version: 6.00 Build 0)  -->
<svg version="1.1" id="Capa_1" xmlns="http://www.w3.org/2000/svg" xmlns:xlink="http://www.w3.org/1999/xlink" x="0px" y="0px"
	 viewBox="0 0 512 512" style="enable-background:new 0 0 512 512;" xml:space="preserve">
<g>
	<g>
		<path d="M324.961,320.051c-0.13-0.64-0.32-1.27-0.57-1.88c-0.25-0.601-0.56-1.18-0.92-1.72c-0.36-0.551-0.78-1.061-1.24-1.521
			c-2.33-2.32-5.779-3.389-9.029-2.729c-0.641,0.119-1.261,0.319-1.87,0.569c-0.6,0.25-1.18,0.55-1.73,0.92
			c-0.54,0.36-1.05,0.78-1.51,1.24c-0.47,0.46-0.88,0.97-1.25,1.521c-0.36,0.54-0.67,1.119-0.92,1.72
			c-0.25,0.61-0.44,1.24-0.57,1.88s-0.2,1.3-0.2,1.95c0,0.649,0.07,1.309,0.2,1.95c0.13,0.64,0.32,1.269,0.57,1.869
			c0.25,0.61,0.56,1.19,0.92,1.73c0.37,0.55,0.78,1.06,1.25,1.52c0.46,0.461,0.97,0.881,1.51,1.24c0.549,0.36,1.129,0.67,1.73,0.92
			c0.609,0.25,1.229,0.45,1.87,0.57c0.649,0.13,1.3,0.2,1.96,0.2c0.649,0,1.309-0.07,1.949-0.2c0.641-0.12,1.27-0.32,1.87-0.57
			c0.6-0.25,1.18-0.56,1.73-0.92c0.541-0.359,1.06-0.779,1.52-1.24c0.46-0.46,0.88-0.97,1.24-1.52c0.36-0.54,0.67-1.12,0.92-1.73
			c0.25-0.599,0.44-1.229,0.57-1.869s0.2-1.301,0.2-1.95C325.161,321.351,325.091,320.691,324.961,320.051z"/>
	</g>
</g>
<g>
	<g>
		<path d="M375.056,440.251h-6.475V317.674c0-42.219-31.721-77.167-72.581-82.267v-23.868h51.428c5.522,0,10-4.478,10-10v-36.528
			c0-5.522-4.478-10-10-10c-5.523,0-10,4.478-10,10v26.528h-27.422c1.337-1.159,2.644-2.36,3.913-3.612
			c15.515-15.306,24.059-35.785,24.059-57.666c0-17.783-5.6-34.701-16.193-48.926c-0.004-0.005-0.007-0.009-0.01-0.013
			L264.013,4.015C262.126,1.488,259.156,0,256.002,0s-6.123,1.488-8.011,4.015L190.22,81.333
			c-10.595,14.222-16.196,31.141-16.196,48.928c0,21.88,8.544,42.358,24.059,57.665c1.27,1.253,2.577,2.454,3.914,3.613h-27.423
			v-26.528c0-5.522-4.477-10-10-10s-10,4.478-10,10v36.528c0,5.522,4.477,10,10,10h51.427v23.868
			c-40.86,5.1-72.581,40.048-72.581,82.267v122.577h-6.474c-5.523,0-10,4.477-10,10V502c0,5.522,4.477,10,10,10h238.109
			c5.522,0,10-4.478,10-10v-51.749C385.056,444.728,380.579,440.251,375.056,440.251z M210.022,171.308
			c-9.937-10.873-15.997-25.273-15.997-41.047c0-13.449,4.23-26.236,12.226-36.968l49.751-66.586l49.746,66.579
			c8.001,10.745,12.23,23.531,12.23,36.975c0,15.774-6.06,30.173-15.998,41.045c0.268-2.014,0.409-4.068,0.409-6.155
			c0-10.072-3.161-19.637-9.141-27.659c-0.002-0.003-0.005-0.006-0.007-0.01l-29.229-39.116c-1.888-2.526-4.857-4.014-8.011-4.014
			s-6.123,1.488-8.011,4.015l-29.217,39.101c-5.992,8.037-9.16,17.61-9.16,27.684C209.613,167.239,209.754,169.293,210.022,171.308z
			 M256.004,191.539L256.004,191.539c-14.552,0-26.389-11.838-26.389-26.388c0-5.732,1.796-11.172,5.188-15.722l21.2-28.371
			l21.219,28.396c3.382,4.541,5.169,9.969,5.169,15.697C282.391,179.701,270.553,191.538,256.004,191.539z M276.001,211.539v23.226
			h-39.998v-23.226H276.001z M163.422,332h114.737c5.523,0,10-4.478,10-10c0-5.522-4.477-10-10-10H163.68
			c2.878-32.04,29.875-57.235,62.65-57.235h59.342c34.689,0,62.909,28.221,62.909,62.909v122.577H321v-79.996
			c0-5.523-4.477-10-10-10H201.003c-5.523,0-10,4.477-10,10v79.996h-27.581V332z M301.001,370.255v69.996h-89.998v-69.996H301.001z
			 M365.057,492L365.057,492H146.948v-31.749h218.109V492z"/>
	</g>
</g>
<g>
</g>
<g>
</g>
<g>
</g>
<g>
</g>
<g>
</g>
<g>
</g>
<g>
</g>
<g>
</g>
<g>
</g>
<g>
</g>
<g>
</g>
<g>
</g>
<g>
</g>
<g>
</g>
<g>
</g>
</svg>
