<?xml version="1.0" encoding="iso-8859-1"?>
<!-- Generator: Adobe Illustrator 19.0.0, SVG Export Plug-In . SVG Version: 6.00 Build 0)  -->
<svg version="1.1" id="Capa_1" xmlns="http://www.w3.org/2000/svg" xmlns:xlink="http://www.w3.org/1999/xlink" x="0px" y="0px"
	 viewBox="0 0 512 512" style="enable-background:new 0 0 512 512;" xml:space="preserve">
<g>
	<g>
		<path d="M339.99,103.18c-0.12-0.64-0.32-1.27-0.57-1.87c-0.25-0.6-0.561-1.18-0.92-1.73c-0.36-0.54-0.78-1.06-1.24-1.52
			c-0.46-0.46-0.97-0.88-1.52-1.24c-0.54-0.36-1.12-0.67-1.721-0.92c-0.609-0.25-1.239-0.44-1.88-0.57
			c-1.28-0.26-2.609-0.26-3.899,0c-0.64,0.13-1.27,0.32-1.87,0.57c-0.61,0.25-1.19,0.56-1.73,0.92c-0.55,0.37-1.06,0.779-1.52,1.24
			c-0.46,0.46-0.88,0.98-1.24,1.52c-0.36,0.55-0.67,1.13-0.92,1.73s-0.45,1.23-0.57,1.87c-0.13,0.65-0.2,1.3-0.2,1.96
			c0,2.63,1.071,5.2,2.931,7.06c0.461,0.47,0.97,0.88,1.52,1.25c0.54,0.361,1.12,0.67,1.73,0.92c0.599,0.25,1.229,0.44,1.87,0.57
			c0.639,0.13,1.299,0.19,1.949,0.19c0.65,0,1.31-0.06,1.948-0.19c0.641-0.129,1.271-0.32,1.88-0.57
			c0.601-0.25,1.181-0.56,1.721-0.92c0.55-0.37,1.06-0.78,1.52-1.25c1.861-1.86,2.93-4.43,2.93-7.06
			C340.189,104.48,340.12,103.83,339.99,103.18z"/>
	</g>
</g>
<g>
	<g>
		<path d="M169.191,164.48H42.189c-5.522,0-10,4.477-10,10v86.759c0,5.523,4.478,10,10,10h127.002c5.523,0,10-4.477,10-10V174.48
			C179.191,168.957,174.713,164.48,169.191,164.48z M159.191,251.239H52.189V184.48h107.002V251.239z"/>
	</g>
</g>
<g>
	<g>
		<path d="M169.191,285.815H42.189c-5.522,0-10,4.477-10,10s4.478,10,10,10h127.002c5.523,0,10-4.478,10-10
			C179.191,290.292,174.713,285.815,169.191,285.815z"/>
	</g>
</g>
<g>
	<g>
		<path d="M233.667,261.921c-5.523,0-10,4.477-10,10v39.226c0,5.523,4.477,10,10,10c5.522,0,10-4.477,10-10v-39.226
			C243.667,266.398,239.189,261.921,233.667,261.921z"/>
	</g>
</g>
<g>
	<g>
		<path d="M502,367.442h-72.567V151.968c0-18.028-4.066-35.291-12.085-51.31c-19.593-39.134-58.933-63.444-102.669-63.444H10
			c-5.523,0-10,4.477-10,10v371.708c0,5.523,4.477,10,10,10h42.588c3.792,25.907,26.159,45.864,53.102,45.864
			s49.31-19.957,53.102-45.864h149.255c3.792,25.907,26.159,45.864,53.102,45.864s49.31-19.957,53.102-45.864H502
			c5.522,0,10-4.477,10-10v-41.48C512,371.919,507.522,367.442,502,367.442z M53.417,408.922H20v-21.48h43.929
			C58.934,393.625,55.28,400.933,53.417,408.922z M105.69,454.786c-18.566,0-33.672-15.105-33.672-33.672
			c0-18.567,15.105-33.672,33.672-33.672s33.672,15.105,33.672,33.672C139.362,439.681,124.257,454.786,105.69,454.786z
			 M308.875,408.922h-150.91c-1.863-7.99-5.517-15.298-10.512-21.48h171.935C314.393,393.625,310.738,400.933,308.875,408.922z
			 M303.19,221.157v146.285h-86.999V221.157H303.19z M216.191,201.157V184.48h86.999v16.677H216.191z M361.149,454.786
			c-18.566,0-33.672-15.105-33.672-33.672c0-18.567,15.105-33.672,33.672-33.672c18.566,0,33.672,15.105,33.672,33.672
			C394.821,439.681,379.716,454.786,361.149,454.786z M323.19,367.442V174.48c0-5.523-4.478-10-10-10H206.191
			c-5.523,0-10,4.477-10,10v192.962H20V115.135h266.567c5.522,0,10-4.477,10-10s-4.478-10-10-10H20V57.214h294.679
			c36.116,0,68.603,20.078,84.784,52.397c6.615,13.214,9.97,27.465,9.97,42.357v12.512h-45.244c-5.523,0-10,4.477-10,10v86.759
			c0,5.523,4.477,10,10,10h45.244v13.06h-45.244c-5.523,0-10,4.477-10,10s4.477,10,10,10h45.244v63.143H323.19z M409.433,184.48
			v66.759h-35.244V184.48H409.433z M492,408.922h-78.576c-1.863-7.99-5.517-15.298-10.512-21.48H492V408.922z"/>
	</g>
</g>
<g>
</g>
<g>
</g>
<g>
</g>
<g>
</g>
<g>
</g>
<g>
</g>
<g>
</g>
<g>
</g>
<g>
</g>
<g>
</g>
<g>
</g>
<g>
</g>
<g>
</g>
<g>
</g>
<g>
</g>
</svg>
