<?xml version="1.0" encoding="iso-8859-1"?>
<!-- Generator: Adobe Illustrator 19.0.0, SVG Export Plug-In . SVG Version: 6.00 Build 0)  -->
<svg version="1.1" id="Capa_1" xmlns="http://www.w3.org/2000/svg" xmlns:xlink="http://www.w3.org/1999/xlink" x="0px" y="0px"
	 viewBox="0 0 512 512" style="enable-background:new 0 0 512 512;" xml:space="preserve">
<g>
	<g>
		<path d="M453.689,138.009c-0.12-0.64-0.319-1.269-0.569-1.87c-0.25-0.599-0.56-1.179-0.91-1.729
			c-0.37-0.541-0.79-1.051-1.25-1.521c-2.32-2.32-5.77-3.389-9.02-2.729c-0.64,0.129-1.269,0.319-1.87,0.569
			c-0.609,0.25-1.189,0.561-1.729,0.92c-0.55,0.36-1.06,0.78-1.521,1.24c-0.46,0.47-0.88,0.981-1.239,1.521
			c-0.36,0.549-0.67,1.129-0.92,1.729c-0.25,0.6-0.44,1.23-0.57,1.87c-0.13,0.639-0.2,1.3-0.2,1.95c0,0.66,0.07,1.31,0.2,1.96
			c0.13,0.64,0.32,1.26,0.57,1.87c0.25,0.6,0.56,1.18,0.92,1.72c0.359,0.55,0.779,1.06,1.239,1.52
			c0.461,0.461,0.971,0.881,1.521,1.25c0.54,0.36,1.12,0.671,1.729,0.921c0.6,0.25,1.23,0.439,1.87,0.569
			c0.641,0.13,1.301,0.191,1.95,0.191c2.63,0,5.21-1.061,7.07-2.931c0.46-0.46,0.88-0.97,1.25-1.52c0.35-0.54,0.66-1.12,0.91-1.72
			c0.25-0.61,0.449-1.23,0.569-1.87c0.13-0.651,0.2-1.311,0.2-1.96C453.889,139.31,453.819,138.65,453.689,138.009z"/>
	</g>
</g>
<g>
	<g>
		<path d="M256,205.993c-67.896,0-123.135,55.238-123.135,123.135S188.104,452.264,256,452.264
			c67.897,0,123.135-55.238,123.135-123.135S323.896,205.993,256,205.993z M256,432.264c-56.869,0-103.135-46.266-103.135-103.135
			c0-56.869,46.266-103.135,103.135-103.135s103.135,46.266,103.135,103.135S312.869,432.264,256,432.264z"/>
	</g>
</g>
<g>
	<g>
		<path d="M256,243.73c-28.221,0-54.59,13.923-70.537,37.245c-3.117,4.558-1.949,10.782,2.61,13.899
			c4.56,3.118,10.782,1.95,13.9-2.61C214.19,274.397,234.387,263.73,256,263.73c36.06,0,65.398,29.338,65.398,65.398
			S292.06,394.527,256,394.527c-5.523,0-10,4.478-10,10c0,5.522,4.477,10,10,10c47.089,0,85.398-38.309,85.398-85.398
			C341.398,282.04,303.089,243.73,256,243.73z"/>
	</g>
</g>
<g>
	<g>
		<path d="M180.648,319.129h-0.046c-5.523,0-9.978,4.478-9.978,10c0,5.522,4.501,10,10.024,10c5.522,0,10-4.478,10-10
			C190.648,323.606,186.17,319.129,180.648,319.129z"/>
	</g>
</g>
<g>
	<g>
		<path d="M473.001,93.983h-61.648l-48.549-69.991c-1.868-2.694-4.939-4.301-8.217-4.301H146.42c-3.278,0-6.349,1.607-8.217,4.301
			L89.654,93.983H38.999C17.495,93.983,0,111.478,0,132.98v320.331c0,21.504,17.495,38.998,38.999,38.998h434.002
			c21.504,0,38.999-17.494,38.999-38.998V132.98C512,111.478,494.505,93.983,473.001,93.983z M151.653,39.691h197.7l11.893,17.146
			H139.761L151.653,39.691z M125.888,76.837h249.231l11.894,17.146H113.994L125.888,76.837z M38.999,472.311
			c-10.477,0-18.999-8.523-18.999-18.999V185.946h157.781c-50.59,27.747-84.964,81.525-84.964,143.183
			c0,61.657,34.374,115.435,84.964,143.182H38.999z M112.817,329.129c0-78.951,64.231-143.183,143.183-143.183
			s143.183,64.232,143.183,143.183c0,78.95-64.231,143.182-143.183,143.182S112.817,408.079,112.817,329.129z M492,453.311
			c0,10.476-8.522,18.998-18.999,18.998H334.219c50.59-27.747,84.964-81.525,84.964-143.182s-34.374-115.436-84.964-143.183H492
			V453.311z M492,165.946H20v-15.981h380.049c5.522,0,10-4.478,10-10c0-5.522-4.478-10-10-10H20.242
			c1.45-9.047,9.307-15.981,18.757-15.981h434.002c10.477,0,18.999,8.522,18.999,18.998V165.946z"/>
	</g>
</g>
<g>
</g>
<g>
</g>
<g>
</g>
<g>
</g>
<g>
</g>
<g>
</g>
<g>
</g>
<g>
</g>
<g>
</g>
<g>
</g>
<g>
</g>
<g>
</g>
<g>
</g>
<g>
</g>
<g>
</g>
</svg>
