<?xml version="1.0" encoding="iso-8859-1"?>
<!-- Generator: Adobe Illustrator 19.0.0, SVG Export Plug-In . SVG Version: 6.00 Build 0)  -->
<svg version="1.1" id="Capa_1" xmlns="http://www.w3.org/2000/svg" xmlns:xlink="http://www.w3.org/1999/xlink" x="0px" y="0px"
	 viewBox="0 0 512 512" style="enable-background:new 0 0 512 512;" xml:space="preserve">
<g>
	<g>
		<path d="M412.76,404.35c-0.12-0.64-0.32-1.269-0.57-1.87c-0.25-0.599-0.56-1.179-0.92-1.729c-0.36-0.541-0.78-1.061-1.24-1.521
			c-0.46-0.46-0.97-0.87-1.52-1.239c-0.54-0.36-1.12-0.671-1.73-0.921c-0.6-0.25-1.23-0.439-1.87-0.569c-1.29-0.26-2.62-0.26-3.91,0
			c-0.63,0.13-1.26,0.319-1.87,0.569c-0.6,0.25-1.18,0.561-1.72,0.921c-0.55,0.369-1.06,0.779-1.52,1.239
			c-0.46,0.461-0.88,0.981-1.24,1.521c-0.36,0.549-0.67,1.129-0.92,1.729c-0.25,0.6-0.45,1.23-0.57,1.87
			c-0.13,0.64-0.2,1.3-0.2,1.95c0,0.66,0.07,1.31,0.2,1.96c0.12,0.64,0.32,1.269,0.57,1.87c0.25,0.599,0.56,1.179,0.92,1.729
			c0.36,0.54,0.78,1.051,1.24,1.511c1.86,1.87,4.43,2.93,7.07,2.93c0.65,0,1.31-0.06,1.95-0.191c0.64-0.13,1.27-0.319,1.87-0.569
			c0.61-0.25,1.19-0.561,1.73-0.92c0.55-0.37,1.06-0.78,1.52-1.25c0.46-0.46,0.88-0.971,1.24-1.511
			c0.36-0.549,0.67-1.129,0.92-1.729c0.25-0.6,0.45-1.23,0.57-1.87c0.13-0.65,0.2-1.3,0.2-1.96
			C412.96,405.65,412.89,404.991,412.76,404.35z"/>
	</g>
</g>
<g>
	<g>
		<path d="M403.654,202.753H108.346c-5.523,0-10,4.478-10,10v117.772c0,5.522,4.477,10,10,10h295.308c5.523,0,10-4.478,10-10
			V212.753C413.654,207.231,409.177,202.753,403.654,202.753z M246,320.525H118.346v-97.772H246V320.525z M393.654,320.524H266
			v-97.772h127.654V320.524z"/>
	</g>
</g>
<g>
	<g>
		<path d="M502,23.864H365.414V10c0-5.523-4.477-10-10-10H156.586c-5.523,0-10,4.477-10,10v13.864H10c-5.523,0-10,4.478-10,10
			c0,5.522,4.477,10,10,10h136.586v13.864c0,5.522,4.477,10,10,10h55.576l-19.15,46.273h-16.425c-5.523,0-10,4.478-10,10v37.729
			h-63.852c-28.094,0-50.95,22.856-50.95,50.95v248.37c0,28.094,22.856,50.95,50.95,50.95h306.528
			c28.094,0,50.95-22.856,50.95-50.95V212.681c0-28.094-22.856-50.95-50.95-50.95h-63.852v-37.729c0-5.522-4.477-10-10-10h-16.425
			l-19.15-46.273h55.576c5.523,0,10-4.478,10-10V43.864H502c5.523,0,10-4.478,10-10C512,28.342,507.523,23.864,502,23.864z
			 M196.088,492h-93.353c-17.065,0-30.949-13.884-30.949-30.95v-44.745h124.302V492z M196.088,396.305H71.786v-14.758h124.302
			V396.305z M295.912,492h-79.823v-75.695h79.823V492z M216.088,396.305v-14.758h79.823v14.758H216.088z M409.264,492h-93.353
			v-75.695h50.048c5.523,0,10-4.478,10-10c0-5.522-4.477-10-10-10h-50.048v-14.758h124.302v79.503h0.001
			C440.214,478.116,426.33,492,409.264,492z M409.264,181.731c17.066-0.001,30.95,13.883,30.95,30.95v148.866H71.786V212.681
			c0-17.066,13.884-30.95,30.95-30.95H409.264z M325.412,134.001v27.729H186.588v-27.729H325.412z M214.659,114.002l19.15-46.273
			h44.384l19.149,46.273H214.659z M345.414,47.729H166.586V20h178.828V47.729z"/>
	</g>
</g>
<g>
</g>
<g>
</g>
<g>
</g>
<g>
</g>
<g>
</g>
<g>
</g>
<g>
</g>
<g>
</g>
<g>
</g>
<g>
</g>
<g>
</g>
<g>
</g>
<g>
</g>
<g>
</g>
<g>
</g>
</svg>
