<?xml version="1.0" encoding="iso-8859-1"?>
<!-- Generator: Adobe Illustrator 19.0.0, SVG Export Plug-In . SVG Version: 6.00 Build 0)  -->
<svg version="1.1" id="Capa_1" xmlns="http://www.w3.org/2000/svg" xmlns:xlink="http://www.w3.org/1999/xlink" x="0px" y="0px"
	 viewBox="0 0 512.001 512.001" style="enable-background:new 0 0 512.001 512.001;" xml:space="preserve">
<g>
	<g>
		<path d="M142.721,66.561c-0.46-0.47-0.97-0.88-1.52-1.25c-0.54-0.36-1.12-0.67-1.721-0.92c-0.609-0.25-1.229-0.44-1.87-0.57
			c-1.29-0.26-2.619-0.26-3.909,0c-0.64,0.13-1.27,0.32-1.87,0.57c-0.6,0.25-1.19,0.56-1.73,0.92c-0.55,0.37-1.06,0.78-1.52,1.25
			c-1.861,1.86-2.931,4.43-2.931,7.07c0,2.63,1.071,5.2,2.931,7.07c0.46,0.46,0.97,0.88,1.52,1.24c0.54,0.36,1.129,0.67,1.73,0.92
			c0.6,0.25,1.229,0.44,1.87,0.57c0.639,0.13,1.3,0.2,1.949,0.2c0.66,0,1.31-0.07,1.96-0.2c0.631-0.13,1.261-0.32,1.87-0.57
			c0.601-0.25,1.181-0.56,1.721-0.92c0.55-0.36,1.06-0.78,1.52-1.24c1.87-1.86,2.93-4.44,2.93-7.07
			C145.651,70.991,144.591,68.421,142.721,66.561z"/>
	</g>
</g>
<g>
	<g>
		<path d="M493.277,422.788h-1.288c0,0-0.369-38.264-1.096-44.895c-0.001-0.009-0.003-0.017-0.003-0.026
			c-5.063-46.272-28.212-76.433-68.808-89.645c-0.003-0.001-0.006-0.002-0.008-0.003c-16.642-5.43-35.94-8.069-59-8.069
			l-82.646-0.002v-33.216h5.636c5.522,0,10-4.477,10-10s-4.478-10-10-10h-5.636v-33.88h5.636c5.522,0,10-4.477,10-10
			s-4.478-10-10-10h-5.636v-33.879h5.636c5.522,0,10-4.477,10-10c0-5.523-4.478-10-10-10h-5.636V83.626h5.636
			c5.522,0,10-4.477,10-10s-4.478-10-10-10h-5.636V10.001c0-3.246-1.575-6.29-4.225-8.164c-2.65-1.875-6.045-2.347-9.105-1.265
			l-63.514,22.431H23.045c-5.522,0-10,4.477-10,10v391.556c-2.61,1.804-4.321,4.816-4.321,8.23v49.086
			c0,16.611,13.515,30.126,30.126,30.126h102.001c5.522,0,10-4.477,10-10v-12.967h34.063v12.967c0,5.523,4.477,10,10,10h67.376
			c5.522,0,10-4.477,10-10v-12.967h34.063v12.967c0,5.523,4.478,10,10,10h67.376c5.523,0,10-4.477,10-10v-12.967h34.063v12.967
			c0,5.523,4.478,10,10,10h35.359c16.611,0,30.126-13.515,30.126-30.126v-49.086C503.277,427.265,498.799,422.788,493.277,422.788z
			 M422.563,309.661c25.95,10.455,41.055,29.578,46.794,59.323h-72.842C401.068,347.706,409.94,327.484,422.563,309.661z
			 M202.807,44.487l57.621-20.35v39.489h-57.621V44.487z M202.807,83.626h57.621v35.546h-57.621V83.626z M202.807,139.172h57.621
			v33.879h-57.621V139.172z M202.807,193.051h57.621v33.88h-57.621V193.051z M202.807,246.931h57.621v33.214h-57.621V246.931z
			 M33.045,43.002h149.762v20.624h-7.581c-5.523,0-10,4.477-10,10s4.477,10,10,10h7.581v35.546h-7.581c-5.523,0-10,4.477-10,10
			s4.477,10,10,10h7.581v33.879h-7.581c-5.523,0-10,4.477-10,10c0,5.523,4.477,10,10,10h7.581v33.88h-7.581c-5.523,0-10,4.477-10,10
			c0,5.523,4.477,10,10,10h7.581v43.214c0,0.518,0.039,1.026,0.115,1.523c0.733,4.8,4.879,8.477,9.885,8.477l170.267,0.005
			c14.615,0,27.783,1.202,39.346,3.571c-12.947,19.82-21.906,42.027-26.304,65.263h-224.26
			c-16.682-32.072-44.952-56.155-78.188-68.008V83.626H99.66c5.522,0,10-4.477,10-10s-4.478-10-10-10H63.668
			c-5.522,0-10,4.477-10,10v221.836c-6.753-1.337-13.644-2.184-20.623-2.514V43.002z M33.045,312.969
			c39.106,2.155,74.848,23.271,95.744,56.015H33.045V312.969z M33.045,388.984h438.684c0.173,3.248,0.26,33.805,0.26,33.805H33.045
			V388.984z M483.277,481.874c0,5.584-4.543,10.126-10.126,10.126h-25.359v-12.967c0-5.523-4.477-10-10-10h-54.063
			c-5.522,0-10,4.477-10,10V492h-47.376v-12.967c0-5.523-4.478-10-10-10H262.29c-5.522,0-10,4.477-10,10V492h-47.376v-12.967
			c0-5.523-4.478-10-10-10h-54.063c-5.523,0-10,4.477-10,10V492H38.85c-5.583,0-10.126-4.543-10.126-10.126v-39.086h454.553V481.874
			z"/>
	</g>
</g>
<g>
</g>
<g>
</g>
<g>
</g>
<g>
</g>
<g>
</g>
<g>
</g>
<g>
</g>
<g>
</g>
<g>
</g>
<g>
</g>
<g>
</g>
<g>
</g>
<g>
</g>
<g>
</g>
<g>
</g>
</svg>
