<?xml version="1.0" encoding="iso-8859-1"?>
<!-- Generator: Adobe Illustrator 19.0.0, SVG Export Plug-In . SVG Version: 6.00 Build 0)  -->
<svg version="1.1" id="Capa_1" xmlns="http://www.w3.org/2000/svg" xmlns:xlink="http://www.w3.org/1999/xlink" x="0px" y="0px"
	 viewBox="0 0 512 512" style="enable-background:new 0 0 512 512;" xml:space="preserve">
<g>
	<g>
		<path d="M191.731,345.311c-0.13-0.64-0.32-1.27-0.57-1.87c-0.25-0.6-0.56-1.18-0.92-1.73c-0.37-0.54-0.79-1.06-1.25-1.52
			c-0.46-0.46-0.97-0.88-1.52-1.239c-0.54-0.36-1.12-0.671-1.72-0.921c-0.61-0.25-1.23-0.439-1.87-0.569
			c-1.29-0.26-2.62-0.26-3.91,0c-0.64,0.13-1.27,0.319-1.87,0.569c-0.61,0.25-1.19,0.561-1.73,0.921
			c-0.55,0.359-1.06,0.779-1.52,1.239c-0.46,0.459-0.88,0.98-1.24,1.52c-0.36,0.55-0.67,1.13-0.92,1.73
			c-0.25,0.6-0.44,1.23-0.57,1.87c-0.13,0.65-0.2,1.3-0.2,1.96c0,0.65,0.07,1.31,0.2,1.95c0.13,0.64,0.32,1.27,0.57,1.87
			c0.25,0.599,0.56,1.179,0.92,1.729c0.36,0.54,0.78,1.051,1.24,1.511c0.461,0.47,0.97,0.88,1.52,1.25
			c0.54,0.36,1.12,0.67,1.73,0.92c0.6,0.25,1.23,0.439,1.87,0.569c0.64,0.13,1.3,0.19,1.95,0.19c2.64,0,5.21-1.06,7.07-2.929
			c0.46-0.46,0.88-0.971,1.25-1.511c0.36-0.549,0.67-1.129,0.92-1.729c0.25-0.599,0.44-1.23,0.57-1.87
			c0.13-0.639,0.19-1.3,0.19-1.95C191.921,346.611,191.861,345.961,191.731,345.311z"/>
	</g>
</g>
<g>
	<g>
		<path d="M405.299,345.311c-0.12-0.64-0.32-1.27-0.57-1.87c-0.25-0.6-0.56-1.18-0.92-1.73c-0.359-0.54-0.779-1.06-1.24-1.52
			c-0.46-0.46-0.97-0.88-1.52-1.239c-0.54-0.36-1.12-0.671-1.73-0.921c-0.599-0.25-1.229-0.439-1.869-0.569
			c-1.29-0.26-2.62-0.26-3.91,0c-0.63,0.13-1.26,0.319-1.87,0.569c-0.601,0.25-1.18,0.561-1.72,0.921
			c-0.55,0.359-1.06,0.779-1.52,1.239c-0.46,0.459-0.88,0.98-1.24,1.52c-0.37,0.55-0.67,1.13-0.92,1.73
			c-0.25,0.6-0.45,1.23-0.569,1.87c-0.131,0.65-0.2,1.3-0.2,1.96c0,0.65,0.069,1.31,0.2,1.95c0.119,0.64,0.319,1.27,0.569,1.87
			c0.25,0.599,0.561,1.179,0.92,1.729c0.36,0.54,0.78,1.051,1.24,1.511c0.459,0.47,0.969,0.88,1.52,1.25
			c0.54,0.36,1.119,0.67,1.72,0.92c0.61,0.25,1.24,0.439,1.87,0.569c0.65,0.13,1.31,0.19,1.96,0.19c0.649,0,1.31-0.06,1.95-0.19
			c0.64-0.129,1.269-0.319,1.869-0.569c0.61-0.25,1.19-0.561,1.73-0.92c0.55-0.37,1.06-0.78,1.52-1.25
			c0.461-0.46,0.881-0.971,1.24-1.511c0.36-0.549,0.67-1.129,0.92-1.729c0.25-0.599,0.45-1.23,0.57-1.87
			c0.13-0.639,0.2-1.3,0.2-1.95C405.5,346.611,405.43,345.961,405.299,345.311z"/>
	</g>
</g>
<g>
	<g>
		<path d="M447.724,381.051h-7.186l-12.565-193.802h4.257c5.522,0,10-4.477,10-10V112.67c0-5.522-4.478-10-10-10h-23.306V66.485
			h7.81c5.523,0,10-4.478,10-10V10c0-5.523-4.477-10-10-10H308.268c-5.522,0-10,4.477-10,10v46.485c0,5.522,4.478,10,10,10h7.811
			v36.185h-23.306c-5.522,0-10,4.478-10,10v54.579h-53.543V112.67c0-5.522-4.477-10-10-10h-23.306V66.485h7.81
			c5.523,0,10-4.478,10-10V10c0-5.523-4.477-10-10-10H95.268c-5.523,0-10,4.477-10,10v46.485c0,5.522,4.477,10,10,10h7.81v36.185
			H79.771c-5.523,0-10,4.478-10,10v64.579c0,5.523,4.477,10,10,10h4.257L71.464,381.051h-7.187c-5.523,0-10,4.477-10,10v70.758
			c0,5.522,4.477,10,10,10h17.068C94.966,496.423,121.044,512,149.5,512s54.534-15.577,68.156-40.191h17.067c5.523,0,10-4.478,10-10
			v-70.758c0-5.523-4.477-10-10-10h-7.186l-5.493-84.716h67.912l-5.493,84.716h-7.186c-5.523,0-10,4.477-10,10v70.758
			c0,5.522,4.477,10,10,10h17.068C307.968,496.423,334.044,512,362.5,512c28.457,0,54.534-15.577,68.156-40.191h17.067
			c5.523,0,10-4.478,10-10v-70.758C457.724,385.528,453.247,381.051,447.724,381.051z M318.268,20h88.467v26.485h-88.467V20z
			 M388.924,66.485v36.185h-52.846V66.485H388.924z M302.773,122.67h119.457v44.579H302.773V122.67z M395.5,320.267
			c5.523,0,10-4.478,10-10V187.249h2.429l12.566,193.802h-115.99l12.566-193.802H385.5v123.018
			C385.5,315.789,389.979,320.267,395.5,320.267z M105.268,20h88.466v26.485h-88.466V20z M175.924,66.485v36.185h-52.846V66.485
			H175.924z M89.771,122.67h119.457v44.579H89.771V122.67z M181.922,320.267c5.523,0,10-4.478,10-10V187.249h3.007l12.565,193.802
			H91.505l12.565-193.802h67.852v123.018C171.922,315.789,176.399,320.267,181.922,320.267z M149.5,492
			c-17.126,0-33.092-7.589-43.924-20.191h87.848C182.592,484.411,166.625,492,149.5,492z M224.724,401.051v50.758H74.276v-50.758
			H224.724z M220.749,276.335l-5.776-89.086h82.057l-4.111,63.407l-1.666,25.679H220.749z M362.5,492
			c-17.124,0-33.092-7.591-43.924-20.191h87.849C395.594,484.411,379.627,492,362.5,492z M287.276,451.809v-50.758h150.447v50.758
			H287.276z"/>
	</g>
</g>
<g>
</g>
<g>
</g>
<g>
</g>
<g>
</g>
<g>
</g>
<g>
</g>
<g>
</g>
<g>
</g>
<g>
</g>
<g>
</g>
<g>
</g>
<g>
</g>
<g>
</g>
<g>
</g>
<g>
</g>
</svg>
