<?xml version="1.0" encoding="iso-8859-1"?>
<!-- Generator: Adobe Illustrator 19.0.0, SVG Export Plug-In . SVG Version: 6.00 Build 0)  -->
<svg version="1.1" id="Capa_1" xmlns="http://www.w3.org/2000/svg" xmlns:xlink="http://www.w3.org/1999/xlink" x="0px" y="0px"
	 viewBox="0 0 512.001 512.001" style="enable-background:new 0 0 512.001 512.001;" xml:space="preserve">
<g>
	<g>
		<path d="M410.4,329.51c-0.46-0.46-0.97-0.88-1.52-1.24c-0.54-0.36-1.12-0.67-1.73-0.92c-0.6-0.25-1.23-0.45-1.87-0.57
			c-1.29-0.26-2.61-0.26-3.9,0c-0.64,0.12-1.27,0.32-1.88,0.57c-0.6,0.25-1.18,0.56-1.72,0.92c-0.55,0.36-1.06,0.78-1.52,1.24
			c-1.86,1.86-2.93,4.44-2.93,7.07c0,0.65,0.07,1.31,0.19,1.96c0.13,0.63,0.33,1.26,0.58,1.87c0.25,0.6,0.55,1.18,0.91,1.72
			c0.37,0.55,0.79,1.06,1.25,1.52c0.46,0.46,0.97,0.88,1.52,1.25c0.54,0.36,1.12,0.66,1.72,0.91c0.61,0.25,1.24,0.449,1.88,0.579
			s1.3,0.19,1.95,0.19s1.31-0.059,1.949-0.19c0.64-0.129,1.27-0.329,1.87-0.579c0.61-0.25,1.19-0.55,1.73-0.91
			c0.55-0.37,1.06-0.79,1.52-1.25c0.46-0.46,0.88-0.97,1.24-1.52c0.361-0.54,0.671-1.12,0.921-1.72c0.25-0.61,0.45-1.24,0.57-1.87
			c0.13-0.65,0.2-1.31,0.2-1.96C413.33,333.95,412.26,331.37,410.4,329.51z"/>
	</g>
</g>
<g>
	<g>
		<path d="M400.251,216.124c-9.548,0-18.82,1.206-27.672,3.47l-43.01-121.662l53.719-5.608c5.493-0.573,9.481-5.491,8.907-10.984
			c-0.574-5.493-5.487-9.486-10.984-8.907l-66.337,6.926c-3.046,0.318-5.779,2.015-7.415,4.604c-1.636,2.59-1.995,5.786-0.974,8.674
			l22.892,64.755H213.13l-4.732-17.123h40.852c5.523,0,10-4.477,10-10V94.268c0-5.523-4.477-10-10-10H143.748
			c-5.523,0-10,4.477-10,10v36.001c0,5.523,4.477,10,10,10h43.899l6.115,22.125c-0.037,0.064-0.077,0.124-0.112,0.189
			l-35.028,63.862c-14.263-6.618-30.143-10.321-46.874-10.321C50.13,216.124,0,266.255,0,327.873s50.13,111.749,111.748,111.749
			c50.665,0,93.556-33.896,107.206-80.199c6.774,5.275,15.283,8.422,24.514,8.422c22.04,0,39.972-17.931,39.972-39.971
			c0-11.541-4.918-21.953-12.766-29.256l68.806-112.647l14.25,40.31c-38.457,17.681-65.227,56.567-65.227,101.593
			c0,61.618,50.13,111.749,111.749,111.749c61.618,0,111.749-50.13,111.749-111.749C512,266.255,461.87,216.124,400.251,216.124z
			 M153.748,120.269v-16.001h85.501v16.001H153.748z M105.79,332.968c1.8,3.04,5.071,4.905,8.605,4.905h50.976
			c-4.71,25.316-26.962,44.544-53.622,44.544c-30.076,0-54.544-24.469-54.544-54.544c0-30.076,24.469-54.545,54.544-54.545
			c6.768,0,13.25,1.243,19.236,3.506l-25.357,46.23C103.928,326.162,103.99,329.927,105.79,332.968z M131.285,317.873l16.804-30.637
			c8.801,7.879,15.035,18.565,17.282,30.637H131.285z M111.748,419.622c-50.59,0-91.748-41.158-91.748-91.749
			s41.158-91.749,91.748-91.749c13.248,0,25.846,2.827,37.231,7.902l-8.306,15.144c-8.898-3.76-18.673-5.841-28.925-5.841
			c-41.104,0-74.544,33.441-74.544,74.545s33.44,74.544,74.544,74.544c37.713,0,68.971-28.152,73.872-64.544h17.33
			C197.951,383.777,158.96,419.622,111.748,419.622z M185.62,317.874L185.62,317.874c-2.639-19.593-12.915-36.798-27.729-48.507
			l8.364-15.249c20.051,14.857,33.856,37.683,36.695,63.756H185.62z M175.943,236.454l25.46-46.418l27.779,100.507
			c-3.705,1.423-7.146,3.381-10.227,5.78C211.737,271.837,196.343,250.822,175.943,236.454z M243.469,347.845
			c-11.012,0-19.972-8.959-19.972-19.971s8.959-19.972,19.972-19.972c11.012,0,19.972,8.959,19.972,19.972
			C263.44,338.886,254.481,347.845,243.469,347.845z M253.07,289.07c-1.229-0.304-2.48-0.552-3.75-0.739l-30.662-110.939h102.626
			L253.07,289.07z M372.956,280.664l8.951,25.319c1.451,4.105,5.309,6.67,9.428,6.67c1.106,0,2.231-0.185,3.333-0.575
			c5.207-1.841,7.936-7.554,6.095-12.761l-8.956-25.334c2.753-0.43,5.573-0.655,8.445-0.655c30.076,0,54.544,24.469,54.544,54.545
			c0,30.076-24.469,54.544-54.544,54.544c-30.076,0-54.544-24.469-54.544-54.544C345.707,307.735,356.678,290.113,372.956,280.664z
			 M400.251,419.622c-50.59,0-91.749-41.158-91.749-91.749c0-36.329,21.225-67.794,51.925-82.647l5.777,16.343
			c-24.029,12.389-40.498,37.459-40.498,66.304c0,41.104,33.44,74.544,74.544,74.544s74.544-33.44,74.544-74.544
			s-33.44-74.545-74.544-74.545c-5.206,0-10.288,0.538-15.196,1.559l-5.777-16.341c6.738-1.582,13.759-2.422,20.973-2.422
			c50.59,0,91.749,41.158,91.749,91.749C492,378.464,450.842,419.622,400.251,419.622z"/>
	</g>
</g>
<g>
</g>
<g>
</g>
<g>
</g>
<g>
</g>
<g>
</g>
<g>
</g>
<g>
</g>
<g>
</g>
<g>
</g>
<g>
</g>
<g>
</g>
<g>
</g>
<g>
</g>
<g>
</g>
<g>
</g>
</svg>
