<?xml version="1.0" encoding="iso-8859-1"?>
<!-- Generator: Adobe Illustrator 19.0.0, SVG Export Plug-In . SVG Version: 6.00 Build 0)  -->
<svg version="1.1" id="Capa_1" xmlns="http://www.w3.org/2000/svg" xmlns:xlink="http://www.w3.org/1999/xlink" x="0px" y="0px"
	 viewBox="0 0 512 512" style="enable-background:new 0 0 512 512;" xml:space="preserve">
<g>
	<g>
		<path d="M291.018,219.511c-0.12-0.64-0.319-1.269-0.569-1.87c-0.25-0.61-0.561-1.189-0.92-1.729
			c-0.36-0.551-0.78-1.061-1.24-1.521c-0.46-0.46-0.971-0.88-1.521-1.24c-0.54-0.36-1.12-0.67-1.729-0.92
			c-0.6-0.25-1.23-0.439-1.87-0.569c-1.29-0.261-2.62-0.261-3.91,0c-0.63,0.129-1.26,0.319-1.87,0.569
			c-0.6,0.25-1.18,0.561-1.72,0.92c-0.549,0.36-1.06,0.78-1.52,1.24c-0.46,0.46-0.88,0.97-1.25,1.521
			c-0.359,0.54-0.67,1.119-0.92,1.729c-0.25,0.6-0.439,1.23-0.569,1.87c-0.129,0.639-0.19,1.3-0.19,1.95
			c0,2.63,1.071,5.21,2.93,7.069c0.46,0.461,0.97,0.881,1.52,1.24c0.54,0.36,1.12,0.67,1.72,0.92c0.61,0.25,1.24,0.45,1.87,0.57
			c0.65,0.13,1.31,0.2,1.96,0.2c0.65,0,1.31-0.07,1.948-0.2c0.64-0.12,1.27-0.32,1.87-0.57c0.609-0.25,1.189-0.56,1.729-0.92
			c0.55-0.359,1.061-0.779,1.521-1.24c1.86-1.859,2.93-4.439,2.93-7.069C291.218,220.811,291.148,220.151,291.018,219.511z"/>
	</g>
</g>
<g>
	<g>
		<path d="M61.53,376.92c-0.131-0.641-0.33-1.27-0.58-1.87c-0.25-0.61-0.551-1.19-0.92-1.73c-0.36-0.55-0.78-1.06-1.24-1.52
			c-0.46-0.46-0.971-0.88-1.521-1.24c-0.54-0.359-1.12-0.67-1.729-0.92c-0.6-0.25-1.23-0.439-1.87-0.57c-1.29-0.26-2.61-0.26-3.9,0
			c-0.639,0.131-1.269,0.32-1.87,0.57c-0.609,0.25-1.189,0.561-1.729,0.92c-0.55,0.36-1.061,0.78-1.521,1.24
			c-0.46,0.46-0.88,0.97-1.239,1.52c-0.36,0.54-0.67,1.12-0.92,1.73c-0.25,0.6-0.45,1.229-0.58,1.87c-0.129,0.64-0.19,1.3-0.19,1.95
			c0,0.649,0.06,1.31,0.19,1.96c0.13,0.63,0.33,1.26,0.58,1.87c0.25,0.6,0.56,1.18,0.92,1.72c0.359,0.55,0.779,1.06,1.239,1.52
			c0.461,0.471,0.971,0.88,1.521,1.25c0.54,0.36,1.12,0.67,1.729,0.92c0.6,0.25,1.23,0.44,1.87,0.56c0.64,0.13,1.3,0.2,1.95,0.2
			c0.65,0,1.31-0.07,1.95-0.2c0.64-0.12,1.269-0.31,1.87-0.56c0.609-0.25,1.189-0.56,1.729-0.92c0.55-0.37,1.061-0.779,1.521-1.25
			c0.46-0.46,0.88-0.97,1.24-1.52c0.369-0.54,0.67-1.12,0.92-1.72c0.25-0.61,0.449-1.24,0.58-1.87
			c0.129-0.65,0.189-1.311,0.189-1.96C61.719,378.22,61.66,377.56,61.53,376.92z"/>
	</g>
</g>
<g>
	<g>
		<path d="M470.566,492h-44.29V339.957l47.567-47.567c1.875-1.876,2.929-4.419,2.929-7.071c0-2.652-1.054-5.196-2.929-7.071
			l-21.18-21.179c-3.906-3.904-10.236-3.904-14.143,0l-12.245,12.245v-41.265C475.606,214.688,512,169.529,512,116.031
			C512,52.052,459.948,0,395.969,0c-63.98,0-116.031,52.052-116.031,116.031c0,9.414,1.127,18.569,3.253,27.339h-36.433
			c-5.522,0-10,4.478-10,10v25.936H105.255V153.37c0-5.522-4.478-10-10-10H52.724c-5.522,0-10,4.478-10,10v25.936H26.402
			c-5.522,0-10,4.478-10,10v124.112c0,5.522,4.478,10,10,10h16.321v14.699H10c-5.523,0-10,4.478-10,10v61.508
			c0,5.522,4.477,10,10,10h32.724V492h-0.505c-5.522,0-10,4.478-10,10c0,5.522,4.478,10,10,10h428.348c5.522,0,10-4.478,10-10
			C480.567,496.478,476.089,492,470.566,492z M426.276,297.598l19.316-19.316l7.037,7.037l-26.353,26.353V297.598z M395.969,20
			C448.921,20,492,63.079,492,116.031c0,52.952-43.079,96.031-96.031,96.031c-52.952,0-96.031-43.079-96.031-96.031
			C299.938,63.079,343.017,20,395.969,20z M256.758,163.37h22.531v15.936h-22.531V163.37z M62.724,163.37h22.531v15.936H62.724
			V163.37z M36.402,303.419v-71.958h207.877c5.523,0,10-4.478,10-10c0-5.522-4.477-10-10-10H36.402v-12.154h269.207v104.112H36.402z
			 M279.289,323.419v14.699h-22.531v-14.699H279.289z M236.758,323.419v14.699H105.255v-14.699H236.758z M85.255,323.419v14.699
			H62.724v-14.699H85.255z M20,399.626v-41.508h302.013v10.754H88.661c-5.522,0-10,4.478-10,10c0,5.522,4.478,10,10,10h233.352
			v10.754H20z M85.255,492H62.724v-72.374h22.531V492z M236.758,492H105.255v-72.374h131.503V492z M279.289,492h-22.531v-72.374
			h22.531V492z M363.526,492h-64.237v-72.374h32.724c5.522,0,10-4.478,10-10v-61.508c0-5.522-4.478-10-10-10h-32.724v-14.699h16.32
			c5.522,0,10-4.478,10-10v-105.18c11.214,8.577,24.031,15.159,37.917,19.209V492z M406.276,491.216h-22.75V231.4
			c4.088,0.438,8.24,0.663,12.442,0.663c3.473,0,6.911-0.154,10.308-0.454V491.216z"/>
	</g>
</g>
<g>
</g>
<g>
</g>
<g>
</g>
<g>
</g>
<g>
</g>
<g>
</g>
<g>
</g>
<g>
</g>
<g>
</g>
<g>
</g>
<g>
</g>
<g>
</g>
<g>
</g>
<g>
</g>
<g>
</g>
</svg>
