<?xml version="1.0" encoding="iso-8859-1"?>
<!-- Generator: Adobe Illustrator 19.0.0, SVG Export Plug-In . SVG Version: 6.00 Build 0)  -->
<svg version="1.1" id="Capa_1" xmlns="http://www.w3.org/2000/svg" xmlns:xlink="http://www.w3.org/1999/xlink" x="0px" y="0px"
	 viewBox="0 0 512 512" style="enable-background:new 0 0 512 512;" xml:space="preserve">
<g>
	<g>
		<path d="M394.799,123.869c-0.12-0.64-0.32-1.27-0.57-1.87c-0.25-0.61-0.56-1.19-0.92-1.73c-0.359-0.55-0.779-1.06-1.24-1.52
			c-0.46-0.46-0.97-0.88-1.52-1.24c-0.54-0.36-1.12-0.67-1.73-0.92c-0.599-0.25-1.229-0.44-1.869-0.57c-1.29-0.26-2.61-0.26-3.9,0
			c-0.64,0.13-1.269,0.32-1.87,0.57c-0.61,0.25-1.189,0.56-1.729,0.92c-0.551,0.36-1.061,0.78-1.521,1.24
			c-0.46,0.46-0.88,0.97-1.24,1.52c-0.37,0.54-0.67,1.12-0.92,1.73c-0.25,0.6-0.45,1.23-0.58,1.87c-0.13,0.64-0.19,1.3-0.19,1.95
			c0,2.63,1.07,5.21,2.93,7.07c0.46,0.46,0.97,0.88,1.521,1.25c0.54,0.361,1.119,0.671,1.729,0.921c0.6,0.25,1.23,0.44,1.87,0.57
			s1.3,0.19,1.95,0.19c0.649,0,1.31-0.06,1.95-0.19c0.64-0.13,1.269-0.32,1.869-0.57c0.61-0.25,1.19-0.561,1.73-0.921
			c0.55-0.37,1.06-0.79,1.52-1.25c0.461-0.46,0.881-0.97,1.24-1.52c0.36-0.54,0.67-1.12,0.92-1.72c0.25-0.61,0.45-1.24,0.57-1.87
			c0.13-0.65,0.2-1.31,0.2-1.96C394.999,125.169,394.929,124.509,394.799,123.869z"/>
	</g>
</g>
<g>
	<g>
		<path d="M457.25,296.442h-24.008v-58.284c13.963-15.233,22.498-35.519,22.498-57.764v-82.22c0-18.791-15.287-34.079-34.078-34.079
			h-9.809V10c0-5.523-4.477-10-10-10h-68.498c-5.522,0-10,4.477-10,10v54.096h-134.71V10c0-5.523-4.477-10-10-10h-68.498
			c-5.522,0-10,4.477-10,10v54.096h-9.809c-18.791,0-34.078,15.288-34.078,34.079v82.22c0,22.245,8.535,42.532,22.499,57.765v58.283
			H54.75c-20.83,0-37.776,16.946-37.776,37.776v140.006C16.974,495.054,33.92,512,54.75,512h402.5
			c20.83,0,37.776-16.946,37.776-37.776V334.218C495.026,313.388,478.08,296.442,457.25,296.442z M78.758,492H54.75
			c-9.802,0-17.776-7.974-17.776-17.776v-86.532h41.784V492z M78.758,367.692H36.974v-33.475c0-9.802,7.975-17.776,17.776-17.776
			h24.008V367.692z M343.355,20h48.498v44.096h-48.498V20z M120.146,20h48.498v44.096h-48.498V20z M373.242,492H138.759v-77.123
			c0-14.99,12.195-27.185,27.185-27.185h180.113c14.989,0,27.185,12.195,27.185,27.185V492z M393.241,492v-77.123
			c0-26.018-21.167-47.185-47.185-47.185H165.943c-26.018,0-47.185,21.167-47.185,47.185V492h-20V254.306
			c12.29,7.189,26.523,11.398,41.704,11.637v39.372c0,5.523,4.477,10,10,10h57.866c5.522,0,10-4.477,10-10V265.96h75.342v39.355
			c0,5.523,4.478,10,10,10h57.866c5.522,0,10-4.477,10-10v-39.372c15.182-0.238,29.415-4.448,41.705-11.637V492H393.241z
			 M160.463,295.315v-95.988h37.866v95.988H160.463z M313.671,295.315v-95.988h37.866v95.988H313.671z M371.537,245.943v-56.616
			c0-5.523-4.478-10-10-10h-57.866c-5.522,0-10,4.477-10,10v56.634h-75.342v-56.634c0-5.523-4.478-10-10-10h-57.866
			c-5.523,0-10,4.477-10,10v56.616c-35.527-0.728-64.203-29.851-64.203-65.548v-44.572h257.096c5.522,0,10-4.477,10-10
			s-4.478-10-10-10H76.26V98.175c0-7.763,6.315-14.079,14.078-14.079h331.324c7.763,0,14.078,6.315,14.078,14.079v82.22
			C435.74,216.092,407.064,245.214,371.537,245.943z M475.026,474.224c0,9.802-7.975,17.776-17.776,17.776h-24.008V387.692h41.784
			V474.224z M475.026,367.692h-41.784v-51.251h24.008c9.802,0,17.776,7.974,17.776,17.776V367.692z"/>
	</g>
</g>
<g>
	<g>
		<path d="M154.178,340.11c-0.13-0.63-0.32-1.26-0.57-1.87c-0.25-0.6-0.56-1.18-0.92-1.72c-0.359-0.55-0.779-1.06-1.239-1.52
			c-0.459-0.47-0.97-0.88-1.52-1.25c-0.541-0.361-1.13-0.67-1.73-0.92c-0.6-0.25-1.23-0.44-1.87-0.57c-1.29-0.26-2.62-0.26-3.91,0
			c-0.64,0.129-1.27,0.32-1.87,0.57c-0.599,0.25-1.179,0.56-1.73,0.92c-0.539,0.37-1.05,0.78-1.51,1.25
			c-0.47,0.46-0.88,0.97-1.25,1.52c-0.359,0.54-0.67,1.12-0.92,1.72c-0.25,0.61-0.439,1.24-0.57,1.87
			c-0.129,0.65-0.189,1.3-0.189,1.96c0,2.63,1.06,5.21,2.93,7.07c0.46,0.46,0.971,0.88,1.51,1.24c0.55,0.36,1.13,0.67,1.73,0.92
			c0.599,0.25,1.23,0.44,1.87,0.57c0.649,0.13,1.3,0.2,1.96,0.2c0.65,0,1.309-0.07,1.948-0.2c0.64-0.13,1.269-0.32,1.87-0.57
			c0.6-0.25,1.19-0.56,1.73-0.92c0.549-0.36,1.06-0.779,1.52-1.24c1.859-1.86,2.92-4.44,2.92-7.07
			C154.368,341.41,154.308,340.76,154.178,340.11z"/>
	</g>
</g>
<g>
	<g>
		<path d="M367.624,332.067h-186.25c-5.522,0-10,4.477-10,10s4.478,10,10,10h186.25c5.523,0,10-4.477,10-10
			S373.147,332.067,367.624,332.067z"/>
	</g>
</g>
<g>
</g>
<g>
</g>
<g>
</g>
<g>
</g>
<g>
</g>
<g>
</g>
<g>
</g>
<g>
</g>
<g>
</g>
<g>
</g>
<g>
</g>
<g>
</g>
<g>
</g>
<g>
</g>
<g>
</g>
</svg>
