<?xml version="1.0" encoding="iso-8859-1"?>
<!-- Generator: Adobe Illustrator 19.0.0, SVG Export Plug-In . SVG Version: 6.00 Build 0)  -->
<svg version="1.1" id="Capa_1" xmlns="http://www.w3.org/2000/svg" xmlns:xlink="http://www.w3.org/1999/xlink" x="0px" y="0px"
	 viewBox="0 0 511.999 511.999" style="enable-background:new 0 0 511.999 511.999;" xml:space="preserve">
<g>
	<g>
		<path d="M465.753,179.655c-0.46-0.46-0.97-0.88-1.52-1.25c-0.54-0.36-1.12-0.67-1.721-0.92c-0.609-0.25-1.239-0.44-1.87-0.57
			c-1.29-0.26-2.619-0.26-3.909,0c-0.641,0.13-1.27,0.32-1.87,0.57c-0.61,0.25-1.19,0.56-1.73,0.92c-0.55,0.37-1.06,0.79-1.52,1.25
			c-0.46,0.46-0.88,0.97-1.24,1.52c-0.36,0.54-0.67,1.12-0.92,1.72c-0.25,0.61-0.44,1.24-0.57,1.87c-0.13,0.65-0.2,1.31-0.2,1.96
			c0,0.65,0.07,1.31,0.2,1.95c0.13,0.64,0.32,1.27,0.57,1.87c0.25,0.61,0.56,1.19,0.92,1.73c0.36,0.55,0.78,1.06,1.24,1.52
			c0.46,0.46,0.97,0.88,1.52,1.24c0.539,0.36,1.12,0.67,1.73,0.92c0.599,0.25,1.229,0.44,1.87,0.57c0.639,0.13,1.3,0.2,1.949,0.2
			c0.66,0,1.31-0.07,1.96-0.2c0.641-0.13,1.261-0.32,1.87-0.57c0.601-0.25,1.181-0.56,1.721-0.92c0.55-0.36,1.06-0.78,1.52-1.24
			c1.87-1.86,2.93-4.44,2.93-7.07C468.684,184.086,467.624,181.515,465.753,179.655z"/>
	</g>
</g>
<g>
	<g>
		<path d="M354.687,290.717c20.498-9.235,42.75-22.636,62.058-41.945c10.169-10.168,18.697-21.151,25.843-32.265L354.687,290.717z"
			/>
	</g>
</g>
<g>
	<g>
		<path d="M447.997,208.094c-4.648-2.988-10.834-1.643-13.82,3.003c-7.291,11.338-15.534,21.633-24.504,30.602
			c-16.031,16.032-35.914,29.456-59.094,39.899c-5.035,2.269-7.279,8.191-5.01,13.226c1.668,3.702,5.309,5.895,9.124,5.895
			c1.373,0,2.769-0.284,4.101-0.886c25.396-11.442,47.272-26.242,65.023-43.991c9.977-9.976,19.122-21.391,27.184-33.928
			C453.988,217.269,452.644,211.081,447.997,208.094z"/>
	</g>
</g>
<g>
	<g>
		<path d="M511.661,161.015c-0.723-3.074-2.697-5.58-5.396-6.928l-64.976-33.811c-0.005-0.003-0.01-0.005-0.015-0.008
			c0,0-16.924-8.877-22.426-11.931c6.447-17.824,2.226-38.03-11.656-51.913c-16.675-16.676-42.692-18.96-61.908-6.716l-1.849-1.849
			c-6.285-6.286-14.643-9.749-23.532-9.749c-8.89,0-17.246,3.462-23.533,9.748l-80.538,80.538
			c-6.285,6.285-9.748,14.643-9.748,23.533s3.462,17.247,9.748,23.533l2.655,2.655c-9.667,12.622-18.095,26.011-25.106,39.913
			c-10.798,21.417-44.568,61.761-69.665,86.858c-39.451,39.451-63.979,47.573-82.771,50.317c-0.038,0.006-0.076,0.015-0.114,0.021
			c-0.147,0.023-0.293,0.05-0.438,0.08c-0.07,0.014-0.14,0.027-0.209,0.043c-0.171,0.039-0.342,0.083-0.511,0.131
			c-0.039,0.011-0.078,0.02-0.117,0.031c-0.208,0.061-0.413,0.13-0.616,0.204c-0.045,0.017-0.089,0.036-0.134,0.053
			c-0.157,0.06-0.312,0.123-0.466,0.191c-0.062,0.028-0.123,0.057-0.185,0.086c-0.08,0.038-0.162,0.072-0.241,0.112
			c-0.041,0.021-0.08,0.045-0.121,0.067c-0.131,0.068-0.259,0.14-0.387,0.213c-0.092,0.053-0.184,0.104-0.274,0.159
			c-0.129,0.08-0.255,0.165-0.38,0.251c-0.083,0.056-0.167,0.109-0.247,0.168c-0.189,0.137-0.373,0.281-0.551,0.432
			c-0.096,0.08-0.186,0.166-0.278,0.25c-0.09,0.082-0.182,0.163-0.269,0.248c-0.03,0.029-0.063,0.056-0.092,0.085L2.929,390.417
			c-3.905,3.905-3.905,10.238,0,14.144l66.4,66.4c1.953,1.953,4.512,2.929,7.072,2.929c2.56,0,5.118-0.976,7.071-2.929
			l202.335-202.336c0.031,0.059,0.061,0.116,0.091,0.175l36.162,69.492c1.348,2.699,3.853,4.674,6.929,5.397
			c0.967,0.227,2.332,0.338,4.034,0.338c9.006,0,27.41-3.126,45.683-8.833c22.028-6.879,53.585-20.379,78.834-45.628
			c25.248-25.248,38.748-56.806,45.627-78.834C509.952,189.005,513.089,167.092,511.661,161.015z M393.049,70.568
			c7.337,7.337,10.158,17.626,8.048,27.273c-14.537-9.268-26.748-19.098-41.078-33.398C370.922,59.65,384.191,61.709,393.049,70.568
			z M229.976,142.541l80.538-80.538c2.508-2.508,5.842-3.89,9.39-3.89c3.546,0,6.88,1.381,9.389,3.889l1.025,1.025l-99.316,99.316
			l-1.025-1.026c-2.508-2.508-3.89-5.842-3.89-9.389C226.087,148.383,227.468,145.049,229.976,142.541z M76.4,449.745L24.144,397.49
			l18.246-18.246l52.256,52.256L76.4,449.745z M108.79,417.355l-46.579-46.578c24.327-7.72,47.888-23.983,75.65-51.745
			c26.768-26.768,61.533-68.498,73.381-91.995c6.06-12.019,13.281-23.63,21.521-34.639c19.309,19.4,30.444,34.965,43.175,57.81
			L108.79,417.355z M297.321,247.615c-0.131-0.271-0.275-0.538-0.432-0.8c-15.104-27.898-27.663-46.246-50.595-69.178l-1.148-1.148
			l99.316-99.317l1.148,1.149c18.687,18.686,34.33,30.485,54.578,42.385c0.117,0.08,0.236,0.159,0.358,0.234
			c0.256,0.159,0.518,0.3,0.781,0.433c7.214,4.205,15.018,8.441,23.755,13.012c-5.657,21.24-17.936,54.193-43.233,79.49
			c-25.297,25.297-58.25,37.575-79.49,43.232C300.637,253.817,298.963,250.659,297.321,247.615z M443.396,275.422
			c-36.31,36.309-89.7,46.759-106.316,48.402l-25.281-48.581c23.464-6.739,57.399-20.43,84.193-47.224s40.486-60.729,47.224-84.193
			l48.581,25.28C490.154,185.722,479.703,239.113,443.396,275.422z"/>
	</g>
</g>
<g>
	<g>
		<path d="M235.727,251.506c-3.906-3.904-10.239-3.904-14.144,0l-98.212,98.212c-3.905,3.905-3.905,10.238,0,14.143
			c1.953,1.953,4.511,2.929,7.071,2.929c2.558,0,5.119-0.976,7.073-2.928l98.212-98.212
			C239.633,261.744,239.633,255.412,235.727,251.506z"/>
	</g>
</g>
<g>
</g>
<g>
</g>
<g>
</g>
<g>
</g>
<g>
</g>
<g>
</g>
<g>
</g>
<g>
</g>
<g>
</g>
<g>
</g>
<g>
</g>
<g>
</g>
<g>
</g>
<g>
</g>
<g>
</g>
</svg>
