<?xml version="1.0" encoding="iso-8859-1"?>
<!-- Generator: Adobe Illustrator 19.0.0, SVG Export Plug-In . SVG Version: 6.00 Build 0)  -->
<svg version="1.1" id="Capa_1" xmlns="http://www.w3.org/2000/svg" xmlns:xlink="http://www.w3.org/1999/xlink" x="0px" y="0px"
	 viewBox="0 0 512 512" style="enable-background:new 0 0 512 512;" xml:space="preserve">
<g>
	<g>
		<path d="M275.072,345.891c-0.46-0.46-0.97-0.88-1.52-1.25c-0.54-0.359-1.12-0.67-1.72-0.92c-0.61-0.25-1.23-0.439-1.87-0.57
			c-1.29-0.26-2.62-0.26-3.91,0c-0.64,0.131-1.269,0.32-1.87,0.57c-0.599,0.25-1.189,0.561-1.729,0.92
			c-0.551,0.37-1.061,0.79-1.521,1.25c-1.861,1.86-2.93,4.429-2.93,7.07c0,0.649,0.069,1.309,0.2,1.95
			c0.13,0.64,0.319,1.269,0.569,1.87c0.25,0.61,0.561,1.19,0.92,1.73c0.36,0.549,0.78,1.059,1.24,1.52
			c0.46,0.46,0.97,0.88,1.521,1.239c0.54,0.36,1.129,0.67,1.729,0.92c0.6,0.25,1.23,0.44,1.87,0.57c0.639,0.13,1.3,0.2,1.95,0.2
			c0.649,0,1.309-0.071,1.962-0.2c0.63-0.13,1.26-0.32,1.87-0.57c0.6-0.25,1.18-0.56,1.72-0.92c0.55-0.359,1.06-0.779,1.52-1.239
			c0.461-0.461,0.881-0.97,1.25-1.52c0.36-0.541,0.671-1.121,0.921-1.73c0.25-0.6,0.439-1.23,0.569-1.87
			c0.129-0.641,0.19-1.301,0.19-1.95C278.003,350.321,276.942,347.751,275.072,345.891z"/>
	</g>
</g>
<g>
	<g>
		<path d="M93.68,415.769c-0.13-0.63-0.32-1.26-0.57-1.87c-0.25-0.6-0.56-1.18-0.92-1.72c-0.359-0.55-0.779-1.06-1.239-1.52
			c-1.86-1.861-4.44-2.931-7.07-2.931c-2.639,0-5.21,1.071-7.07,2.931c-0.47,0.46-0.88,0.97-1.25,1.52
			c-0.359,0.54-0.67,1.12-0.92,1.72c-0.25,0.61-0.439,1.24-0.57,1.87c-0.129,0.65-0.189,1.311-0.189,1.96
			c0,0.65,0.059,1.31,0.189,1.95c0.131,0.64,0.33,1.27,0.58,1.87c0.24,0.61,0.551,1.19,0.91,1.73c0.37,0.55,0.78,1.06,1.25,1.52
			c1.86,1.861,4.43,2.93,7.07,2.93c2.629,0,5.209-1.069,7.07-2.93c0.46-0.46,0.88-0.97,1.239-1.52c0.36-0.54,0.67-1.12,0.92-1.73
			c0.25-0.599,0.44-1.23,0.57-1.87c0.13-0.64,0.2-1.3,0.2-1.95C93.88,417.08,93.81,416.419,93.68,415.769z"/>
	</g>
</g>
<g>
	<g>
		<g>
			<path d="M463.085,265.951L314.834,117.7c10.096-10.825,9.877-27.841-0.671-38.389l-61.04-61.039
				c-10.546-10.546-27.563-10.765-38.387-0.671L200.062,2.928c-3.906-3.904-10.236-3.904-14.143,0L151.64,37.207
				c-3.905,3.905-3.905,10.237,0,14.143l9.977,9.977c-5.308,3.052-21.111,11.371-21.111,11.371c-0.015,0.008-0.03,0.015-0.046,0.022
				L91.258,98.324c-2.69,1.34-4.656,3.824-5.371,6.869c-1.322,5.629,1.648,23.469,6.484,38.955
				c4.821,15.438,13.88,36.966,30.172,55.403c-47.73,9.397-76.556,28.785-76.556,52.468v201.692
				c0,17.373,15.751,32.826,44.352,43.513C115.84,506.752,149.538,512,185.223,512c35.686,0,69.382-5.247,94.883-14.775
				c28.601-10.686,44.352-26.14,44.352-43.513v-10.523c15.647,14.747,38.613,17.858,55.184,17.857
				c11.431,0,19.818-1.477,20.647-1.63c4.088-0.748,7.286-3.947,8.034-8.034c0.374-2.045,8.814-50.077-16.774-76.403
				c18.551-19.083,19.22-49.57,18.039-65.681l5.075,5.075c1.953,1.952,4.512,2.929,7.071,2.929s5.118-0.977,7.071-2.929
				l34.279-34.279C466.99,276.188,466.99,269.856,463.085,265.951z M192.991,24.141l7.58,7.58
				c-7.579,7.494-14.41,13.34-21.689,18.585l-6.028-6.027L192.991,24.141z M182.688,71.909c0.306-0.177,0.605-0.371,0.895-0.583
				c11.181-7.316,20.978-15.3,32.222-26.544l12.367-12.367c2.979-2.98,7.828-2.98,10.809,0l61.039,61.039
				c2.98,2.98,2.98,7.829,0,10.81l-12.367,12.367c-11.238,11.239-19.219,21.033-26.533,32.207c-0.219,0.298-0.417,0.605-0.599,0.92
				c-4.966,7.677-9.655,16.032-14.887,25.968c-15.844-4.423-39.229-13.564-57.294-31.631c-18.066-18.066-27.208-41.45-31.631-57.293
				C166.651,81.568,175.008,76.877,182.688,71.909z M105.885,113.258l32.746-17.039c5.454,17.88,15.955,42.405,35.567,62.018
				c19.611,19.612,44.137,30.113,62.018,35.566c0.008-0.016,0.017-0.033,0,0l-17.04,32.746
				c-13.714-1.668-51.508-9.832-77.482-35.808C115.717,164.765,107.554,126.971,105.885,113.258z M244.029,252.019
				c-17.38,3.931-37.866,6.062-58.806,6.062c-20.939,0-41.425-2.131-58.806-6.062c17.378-3.931,37.863-6.061,58.806-6.061
				C206.166,245.959,226.65,248.088,244.029,252.019z M304.457,387.76c0,8.058-12.014,17.552-31.352,24.777
				c-23.318,8.713-54.528,13.511-87.883,13.511c-25.189,0-49.414-2.769-70.056-8.006c-5.355-1.353-10.794,1.882-12.152,7.234
				c-1.357,5.353,1.881,10.794,7.234,12.151c22.225,5.64,48.15,8.62,74.974,8.62c35.686,0,69.382-5.247,94.883-14.775
				c9.603-3.588,17.755-7.715,24.352-12.27v34.708c0.001,8.059-12.013,17.553-31.351,24.779
				C249.788,487.202,218.578,492,185.223,492c-33.354,0-64.565-4.798-87.883-13.511c-19.339-7.226-31.353-16.72-31.353-24.777
				V347.117c6.596,4.555,14.748,8.682,24.352,12.27c25.502,9.528,59.198,14.775,94.884,14.775c19.428,0,38.18-1.532,55.733-4.556
				c5.442-0.937,9.095-6.108,8.157-11.552c-0.937-5.442-6.11-9.099-11.552-8.157c-16.436,2.83-34.045,4.265-52.339,4.265
				c-33.354,0-64.565-4.798-87.883-13.511c-19.339-7.225-31.353-16.72-31.353-24.776v-32.614c6.596,4.555,14.748,8.682,24.352,12.27
				c25.501,9.528,59.198,14.775,94.884,14.775c35.686,0,69.382-5.247,94.883-14.775c9.603-3.588,17.755-7.715,24.352-12.27V387.76z
				 M273.107,276.796c-23.318,8.713-54.528,13.511-87.883,13.511c-33.354,0-64.565-4.798-87.883-13.511
				c-19.339-7.226-31.353-16.72-31.353-24.777c0-12.391,28.073-28.715,75.298-35.329c5.389,3.997,10.913,7.455,16.371,10.444
				c-16.823,1.448-32.717,4.205-46.342,8.105c-7.942,2.273-15.004,4.888-20.986,7.772c-3.459,1.668-5.657,5.168-5.657,9.007
				c0,3.84,2.197,7.34,5.655,9.008c5.981,2.885,13.042,5.501,20.988,7.774c20.912,5.984,47.16,9.28,73.909,9.28
				s52.997-3.296,73.909-9.28c7.946-2.273,15.007-4.89,20.988-7.774c3.458-1.668,5.655-5.168,5.655-9.008
				c0-3.839-2.198-7.339-5.657-9.007c-5.983-2.885-13.044-5.499-20.985-7.772c-6.107-1.748-12.673-3.265-19.57-4.539l5.841-11.225
				c38.802,7.952,59.054,22.079,59.054,32.544C304.459,260.077,292.445,269.571,273.107,276.796z M254.975,201.082
				c0,0,13.082-24.956,16.134-30.264l118.457,118.457c-15.951-1.17-45.992-0.528-65.108,17.487v-54.743
				C324.458,229.694,298.758,211.073,254.975,201.082z M389.512,440.67c-14.309,1.25-38.956,0.375-52.004-12.673
				c-8.74-8.741-11.858-22.282-12.743-33.966c2.913,0.215,6.297,0.371,10.005,0.371c11.751,0,26.72-1.566,40.015-7.733
				c0.744,0.621,1.453,1.265,2.12,1.932C390.848,402.545,390.592,428.237,389.512,440.67z M376.905,361.354
				c-1.86,1.86-3.931,3.466-6.151,4.852c-0.273,0.149-0.54,0.311-0.799,0.486c-14.342,8.49-34.458,8.189-45.059,7.275
				c-0.217-2.514-0.399-5.563-0.438-8.944v-2.633c0.151-13.098,2.652-30.032,13.052-40.432
				c13.921-13.922,39.552-13.69,52.008-12.613C390.593,321.809,390.825,347.435,376.905,361.354z M421.734,293.159L282.129,153.554
				c5.245-7.279,11.091-14.11,18.584-21.689l141.158,141.157L421.734,293.159z"/>
			<path d="M236.216,193.803C236.216,193.803,236.215,193.803,236.216,193.803C236.207,193.819,236.199,193.835,236.216,193.803z"/>
		</g>
	</g>
</g>
<g>
</g>
<g>
</g>
<g>
</g>
<g>
</g>
<g>
</g>
<g>
</g>
<g>
</g>
<g>
</g>
<g>
</g>
<g>
</g>
<g>
</g>
<g>
</g>
<g>
</g>
<g>
</g>
<g>
</g>
</svg>
